<svg width="258" height="23" viewBox="0 0 258 23" fill="none" xmlns="http://www.w3.org/2000/svg">
<path d="M12.668 8.14453V10.9922C12.668 12.1953 12.5195 13.25 12.2227 14.1562C11.9336 15.0547 11.5195 15.8086 10.9805 16.418C10.4492 17.0195 9.80469 17.4727 9.04688 17.7773C8.29688 18.082 7.46484 18.2344 6.55078 18.2344C5.63672 18.2344 4.80078 18.082 4.04297 17.7773C3.29297 17.4727 2.64453 17.0195 2.09766 16.418C1.55859 15.8086 1.14062 15.0547 0.84375 14.1562C0.546875 13.25 0.398438 12.1953 0.398438 10.9922V8.14453C0.398438 6.91016 0.542969 5.83203 0.832031 4.91016C1.12109 3.98047 1.53906 3.20703 2.08594 2.58984C2.63281 1.96484 3.28125 1.49609 4.03125 1.18359C4.78125 0.863281 5.61328 0.703125 6.52734 0.703125C7.44141 0.703125 8.27344 0.863281 9.02344 1.18359C9.77344 1.49609 10.4219 1.96484 10.9688 2.58984C11.5156 3.20703 11.9336 3.98047 12.2227 4.91016C12.5195 5.83203 12.668 6.91016 12.668 8.14453ZM9.25781 10.9922V8.12109C9.25781 7.30859 9.19922 6.61719 9.08203 6.04688C8.96484 5.46875 8.78906 4.99609 8.55469 4.62891C8.32031 4.26172 8.03516 3.99219 7.69922 3.82031C7.36328 3.64844 6.97266 3.5625 6.52734 3.5625C6.08203 3.5625 5.6875 3.64844 5.34375 3.82031C5.00781 3.99219 4.72266 4.26172 4.48828 4.62891C4.26172 4.99609 4.08984 5.46875 3.97266 6.04688C3.86328 6.61719 3.80859 7.30859 3.80859 8.12109V10.9922C3.80859 11.7734 3.86719 12.4414 3.98438 12.9961C4.10156 13.5508 4.27734 14.0039 4.51172 14.3555C4.74609 14.707 5.03125 14.9688 5.36719 15.1406C5.71094 15.3047 6.10547 15.3867 6.55078 15.3867C6.98828 15.3867 7.375 15.3047 7.71094 15.1406C8.05469 14.9688 8.33984 14.707 8.56641 14.3555C8.79297 14.0039 8.96484 13.5508 9.08203 12.9961C9.19922 12.4414 9.25781 11.7734 9.25781 10.9922ZM20.8477 5.32031V18H17.5547V5.32031H20.8477ZM24.1055 5.32031V8.02734H14.3086V5.32031H24.1055ZM29.4258 5.32031V18H26.1328V5.32031H29.4258ZM36.3164 5.32031L31.7227 13.3242H28.8281L28.4062 10.0781H30.2227L32.1797 5.32031H36.3164ZM32.2266 18L30.0234 12.6914L32.8828 11.0391L36.5859 18H32.2266ZM41.2734 7.75781V22.875H38.0039V5.32031H41.0273L41.2734 7.75781ZM47.8594 11.2266V12.0703C47.8594 13.0625 47.7734 13.9414 47.6016 14.707C47.4297 15.4648 47.1719 16.1094 46.8281 16.6406C46.4922 17.1641 46.0703 17.5625 45.5625 17.8359C45.0547 18.1016 44.4609 18.2344 43.7812 18.2344C43.1484 18.2344 42.6016 18.0859 42.1406 17.7891C41.6875 17.4844 41.3047 17.0664 40.9922 16.5352C40.6797 16.0039 40.4297 15.3828 40.2422 14.6719C40.0547 13.9609 39.9102 13.1992 39.8086 12.3867V11.0742C39.9023 10.207 40.0391 9.41016 40.2188 8.68359C40.3984 7.94922 40.6445 7.3125 40.957 6.77344C41.2773 6.23438 41.6641 5.82031 42.1172 5.53125C42.5781 5.23438 43.125 5.08594 43.7578 5.08594C44.4453 5.08594 45.043 5.21094 45.5508 5.46094C46.0664 5.71094 46.4922 6.08984 46.8281 6.59766C47.1719 7.09766 47.4297 7.73438 47.6016 8.50781C47.7734 9.28125 47.8594 10.1875 47.8594 11.2266ZM44.5664 12.0703V11.2266C44.5664 10.6172 44.5352 10.0977 44.4727 9.66797C44.4102 9.23828 44.3086 8.88672 44.168 8.61328C44.0273 8.33984 43.8438 8.14062 43.6172 8.01562C43.3906 7.89062 43.1133 7.82812 42.7852 7.82812C42.4648 7.82812 42.1836 7.89062 41.9414 8.01562C41.707 8.14062 41.5156 8.32422 41.3672 8.56641C41.2188 8.80078 41.1055 9.08984 41.0273 9.43359C40.9492 9.76953 40.9062 10.1523 40.8984 10.582V12.8789C40.9141 13.3867 40.9805 13.8359 41.0977 14.2266C41.2227 14.6172 41.4219 14.9297 41.6953 15.1641C41.9688 15.3906 42.3398 15.5039 42.8086 15.5039C43.1445 15.5039 43.4219 15.4336 43.6406 15.293C43.8672 15.1523 44.0508 14.9414 44.1914 14.6602C44.332 14.3789 44.4297 14.0234 44.4844 13.5938C44.5391 13.1641 44.5664 12.6562 44.5664 12.0703ZM52.1836 9.02344H55.1367C56.1367 9.02344 56.9883 9.21484 57.6914 9.59766C58.4023 9.97266 58.9414 10.5 59.3086 11.1797C59.6836 11.8594 59.8711 12.6445 59.8711 13.5352C59.8711 14.1836 59.7617 14.7812 59.543 15.3281C59.332 15.8672 59.0234 16.3398 58.6172 16.7461C58.2188 17.1445 57.7266 17.4531 57.1406 17.6719C56.5547 17.8906 55.8867 18 55.1367 18H50.0859V5.32031H53.3906V15.2812H55.1367C55.4883 15.2812 55.7695 15.1992 55.9805 15.0352C56.1992 14.8711 56.3555 14.6602 56.4492 14.4023C56.5508 14.1367 56.6016 13.8477 56.6016 13.5352C56.6016 13.207 56.5508 12.9102 56.4492 12.6445C56.3555 12.3711 56.1992 12.1562 55.9805 12C55.7695 11.8359 55.4883 11.7539 55.1367 11.7539H52.1836V9.02344ZM64.6172 5.32031V18H61.3359V5.32031H64.6172ZM73.2773 5.32031V18H69.9844V5.32031H73.2773ZM76.5352 5.32031V8.02734H66.7383V5.32031H76.5352ZM83.7305 15.082V9.22266C83.7305 8.83984 83.6836 8.53516 83.5898 8.30859C83.5039 8.08203 83.3711 7.91797 83.1914 7.81641C83.0195 7.70703 82.8086 7.65234 82.5586 7.65234C82.2773 7.65234 82.043 7.71094 81.8555 7.82812C81.668 7.94531 81.5273 8.11328 81.4336 8.33203C81.3477 8.55078 81.3047 8.8125 81.3047 9.11719H78.0117C78.0117 8.57031 78.1172 8.05469 78.3281 7.57031C78.5391 7.07812 78.8477 6.64844 79.2539 6.28125C79.668 5.90625 80.1602 5.61328 80.7305 5.40234C81.3008 5.19141 81.9414 5.08594 82.6523 5.08594C83.4961 5.08594 84.2461 5.23047 84.9023 5.51953C85.5586 5.80078 86.0781 6.25 86.4609 6.86719C86.8438 7.48438 87.0352 8.28516 87.0352 9.26953V14.918C87.0352 15.6289 87.0703 16.207 87.1406 16.6523C87.2188 17.0977 87.332 17.4805 87.4805 17.8008V18H84.1758C84.0273 17.6484 83.9141 17.2109 83.8359 16.6875C83.7656 16.1562 83.7305 15.6211 83.7305 15.082ZM84.1289 10.2539L84.1406 12.2227H82.9336C82.6211 12.2227 82.3477 12.2734 82.1133 12.375C81.8867 12.4766 81.6953 12.6211 81.5391 12.8086C81.3828 12.9883 81.2656 13.1992 81.1875 13.4414C81.1172 13.6836 81.082 13.9414 81.082 14.2148C81.082 14.5195 81.125 14.7773 81.2109 14.9883C81.2969 15.1992 81.4258 15.3594 81.5977 15.4688C81.7695 15.5781 81.9727 15.6328 82.207 15.6328C82.5664 15.6328 82.8789 15.5586 83.1445 15.4102C83.4102 15.2617 83.6055 15.082 83.7305 14.8711C83.8633 14.6602 83.9062 14.4648 83.8594 14.2852L84.6094 15.5625C84.5156 15.8516 84.3867 16.1523 84.2227 16.4648C84.0664 16.7773 83.8672 17.0664 83.625 17.332C83.3828 17.5977 83.082 17.8164 82.7227 17.9883C82.3711 18.1523 81.9531 18.2344 81.4688 18.2344C80.7891 18.2344 80.168 18.0781 79.6055 17.7656C79.043 17.4531 78.5977 17.0156 78.2695 16.4531C77.9492 15.8906 77.7891 15.2227 77.7891 14.4492C77.7891 13.8086 77.8906 13.2305 78.0938 12.7148C78.3047 12.1914 78.6172 11.75 79.0312 11.3906C79.4453 11.0234 79.9688 10.7422 80.6016 10.5469C81.2344 10.3516 81.9766 10.2539 82.8281 10.2539H84.1289ZM102.281 10.4062V13.125H97.2188V10.4062H102.281ZM98.2852 5.32031V18H94.9922V5.32031H98.2852ZM104.52 5.32031V18H101.238V5.32031H104.52ZM106.594 12.0938V11.2383C106.594 10.2461 106.711 9.36719 106.945 8.60156C107.188 7.83594 107.531 7.19531 107.977 6.67969C108.422 6.15625 108.957 5.76172 109.582 5.49609C110.215 5.22266 110.922 5.08594 111.703 5.08594C112.492 5.08594 113.199 5.22266 113.824 5.49609C114.457 5.76172 114.996 6.15625 115.441 6.67969C115.895 7.19531 116.242 7.83594 116.484 8.60156C116.727 9.36719 116.848 10.2461 116.848 11.2383V12.0938C116.848 13.0781 116.727 13.9531 116.484 14.7188C116.242 15.4844 115.895 16.1289 115.441 16.6523C114.996 17.1758 114.461 17.5703 113.836 17.8359C113.211 18.1016 112.508 18.2344 111.727 18.2344C110.945 18.2344 110.238 18.1016 109.605 17.8359C108.98 17.5703 108.441 17.1758 107.988 16.6523C107.535 16.1289 107.188 15.4844 106.945 14.7188C106.711 13.9531 106.594 13.0781 106.594 12.0938ZM109.875 11.2383V12.0938C109.875 12.6797 109.914 13.1875 109.992 13.6172C110.078 14.0469 110.199 14.4023 110.355 14.6836C110.52 14.9648 110.715 15.1719 110.941 15.3047C111.168 15.4375 111.43 15.5039 111.727 15.5039C112.023 15.5039 112.289 15.4375 112.523 15.3047C112.758 15.1719 112.949 14.9648 113.098 14.6836C113.254 14.4023 113.367 14.0469 113.438 13.6172C113.516 13.1875 113.555 12.6797 113.555 12.0938V11.2383C113.555 10.668 113.512 10.168 113.426 9.73828C113.34 9.30078 113.219 8.94531 113.062 8.67188C112.906 8.39062 112.711 8.17969 112.477 8.03906C112.25 7.89062 111.992 7.81641 111.703 7.81641C111.414 7.81641 111.156 7.89062 110.93 8.03906C110.711 8.17969 110.52 8.39062 110.355 8.67188C110.199 8.94531 110.078 9.30078 109.992 9.73828C109.914 10.168 109.875 10.668 109.875 11.2383ZM124.406 12.7383H121.219L121.195 10.4531H123.785C124.09 10.4531 124.332 10.4102 124.512 10.3242C124.691 10.2383 124.82 10.1133 124.898 9.94922C124.984 9.77734 125.027 9.5625 125.027 9.30469C125.027 9.07812 125 8.88281 124.945 8.71875C124.891 8.55469 124.809 8.42188 124.699 8.32031C124.598 8.21875 124.461 8.14453 124.289 8.09766C124.125 8.05078 123.938 8.02734 123.727 8.02734H122.414V18H119.133V5.32031H123.727C124.43 5.32031 125.062 5.39453 125.625 5.54297C126.188 5.68359 126.672 5.89844 127.078 6.1875C127.484 6.47656 127.793 6.84375 128.004 7.28906C128.215 7.73438 128.32 8.25781 128.32 8.85938C128.32 9.25 128.242 9.61719 128.086 9.96094C127.93 10.2969 127.703 10.5977 127.406 10.8633C127.109 11.1289 126.738 11.3477 126.293 11.5195C125.848 11.6836 125.336 11.7891 124.758 11.8359L124.406 12.7383ZM124.406 18H120.375L121.559 15.293H124.406C124.695 15.293 124.926 15.2461 125.098 15.1523C125.27 15.0586 125.395 14.918 125.473 14.7305C125.551 14.5352 125.59 14.3047 125.59 14.0391C125.59 13.7812 125.555 13.5547 125.484 13.3594C125.422 13.1562 125.305 13.0039 125.133 12.9023C124.969 12.793 124.727 12.7383 124.406 12.7383H121.758L121.781 10.4531H124.711L125.473 11.3789C126.27 11.4336 126.918 11.6016 127.418 11.8828C127.918 12.1641 128.285 12.5234 128.52 12.9609C128.754 13.3906 128.871 13.8633 128.871 14.3789C128.871 14.9805 128.773 15.5078 128.578 15.9609C128.383 16.4141 128.098 16.793 127.723 17.0977C127.355 17.3945 126.891 17.6211 126.328 17.7773C125.766 17.9258 125.125 18 124.406 18ZM136.465 15.082V9.22266C136.465 8.83984 136.418 8.53516 136.324 8.30859C136.238 8.08203 136.105 7.91797 135.926 7.81641C135.754 7.70703 135.543 7.65234 135.293 7.65234C135.012 7.65234 134.777 7.71094 134.59 7.82812C134.402 7.94531 134.262 8.11328 134.168 8.33203C134.082 8.55078 134.039 8.8125 134.039 9.11719H130.746C130.746 8.57031 130.852 8.05469 131.062 7.57031C131.273 7.07812 131.582 6.64844 131.988 6.28125C132.402 5.90625 132.895 5.61328 133.465 5.40234C134.035 5.19141 134.676 5.08594 135.387 5.08594C136.23 5.08594 136.98 5.23047 137.637 5.51953C138.293 5.80078 138.812 6.25 139.195 6.86719C139.578 7.48438 139.77 8.28516 139.77 9.26953V14.918C139.77 15.6289 139.805 16.207 139.875 16.6523C139.953 17.0977 140.066 17.4805 140.215 17.8008V18H136.91C136.762 17.6484 136.648 17.2109 136.57 16.6875C136.5 16.1562 136.465 15.6211 136.465 15.082ZM136.863 10.2539L136.875 12.2227H135.668C135.355 12.2227 135.082 12.2734 134.848 12.375C134.621 12.4766 134.43 12.6211 134.273 12.8086C134.117 12.9883 134 13.1992 133.922 13.4414C133.852 13.6836 133.816 13.9414 133.816 14.2148C133.816 14.5195 133.859 14.7773 133.945 14.9883C134.031 15.1992 134.16 15.3594 134.332 15.4688C134.504 15.5781 134.707 15.6328 134.941 15.6328C135.301 15.6328 135.613 15.5586 135.879 15.4102C136.145 15.2617 136.34 15.082 136.465 14.8711C136.598 14.6602 136.641 14.4648 136.594 14.2852L137.344 15.5625C137.25 15.8516 137.121 16.1523 136.957 16.4648C136.801 16.7773 136.602 17.0664 136.359 17.332C136.117 17.5977 135.816 17.8164 135.457 17.9883C135.105 18.1523 134.688 18.2344 134.203 18.2344C133.523 18.2344 132.902 18.0781 132.34 17.7656C131.777 17.4531 131.332 17.0156 131.004 16.4531C130.684 15.8906 130.523 15.2227 130.523 14.4492C130.523 13.8086 130.625 13.2305 130.828 12.7148C131.039 12.1914 131.352 11.75 131.766 11.3906C132.18 11.0234 132.703 10.7422 133.336 10.5469C133.969 10.3516 134.711 10.2539 135.562 10.2539H136.863ZM144.434 11.6367H147.75L144.75 18H141.434L144.434 11.6367ZM146.531 5.32031H151.359V18H148.078V8.02734H146.531C146.211 8.02734 145.941 8.10938 145.723 8.27344C145.504 8.4375 145.344 8.64844 145.242 8.90625C145.141 9.15625 145.09 9.41016 145.09 9.66797C145.09 9.92578 145.141 10.1758 145.242 10.418C145.344 10.6602 145.504 10.8594 145.723 11.0156C145.949 11.1719 146.223 11.25 146.543 11.25H149.25V13.6172H146.543C145.809 13.6172 145.148 13.5156 144.562 13.3125C143.977 13.1094 143.477 12.8281 143.062 12.4688C142.648 12.1016 142.332 11.6719 142.113 11.1797C141.895 10.6797 141.785 10.1367 141.785 9.55078C141.785 8.94141 141.895 8.37891 142.113 7.86328C142.332 7.34766 142.648 6.90234 143.062 6.52734C143.477 6.14453 143.973 5.84766 144.551 5.63672C145.137 5.42578 145.797 5.32031 146.531 5.32031ZM163.535 7.81641C163.238 7.81641 162.988 7.89453 162.785 8.05078C162.582 8.20703 162.43 8.42578 162.328 8.70703C162.227 8.98828 162.176 9.32031 162.176 9.70312H159.094C159.094 8.80469 159.289 8.01172 159.68 7.32422C160.07 6.62891 160.598 6.08203 161.262 5.68359C161.934 5.28516 162.691 5.08594 163.535 5.08594C164.363 5.08594 165.09 5.25 165.715 5.57812C166.348 5.90625 166.875 6.36328 167.297 6.94922C167.719 7.53516 168.035 8.21484 168.246 8.98828C168.457 9.76172 168.562 10.5977 168.562 11.4961V11.8242C168.562 12.7227 168.453 13.5625 168.234 14.3438C168.023 15.1172 167.707 15.7969 167.285 16.3828C166.871 16.9609 166.352 17.4141 165.727 17.7422C165.109 18.0703 164.387 18.2344 163.559 18.2344C162.66 18.2344 161.875 18.0352 161.203 17.6367C160.539 17.2305 160.02 16.6562 159.645 15.9141C159.277 15.1719 159.094 14.293 159.094 13.2773H162.176C162.176 13.6836 162.223 14.0586 162.316 14.4023C162.418 14.7383 162.57 15.0078 162.773 15.2109C162.977 15.4062 163.238 15.5039 163.559 15.5039C163.902 15.5039 164.184 15.4023 164.402 15.1992C164.629 14.9961 164.805 14.7227 164.93 14.3789C165.055 14.0352 165.141 13.6445 165.188 13.207C165.242 12.7695 165.27 12.3086 165.27 11.8242V11.4961C165.27 11.0039 165.242 10.5391 165.188 10.1016C165.133 9.66406 165.043 9.27344 164.918 8.92969C164.801 8.57812 164.629 8.30469 164.402 8.10938C164.176 7.91406 163.887 7.81641 163.535 7.81641ZM166.359 10.5703V12.6562H162.891V10.5703H166.359ZM175.969 12.7383H172.781L172.758 10.4531H175.348C175.652 10.4531 175.895 10.4102 176.074 10.3242C176.254 10.2383 176.383 10.1133 176.461 9.94922C176.547 9.77734 176.59 9.5625 176.59 9.30469C176.59 9.07812 176.562 8.88281 176.508 8.71875C176.453 8.55469 176.371 8.42188 176.262 8.32031C176.16 8.21875 176.023 8.14453 175.852 8.09766C175.688 8.05078 175.5 8.02734 175.289 8.02734H173.977V18H170.695V5.32031H175.289C175.992 5.32031 176.625 5.39453 177.188 5.54297C177.75 5.68359 178.234 5.89844 178.641 6.1875C179.047 6.47656 179.355 6.84375 179.566 7.28906C179.777 7.73438 179.883 8.25781 179.883 8.85938C179.883 9.25 179.805 9.61719 179.648 9.96094C179.492 10.2969 179.266 10.5977 178.969 10.8633C178.672 11.1289 178.301 11.3477 177.855 11.5195C177.41 11.6836 176.898 11.7891 176.32 11.8359L175.969 12.7383ZM175.969 18H171.938L173.121 15.293H175.969C176.258 15.293 176.488 15.2461 176.66 15.1523C176.832 15.0586 176.957 14.918 177.035 14.7305C177.113 14.5352 177.152 14.3047 177.152 14.0391C177.152 13.7812 177.117 13.5547 177.047 13.3594C176.984 13.1562 176.867 13.0039 176.695 12.9023C176.531 12.793 176.289 12.7383 175.969 12.7383H173.32L173.344 10.4531H176.273L177.035 11.3789C177.832 11.4336 178.48 11.6016 178.98 11.8828C179.48 12.1641 179.848 12.5234 180.082 12.9609C180.316 13.3906 180.434 13.8633 180.434 14.3789C180.434 14.9805 180.336 15.5078 180.141 15.9609C179.945 16.4141 179.66 16.793 179.285 17.0977C178.918 17.3945 178.453 17.6211 177.891 17.7773C177.328 17.9258 176.688 18 175.969 18ZM182.062 12.0938V11.2383C182.062 10.2461 182.18 9.36719 182.414 8.60156C182.656 7.83594 183 7.19531 183.445 6.67969C183.891 6.15625 184.426 5.76172 185.051 5.49609C185.684 5.22266 186.391 5.08594 187.172 5.08594C187.961 5.08594 188.668 5.22266 189.293 5.49609C189.926 5.76172 190.465 6.15625 190.91 6.67969C191.363 7.19531 191.711 7.83594 191.953 8.60156C192.195 9.36719 192.316 10.2461 192.316 11.2383V12.0938C192.316 13.0781 192.195 13.9531 191.953 14.7188C191.711 15.4844 191.363 16.1289 190.91 16.6523C190.465 17.1758 189.93 17.5703 189.305 17.8359C188.68 18.1016 187.977 18.2344 187.195 18.2344C186.414 18.2344 185.707 18.1016 185.074 17.8359C184.449 17.5703 183.91 17.1758 183.457 16.6523C183.004 16.1289 182.656 15.4844 182.414 14.7188C182.18 13.9531 182.062 13.0781 182.062 12.0938ZM185.344 11.2383V12.0938C185.344 12.6797 185.383 13.1875 185.461 13.6172C185.547 14.0469 185.668 14.4023 185.824 14.6836C185.988 14.9648 186.184 15.1719 186.41 15.3047C186.637 15.4375 186.898 15.5039 187.195 15.5039C187.492 15.5039 187.758 15.4375 187.992 15.3047C188.227 15.1719 188.418 14.9648 188.566 14.6836C188.723 14.4023 188.836 14.0469 188.906 13.6172C188.984 13.1875 189.023 12.6797 189.023 12.0938V11.2383C189.023 10.668 188.98 10.168 188.895 9.73828C188.809 9.30078 188.688 8.94531 188.531 8.67188C188.375 8.39062 188.18 8.17969 187.945 8.03906C187.719 7.89062 187.461 7.81641 187.172 7.81641C186.883 7.81641 186.625 7.89062 186.398 8.03906C186.18 8.17969 185.988 8.39062 185.824 8.67188C185.668 8.94531 185.547 9.30078 185.461 9.73828C185.383 10.168 185.344 10.668 185.344 11.2383ZM201.328 5.32031V8.05078H196.195V5.32031H201.328ZM203.777 5.32031V18H200.496V5.32031H203.777ZM195.387 5.32031H198.621L198.305 11.7539C198.273 12.6602 198.188 13.4609 198.047 14.1562C197.914 14.8516 197.734 15.4453 197.508 15.9375C197.289 16.4219 197.027 16.8164 196.723 17.1211C196.418 17.4258 196.07 17.6484 195.68 17.7891C195.289 17.9297 194.863 18 194.402 18H193.418L193.395 15.2461L193.758 15.1992C193.953 15.1758 194.125 15.1055 194.273 14.9883C194.43 14.8711 194.562 14.6992 194.672 14.4727C194.781 14.2461 194.867 13.957 194.93 13.6055C195 13.2539 195.055 12.8398 195.094 12.3633C195.133 11.8867 195.164 11.3398 195.188 10.7227L195.387 5.32031ZM213.082 10.1719V12.9141H207V10.1719H213.082ZM209.777 5.32031V18H206.484V5.32031H209.777ZM210.832 11.7891V11.543C210.832 10.6211 210.941 9.76953 211.16 8.98828C211.387 8.19922 211.715 7.51562 212.145 6.9375C212.582 6.35156 213.113 5.89844 213.738 5.57812C214.371 5.25 215.102 5.08594 215.93 5.08594C216.766 5.08594 217.5 5.25 218.133 5.57812C218.773 5.89844 219.309 6.35156 219.738 6.9375C220.176 7.51562 220.504 8.19922 220.723 8.98828C220.949 9.76953 221.062 10.6211 221.062 11.543V11.7891C221.062 12.7109 220.949 13.5664 220.723 14.3555C220.504 15.1367 220.176 15.8203 219.738 16.4062C219.309 16.9844 218.777 17.4336 218.145 17.7539C217.512 18.0742 216.781 18.2344 215.953 18.2344C215.125 18.2344 214.391 18.0742 213.75 17.7539C213.117 17.4336 212.582 16.9844 212.145 16.4062C211.715 15.8203 211.387 15.1367 211.16 14.3555C210.941 13.5664 210.832 12.7109 210.832 11.7891ZM214.113 11.543V11.7891C214.113 12.3125 214.145 12.7969 214.207 13.2422C214.27 13.6875 214.367 14.082 214.5 14.4258C214.641 14.7617 214.828 15.0273 215.062 15.2227C215.305 15.4102 215.602 15.5039 215.953 15.5039C216.305 15.5039 216.594 15.4102 216.82 15.2227C217.055 15.0273 217.242 14.7617 217.383 14.4258C217.523 14.082 217.621 13.6875 217.676 13.2422C217.738 12.7969 217.77 12.3125 217.77 11.7891V11.543C217.77 11.043 217.738 10.5703 217.676 10.125C217.621 9.67188 217.523 9.27344 217.383 8.92969C217.25 8.58594 217.062 8.31641 216.82 8.12109C216.586 7.91797 216.289 7.81641 215.93 7.81641C215.586 7.81641 215.297 7.91797 215.062 8.12109C214.828 8.31641 214.641 8.58594 214.5 8.92969C214.367 9.27344 214.27 9.67188 214.207 10.125C214.145 10.5703 214.113 11.043 214.113 11.543ZM223.078 18V5.32031H226.371V15.2695H229.336V5.32031H232.641V18H223.078ZM234.363 15.2812L234.141 21.7617H231.094V18H229.875V15.2812H234.363ZM239.332 12.2812L242.484 5.32031H245.648V18H242.402V11.0625L239.262 18H236.086V5.32031H239.332V12.2812ZM250.324 11.6367H253.641L250.641 18H247.324L250.324 11.6367ZM252.422 5.32031H257.25V18H253.969V8.02734H252.422C252.102 8.02734 251.832 8.10938 251.613 8.27344C251.395 8.4375 251.234 8.64844 251.133 8.90625C251.031 9.15625 250.98 9.41016 250.98 9.66797C250.98 9.92578 251.031 10.1758 251.133 10.418C251.234 10.6602 251.395 10.8594 251.613 11.0156C251.84 11.1719 252.113 11.25 252.434 11.25H255.141V13.6172H252.434C251.699 13.6172 251.039 13.5156 250.453 13.3125C249.867 13.1094 249.367 12.8281 248.953 12.4688C248.539 12.1016 248.223 11.6719 248.004 11.1797C247.785 10.6797 247.676 10.1367 247.676 9.55078C247.676 8.94141 247.785 8.37891 248.004 7.86328C248.223 7.34766 248.539 6.90234 248.953 6.52734C249.367 6.14453 249.863 5.84766 250.441 5.63672C251.027 5.42578 251.688 5.32031 252.422 5.32031Z" fill="#4F4F4F"/>
</svg>
