<svg width="104" height="24" viewBox="0 0 104 24" fill="none" xmlns="http://www.w3.org/2000/svg">
<path d="M4.72314 15.3794L12.0547 0.539062H16.5342V24H11.9741V9.33691L4.70703 24H0.146973V0.539062H4.72314V15.3794ZM33.5176 0.539062V4.45459H25.0742V24H20.3691V0.539062H33.5176ZM44.4585 15.7339H39.6567V11.8184H44.4585C45.1353 11.8184 45.6831 11.668 46.1021 11.3672C46.521 11.0664 46.8271 10.6528 47.0205 10.1265C47.2139 9.58936 47.3105 8.98779 47.3105 8.32178C47.3105 7.64502 47.2139 7.01123 47.0205 6.42041C46.8271 5.82959 46.521 5.35693 46.1021 5.00244C45.6831 4.63721 45.1353 4.45459 44.4585 4.45459H41.1875V24H36.4663V0.539062H44.4585C46.0376 0.539062 47.3911 0.87207 48.519 1.53809C49.6577 2.2041 50.5332 3.12256 51.1455 4.29346C51.7578 5.45361 52.064 6.78564 52.064 8.28955C52.064 9.8042 51.7578 11.1201 51.1455 12.2373C50.5332 13.3438 49.6577 14.2031 48.519 14.8154C47.3911 15.4277 46.0376 15.7339 44.4585 15.7339ZM60.8779 4.72852L55.8345 24H50.8555L58.187 0.539062H61.2969L60.8779 4.72852ZM64.8579 24L59.7822 4.72852L59.3149 0.539062H62.4731L69.8691 24H64.8579ZM65.0352 15.2505V19.166H54.4487V15.2505H65.0352ZM79.521 0.539062V24H74.832V0.539062H79.521ZM85.354 0.539062V4.45459H69.1118V0.539062H85.354ZM91.5093 8.98242H95.9727C97.541 8.98242 98.8999 9.28857 100.049 9.90088C101.199 10.5132 102.085 11.3779 102.708 12.4951C103.342 13.6123 103.659 14.9175 103.659 16.4106C103.659 17.5386 103.476 18.5645 103.111 19.4883C102.756 20.4121 102.241 21.2124 101.564 21.8892C100.898 22.5659 100.092 23.0869 99.147 23.4521C98.2124 23.8174 97.1543 24 95.9727 24H88.335V0.539062H93.0562V20.1006H95.9727C96.6387 20.1006 97.1865 19.9341 97.6162 19.6011C98.0566 19.2573 98.3896 18.8062 98.6152 18.2476C98.8408 17.6782 98.9536 17.0552 98.9536 16.3784C98.9536 15.7231 98.8408 15.1323 98.6152 14.606C98.3896 14.0796 98.0566 13.666 97.6162 13.3652C97.1865 13.0537 96.6387 12.8979 95.9727 12.8979H91.5093V8.98242Z" fill="white"/>
</svg>
