<svg width="48" height="48" viewBox="0 0 48 48" fill="none" xmlns="http://www.w3.org/2000/svg">
<rect width="48" height="48" fill="#828282"/>
<path fill-rule="evenodd" clip-rule="evenodd" d="M31.5983 23.7946C31.5983 24.1616 31.5659 24.507 31.5227 24.8524L33.8004 26.6335C34.0055 26.7954 34.0595 27.0869 33.9299 27.3244L31.771 31.0593C31.6415 31.2968 31.3608 31.3939 31.1125 31.2968L28.4247 30.2173C27.8634 30.6383 27.2589 31.0053 26.6004 31.2752L26.1902 34.1357C26.1578 34.3948 25.9312 34.5891 25.6613 34.5891H21.3435C21.0736 34.5891 20.8469 34.3948 20.8145 34.1357L20.4043 31.2752C19.7459 31.0053 19.1414 30.6491 18.5801 30.2173L15.8922 31.2968C15.6547 31.3831 15.3633 31.2968 15.2338 31.0593L13.0748 27.3244C12.9453 27.0869 12.9993 26.7954 13.2044 26.6335L15.482 24.8524C15.4388 24.507 15.4065 24.1508 15.4065 23.7946C15.4065 23.4383 15.4388 23.0821 15.482 22.7367L13.2044 20.9556C12.9993 20.7937 12.9345 20.5022 13.0748 20.2647L15.2338 16.5298C15.3633 16.2923 15.6439 16.1952 15.8922 16.2923L18.5801 17.3718C19.1414 16.9508 19.7459 16.5838 20.4043 16.3139L20.8145 13.4534C20.8469 13.1943 21.0736 13 21.3435 13H25.6613C25.9312 13 26.1578 13.1943 26.1902 13.4534L26.6004 16.3139C27.2589 16.5838 27.8634 16.94 28.4247 17.3718L31.1125 16.2923C31.35 16.206 31.6415 16.2923 31.771 16.5298L33.9299 20.2647C34.0595 20.5022 34.0055 20.7937 33.8004 20.9556L31.5227 22.7367C31.5659 23.0821 31.5983 23.4275 31.5983 23.7946ZM19.7243 23.7943C19.7243 25.8777 21.419 27.5724 23.5024 27.5724C25.5857 27.5724 27.2805 25.8777 27.2805 23.7943C27.2805 21.711 25.5857 20.0162 23.5024 20.0162C21.419 20.0162 19.7243 21.711 19.7243 23.7943Z" fill="#FCFCFC"/>
</svg>
