<svg width="64" height="38" viewBox="0 0 64 38" fill="none" xmlns="http://www.w3.org/2000/svg">
<path d="M3.54332 9.14062L7.98668 0.146484H10.7015V14.3652H7.93785V5.47852L3.53356 14.3652H0.769886V0.146484H3.54332V9.14062ZM20.9945 0.146484V2.51953H15.8773V14.3652H13.0257V0.146484H20.9945ZM27.6254 9.35547H24.7152V6.98242H27.6254C28.0355 6.98242 28.3675 6.89128 28.6214 6.70898C28.8754 6.52669 29.0609 6.27604 29.1781 5.95703C29.2953 5.63151 29.3539 5.26693 29.3539 4.86328C29.3539 4.45312 29.2953 4.06901 29.1781 3.71094C29.0609 3.35286 28.8754 3.06641 28.6214 2.85156C28.3675 2.63021 28.0355 2.51953 27.6254 2.51953H25.6429V14.3652H22.7816V0.146484H27.6254C28.5824 0.146484 29.4027 0.348307 30.0863 0.751953C30.7764 1.1556 31.307 1.71224 31.6781 2.42188C32.0492 3.125 32.2347 3.93229 32.2347 4.84375C32.2347 5.76172 32.0492 6.55924 31.6781 7.23633C31.307 7.9069 30.7764 8.42773 30.0863 8.79883C29.4027 9.16992 28.5824 9.35547 27.6254 9.35547ZM37.5765 2.68555L34.5199 14.3652H31.5023L35.9457 0.146484H37.8304L37.5765 2.68555ZM39.9886 14.3652L36.9125 2.68555L36.6293 0.146484H38.5433L43.0257 14.3652H39.9886ZM40.0961 9.0625V11.4355H33.68V9.0625H40.0961ZM48.8754 0.146484V14.3652H46.0336V0.146484H48.8754ZM52.4105 0.146484V2.51953H42.5668V0.146484H52.4105ZM56.141 5.26367H58.8461C59.7966 5.26367 60.6201 5.44922 61.3168 5.82031C62.0134 6.19141 62.5505 6.71549 62.9281 7.39258C63.3122 8.06966 63.5043 8.86068 63.5043 9.76562C63.5043 10.4492 63.3936 11.071 63.1722 11.6309C62.9574 12.1908 62.6449 12.6758 62.2347 13.0859C61.8311 13.4961 61.3428 13.8118 60.7699 14.0332C60.2035 14.2546 59.5622 14.3652 58.8461 14.3652H54.2171V0.146484H57.0785V12.002H58.8461C59.2497 12.002 59.5817 11.901 59.8421 11.6992C60.1091 11.4909 60.3109 11.2174 60.4476 10.8789C60.5843 10.5339 60.6527 10.1562 60.6527 9.74609C60.6527 9.34896 60.5843 8.99089 60.4476 8.67188C60.3109 8.35286 60.1091 8.10221 59.8421 7.91992C59.5817 7.73112 59.2497 7.63672 58.8461 7.63672H56.141V5.26367ZM10.35 32.6289H13.1918C13.1527 33.6966 12.9379 34.5983 12.5472 35.334C12.1566 36.0632 11.6 36.6165 10.8773 36.9941C10.1612 37.3717 9.29528 37.5605 8.27965 37.5605C7.49189 37.5605 6.79202 37.4303 6.18004 37.1699C5.56806 36.903 5.04723 36.5124 4.61754 35.998C4.18785 35.4837 3.86233 34.849 3.64098 34.0938C3.42614 33.332 3.31871 32.4564 3.31871 31.4668V29.0547C3.31871 28.0651 3.43265 27.1895 3.66051 26.4277C3.89489 25.666 4.22692 25.028 4.6566 24.5137C5.0928 23.9928 5.61689 23.6022 6.22887 23.3418C6.84736 23.0749 7.54397 22.9414 8.31871 22.9414C9.35387 22.9414 10.2198 23.1367 10.9164 23.5273C11.613 23.918 12.1501 24.4876 12.5277 25.2363C12.9118 25.9785 13.1429 26.8867 13.2211 27.9609H10.3597C10.3467 27.2839 10.2718 26.7533 10.1351 26.3691C10.0049 25.9785 9.79658 25.7051 9.51012 25.5488C9.22366 25.3861 8.82653 25.3047 8.31871 25.3047C7.94111 25.3047 7.61559 25.373 7.34215 25.5098C7.06871 25.64 6.8441 25.8516 6.66832 26.1445C6.49254 26.4375 6.36233 26.8216 6.2777 27.2969C6.19957 27.7721 6.16051 28.3516 6.16051 29.0352V31.4668C6.16051 32.1374 6.19632 32.7103 6.26793 33.1855C6.33955 33.6543 6.45348 34.0384 6.60973 34.3379C6.76598 34.6374 6.97757 34.8555 7.2445 34.9922C7.51793 35.1289 7.86298 35.1973 8.27965 35.1973C8.76142 35.1973 9.14879 35.1257 9.44176 34.9824C9.74124 34.8392 9.96259 34.582 10.1058 34.2109C10.2491 33.8398 10.3304 33.3125 10.35 32.6289ZM22.8597 28.9082V31.2715H17.0297V28.9082H22.8597ZM17.8402 23.1465V37.3652H14.9789V23.1465H17.8402ZM24.93 23.1465V37.3652H22.098V23.1465H24.93ZM37.2543 29.1523V31.5254C37.2543 32.528 37.1306 33.4069 36.8832 34.1621C36.6423 34.9108 36.2972 35.5391 35.848 36.0469C35.4053 36.5482 34.8682 36.9258 34.2367 37.1797C33.6117 37.4336 32.9183 37.5605 32.1566 37.5605C31.3949 37.5605 30.6983 37.4336 30.0668 37.1797C29.4418 36.9258 28.9014 36.5482 28.4457 36.0469C27.9964 35.5391 27.6481 34.9108 27.4007 34.1621C27.1533 33.4069 27.0297 32.528 27.0297 31.5254V29.1523C27.0297 28.1237 27.1501 27.2253 27.391 26.457C27.6319 25.6823 27.9802 25.0378 28.4359 24.5234C28.8916 24.0026 29.432 23.612 30.057 23.3516C30.682 23.0846 31.3754 22.9512 32.1371 22.9512C32.8988 22.9512 33.5922 23.0846 34.2172 23.3516C34.8422 23.612 35.3825 24.0026 35.8382 24.5234C36.294 25.0378 36.6423 25.6823 36.8832 26.457C37.1306 27.2253 37.2543 28.1237 37.2543 29.1523ZM34.4125 31.5254V29.1328C34.4125 28.4557 34.3636 27.8796 34.266 27.4043C34.1683 26.9225 34.0218 26.5286 33.8265 26.2227C33.6312 25.9167 33.3936 25.6921 33.1136 25.5488C32.8337 25.4056 32.5082 25.334 32.1371 25.334C31.766 25.334 31.4372 25.4056 31.1507 25.5488C30.8708 25.6921 30.6332 25.9167 30.4379 26.2227C30.2491 26.5286 30.1058 26.9225 30.0082 27.4043C29.917 27.8796 29.8714 28.4557 29.8714 29.1328V31.5254C29.8714 32.1764 29.9203 32.7331 30.0179 33.1953C30.1156 33.6576 30.2621 34.0352 30.4574 34.3281C30.6527 34.6211 30.8903 34.8392 31.1703 34.9824C31.4567 35.1191 31.7855 35.1875 32.1566 35.1875C32.5212 35.1875 32.8435 35.1191 33.1234 34.9824C33.4099 34.8392 33.6475 34.6211 33.8363 34.3281C34.0251 34.0352 34.1683 33.6576 34.266 33.1953C34.3636 32.7331 34.4125 32.1764 34.4125 31.5254ZM44.139 31.1641H41.2191L41.2093 29.0938H43.6898C44.0804 29.0938 44.3994 29.0286 44.6468 28.8984C44.9007 28.7617 45.0863 28.5632 45.2035 28.3027C45.3272 28.0358 45.389 27.7135 45.389 27.3359C45.389 26.8997 45.3304 26.5514 45.2132 26.291C45.1026 26.0241 44.9235 25.8288 44.6761 25.7051C44.4353 25.5814 44.1162 25.5195 43.7191 25.5195H42.1957V37.3652H39.3343V23.1465H43.7191C44.4222 23.1465 45.0537 23.2246 45.6136 23.3809C46.1735 23.5371 46.6488 23.778 47.0394 24.1035C47.43 24.4225 47.7295 24.8262 47.9379 25.3145C48.1462 25.7962 48.2504 26.3691 48.2504 27.0332C48.2504 27.6191 48.1332 28.1595 47.8988 28.6543C47.6644 29.1491 47.2966 29.556 46.7953 29.875C46.294 30.1875 45.6462 30.36 44.8519 30.3926L44.139 31.1641ZM44.0316 37.3652H40.4086L41.5511 35.002H44.0316C44.4157 35.002 44.7217 34.9206 44.9496 34.7578C45.1774 34.5951 45.3435 34.377 45.4476 34.1035C45.5583 33.8236 45.6136 33.5046 45.6136 33.1465C45.6136 32.7428 45.5648 32.3913 45.4672 32.0918C45.376 31.7923 45.223 31.5645 45.0082 31.4082C44.7933 31.2454 44.5036 31.1641 44.139 31.1641H41.6781L41.6976 29.0938H44.6859L45.3597 29.9141C46.1214 29.888 46.7302 30.0345 47.1859 30.3535C47.6416 30.666 47.9672 31.0762 48.1625 31.584C48.3643 32.0853 48.4652 32.6191 48.4652 33.1855C48.4652 34.097 48.2927 34.8652 47.9476 35.4902C47.6091 36.1087 47.111 36.5775 46.4535 36.8965C45.7959 37.209 44.9886 37.3652 44.0316 37.3652ZM55.7113 25.6855L52.6546 37.3652H49.6371L54.0804 23.1465H55.9652L55.7113 25.6855ZM58.1234 37.3652L55.0472 25.6855L54.764 23.1465H56.6781L61.1605 37.3652H58.1234ZM58.2308 32.0625V34.4355H51.8148V32.0625H58.2308Z" fill="#F2F2F2"/>
</svg>
