<svg width="149" height="22" viewBox="0 0 149 22" fill="none" xmlns="http://www.w3.org/2000/svg">
<path d="M14.16 0.902344V20.8086H10.1678V4.22461H4.24786V20.8086H0.241997V0.902344H14.16ZM31.4275 9.31055V12.6328C31.4275 14.0365 31.2544 15.2669 30.908 16.3242C30.5708 17.3724 30.0877 18.252 29.4588 18.9629C28.839 19.6647 28.087 20.1934 27.2029 20.5488C26.3279 20.9043 25.3572 21.082 24.2908 21.082C23.2244 21.082 22.2492 20.9043 21.365 20.5488C20.49 20.1934 19.7335 19.6647 19.0955 18.9629C18.4666 18.252 17.979 17.3724 17.6326 16.3242C17.2863 15.2669 17.1131 14.0365 17.1131 12.6328V9.31055C17.1131 7.87044 17.2817 6.61263 17.6189 5.53711C17.9562 4.45247 18.4438 3.55013 19.0818 2.83008C19.7199 2.10091 20.4764 1.55404 21.3514 1.18945C22.2264 0.815755 23.1971 0.628906 24.2635 0.628906C25.3299 0.628906 26.3006 0.815755 27.1756 1.18945C28.0506 1.55404 28.8071 2.10091 29.4451 2.83008C30.0831 3.55013 30.5708 4.45247 30.908 5.53711C31.2544 6.61263 31.4275 7.87044 31.4275 9.31055ZM27.449 12.6328V9.2832C27.449 8.33529 27.3807 7.52865 27.2439 6.86328C27.1072 6.1888 26.9022 5.63737 26.6287 5.20898C26.3553 4.7806 26.0226 4.46615 25.6307 4.26562C25.2387 4.0651 24.783 3.96484 24.2635 3.96484C23.7439 3.96484 23.2837 4.0651 22.8826 4.26562C22.4907 4.46615 22.158 4.7806 21.8846 5.20898C21.6203 5.63737 21.4197 6.1888 21.283 6.86328C21.1554 7.52865 21.0916 8.33529 21.0916 9.2832V12.6328C21.0916 13.5443 21.16 14.3236 21.2967 14.9707C21.4334 15.6178 21.6385 16.1465 21.9119 16.5566C22.1854 16.9668 22.518 17.2721 22.91 17.4727C23.311 17.6641 23.7713 17.7598 24.2908 17.7598C24.8012 17.7598 25.2524 17.6641 25.6443 17.4727C26.0454 17.2721 26.3781 16.9668 26.6424 16.5566C26.9067 16.1465 27.1072 15.6178 27.2439 14.9707C27.3807 14.3236 27.449 13.5443 27.449 12.6328ZM41.1209 13.7949H37.0467V10.4727H41.1209C41.6951 10.4727 42.16 10.3451 42.5154 10.0898C42.8709 9.83464 43.1307 9.48372 43.2947 9.03711C43.4588 8.58138 43.5408 8.07096 43.5408 7.50586C43.5408 6.93164 43.4588 6.39388 43.2947 5.89258C43.1307 5.39128 42.8709 4.99023 42.5154 4.68945C42.16 4.37956 41.6951 4.22461 41.1209 4.22461H38.3455V20.8086H34.3397V0.902344H41.1209C42.4607 0.902344 43.6092 1.1849 44.5662 1.75C45.5324 2.3151 46.2752 3.0944 46.7947 4.08789C47.3143 5.07227 47.574 6.20247 47.574 7.47852C47.574 8.76367 47.3143 9.88021 46.7947 10.8281C46.2752 11.7669 45.5324 12.4961 44.5662 13.0156C43.6092 13.5352 42.4607 13.7949 41.1209 13.7949ZM55.0525 4.45703L50.7732 20.8086H46.5486L52.7693 0.902344H55.408L55.0525 4.45703ZM58.4295 20.8086L54.1229 4.45703L53.7264 0.902344H56.4061L62.6814 20.8086H58.4295ZM58.5799 13.3848V16.707H49.5975V13.3848H58.5799ZM69.9686 12.6875L63.6522 0.902344H68.615L71.8689 8.91406H74.9451L74.3709 12.6875H69.9686ZM71.8143 12.0176L68.3963 20.8086H63.4334L68.5877 9.59766L71.8143 12.0176ZM77.4881 0.902344V20.8086H73.5096V0.902344H77.4881ZM87.1814 0.902344L80.9881 12.6875H76.6268L76.0525 8.91406H79.0877L82.2596 0.902344H87.1814ZM82.451 20.8086L79.1424 12.0176L82.3689 9.59766L87.4139 20.8086H82.451ZM100.689 17.5V20.8086H92.035V17.5H100.689ZM93.2791 0.902344V20.8086H89.2732V0.902344H93.2791ZM99.5272 8.96875V12.1816H92.035V8.96875H99.5272ZM100.662 0.902344V4.22461H92.035V0.902344H100.662ZM114.06 8.96875V12.2773H105.898V8.96875H114.06ZM107.033 0.902344V20.8086H103.027V0.902344H107.033ZM116.959 0.902344V20.8086H112.994V0.902344H116.959ZM123.972 13.4941L130.193 0.902344H133.994V20.8086H130.125V8.36719L123.959 20.8086H120.09V0.902344H123.972V13.4941ZM148.623 17.5V20.8086H139.969V17.5H148.623ZM141.213 0.902344V20.8086H137.207V0.902344H141.213ZM147.461 8.96875V12.1816H139.969V8.96875H147.461ZM148.596 0.902344V4.22461H139.969V0.902344H148.596Z" fill="#F2F2F2"/>
</svg>
