<svg width="736" height="291" viewBox="0 0 736 291" fill="none" xmlns="http://www.w3.org/2000/svg">
<g filter="url(#filter0_b_6064_126)">
<path d="M16.7451 20H108V116H16.7451V20Z" fill="white" fill-opacity="0.39"/>
<path d="M20.2451 23.5H104.5V112.5H20.2451V23.5Z" stroke="#6A6F6B" stroke-width="7"/>
<path d="M20.2451 23.5H104.5V112.5H20.2451V23.5Z" stroke="black" stroke-opacity="0.21" stroke-width="7"/>
</g>
<g filter="url(#filter1_b_6064_126)">
<rect x="108" y="20" width="118" height="96" fill="white" fill-opacity="0.39"/>
<rect x="111.5" y="23.5" width="111" height="89" stroke="#6A6F6B" stroke-width="7"/>
<rect x="111.5" y="23.5" width="111" height="89" stroke="black" stroke-opacity="0.21" stroke-width="7"/>
</g>
<g filter="url(#filter2_b_6064_126)">
<rect x="226" y="20" width="97" height="96" fill="white" fill-opacity="0.39"/>
<rect x="229.5" y="23.5" width="90" height="89" stroke="#6A6F6B" stroke-width="7"/>
<rect x="229.5" y="23.5" width="90" height="89" stroke="black" stroke-opacity="0.21" stroke-width="7"/>
</g>
<g filter="url(#filter3_b_6064_126)">
<rect x="323" y="20" width="90" height="96" fill="white" fill-opacity="0.39"/>
<rect x="326.5" y="23.5" width="83" height="89" stroke="#6A6F6B" stroke-width="7"/>
<rect x="326.5" y="23.5" width="83" height="89" stroke="black" stroke-opacity="0.21" stroke-width="7"/>
</g>
<g filter="url(#filter4_b_6064_126)">
<rect x="413" y="20" width="126" height="96" fill="white" fill-opacity="0.39"/>
<rect x="416.5" y="23.5" width="119" height="89" stroke="#6A6F6B" stroke-width="7"/>
<rect x="416.5" y="23.5" width="119" height="89" stroke="black" stroke-opacity="0.21" stroke-width="7"/>
</g>
<g filter="url(#filter5_b_6064_126)">
<rect x="539" y="20" width="93" height="96" fill="white" fill-opacity="0.39"/>
<rect x="542.5" y="23.5" width="86" height="89" stroke="#6A6F6B" stroke-width="7"/>
<rect x="542.5" y="23.5" width="86" height="89" stroke="black" stroke-opacity="0.21" stroke-width="7"/>
</g>
<g filter="url(#filter6_b_6064_126)">
<path d="M628 20H720.295V116H628V20Z" fill="white" fill-opacity="0.39"/>
<path d="M631.5 23.5H716.795V112.5H631.5V23.5Z" stroke="#6A6F6B" stroke-width="7"/>
<path d="M631.5 23.5H716.795V112.5H631.5V23.5Z" stroke="black" stroke-opacity="0.21" stroke-width="7"/>
</g>
<g filter="url(#filter7_b_6064_126)">
<path d="M0 59L21.5 7V116L0 290.5V59Z" fill="white" fill-opacity="0.39"/>
<path d="M2.5 249.765V59.4964L19 19.5895V115.847L2.5 249.765Z" stroke="#6A6F6B" stroke-width="5"/>
<path d="M2.5 249.765V59.4964L19 19.5895V115.847L2.5 249.765Z" stroke="black" stroke-opacity="0.21" stroke-width="5"/>
</g>
<g filter="url(#filter8_b_6064_126)">
<path d="M21.5 21.5L7.62939e-06 73.5V-35.5L21.5 -210V21.5Z" fill="white" fill-opacity="0.39"/>
<path d="M18.5 -161.118V20.9043L3.00001 58.3926V-35.3159L18.5 -161.118Z" stroke="#6A6F6B" stroke-width="6"/>
<path d="M18.5 -161.118V20.9043L3.00001 58.3926V-35.3159L18.5 -161.118Z" stroke="black" stroke-opacity="0.21" stroke-width="6"/>
</g>
<g filter="url(#filter9_b_6064_126)">
<path d="M737.5 57L716 5V114L737.5 288.5V57Z" fill="white" fill-opacity="0.39"/>
<path d="M735 247.765V57.4964L718.5 17.5895V113.847L735 247.765Z" stroke="#6A6F6B" stroke-width="5"/>
<path d="M735 247.765V57.4964L718.5 17.5895V113.847L735 247.765Z" stroke="black" stroke-opacity="0.21" stroke-width="5"/>
</g>
<g filter="url(#filter10_b_6064_126)">
<path d="M716 19.5L737.5 71.5V-37.5L716 -212V19.5Z" fill="white" fill-opacity="0.39"/>
<path d="M719 -163.118V18.9043L734.5 56.3926V-37.3159L719 -163.118Z" stroke="#6A6F6B" stroke-width="6"/>
<path d="M719 -163.118V18.9043L734.5 56.3926V-37.3159L719 -163.118Z" stroke="black" stroke-opacity="0.21" stroke-width="6"/>
</g>
<g filter="url(#filter11_b_6064_126)">
<rect x="16" y="-71" width="92" height="96" fill="white" fill-opacity="0.39"/>
<rect x="19.5" y="-67.5" width="85" height="89" stroke="#6A6F6B" stroke-width="7"/>
<rect x="19.5" y="-67.5" width="85" height="89" stroke="black" stroke-opacity="0.21" stroke-width="7"/>
</g>
<g filter="url(#filter12_b_6064_126)">
<rect x="108" y="-71" width="118" height="96" fill="white" fill-opacity="0.39"/>
<rect x="111.5" y="-67.5" width="111" height="89" stroke="#6A6F6B" stroke-width="7"/>
<rect x="111.5" y="-67.5" width="111" height="89" stroke="black" stroke-opacity="0.21" stroke-width="7"/>
</g>
<g filter="url(#filter13_b_6064_126)">
<rect x="226" y="-71" width="97" height="96" fill="white" fill-opacity="0.39"/>
<rect x="229.5" y="-67.5" width="90" height="89" stroke="#6A6F6B" stroke-width="7"/>
<rect x="229.5" y="-67.5" width="90" height="89" stroke="black" stroke-opacity="0.21" stroke-width="7"/>
</g>
<g filter="url(#filter14_b_6064_126)">
<rect x="323" y="-71" width="90" height="96" fill="white" fill-opacity="0.39"/>
<rect x="326.5" y="-67.5" width="83" height="89" stroke="#6A6F6B" stroke-width="7"/>
<rect x="326.5" y="-67.5" width="83" height="89" stroke="black" stroke-opacity="0.21" stroke-width="7"/>
</g>
<g filter="url(#filter15_b_6064_126)">
<rect x="413" y="-71" width="126" height="96" fill="white" fill-opacity="0.39"/>
<rect x="416.5" y="-67.5" width="119" height="89" stroke="#6A6F6B" stroke-width="7"/>
<rect x="416.5" y="-67.5" width="119" height="89" stroke="black" stroke-opacity="0.21" stroke-width="7"/>
</g>
<g filter="url(#filter16_b_6064_126)">
<rect x="539" y="-71" width="93" height="96" fill="white" fill-opacity="0.39"/>
<rect x="542.5" y="-67.5" width="86" height="89" stroke="#6A6F6B" stroke-width="7"/>
<rect x="542.5" y="-67.5" width="86" height="89" stroke="black" stroke-opacity="0.21" stroke-width="7"/>
</g>
<g filter="url(#filter17_b_6064_126)">
<rect x="628" y="-71" width="93" height="96" fill="white" fill-opacity="0.39"/>
<rect x="631.5" y="-67.5" width="86" height="89" stroke="#6A6F6B" stroke-width="7"/>
<rect x="631.5" y="-67.5" width="86" height="89" stroke="black" stroke-opacity="0.21" stroke-width="7"/>
</g>
<defs>
<filter id="filter0_b_6064_126" x="12.7451" y="16" width="99.2549" height="104" filterUnits="userSpaceOnUse" color-interpolation-filters="sRGB">
<feFlood flood-opacity="0" result="BackgroundImageFix"/>
<feGaussianBlur in="BackgroundImageFix" stdDeviation="2"/>
<feComposite in2="SourceAlpha" operator="in" result="effect1_backgroundBlur_6064_126"/>
<feBlend mode="normal" in="SourceGraphic" in2="effect1_backgroundBlur_6064_126" result="shape"/>
</filter>
<filter id="filter1_b_6064_126" x="104" y="16" width="126" height="104" filterUnits="userSpaceOnUse" color-interpolation-filters="sRGB">
<feFlood flood-opacity="0" result="BackgroundImageFix"/>
<feGaussianBlur in="BackgroundImageFix" stdDeviation="2"/>
<feComposite in2="SourceAlpha" operator="in" result="effect1_backgroundBlur_6064_126"/>
<feBlend mode="normal" in="SourceGraphic" in2="effect1_backgroundBlur_6064_126" result="shape"/>
</filter>
<filter id="filter2_b_6064_126" x="222" y="16" width="105" height="104" filterUnits="userSpaceOnUse" color-interpolation-filters="sRGB">
<feFlood flood-opacity="0" result="BackgroundImageFix"/>
<feGaussianBlur in="BackgroundImageFix" stdDeviation="2"/>
<feComposite in2="SourceAlpha" operator="in" result="effect1_backgroundBlur_6064_126"/>
<feBlend mode="normal" in="SourceGraphic" in2="effect1_backgroundBlur_6064_126" result="shape"/>
</filter>
<filter id="filter3_b_6064_126" x="319" y="16" width="98" height="104" filterUnits="userSpaceOnUse" color-interpolation-filters="sRGB">
<feFlood flood-opacity="0" result="BackgroundImageFix"/>
<feGaussianBlur in="BackgroundImageFix" stdDeviation="2"/>
<feComposite in2="SourceAlpha" operator="in" result="effect1_backgroundBlur_6064_126"/>
<feBlend mode="normal" in="SourceGraphic" in2="effect1_backgroundBlur_6064_126" result="shape"/>
</filter>
<filter id="filter4_b_6064_126" x="409" y="16" width="134" height="104" filterUnits="userSpaceOnUse" color-interpolation-filters="sRGB">
<feFlood flood-opacity="0" result="BackgroundImageFix"/>
<feGaussianBlur in="BackgroundImageFix" stdDeviation="2"/>
<feComposite in2="SourceAlpha" operator="in" result="effect1_backgroundBlur_6064_126"/>
<feBlend mode="normal" in="SourceGraphic" in2="effect1_backgroundBlur_6064_126" result="shape"/>
</filter>
<filter id="filter5_b_6064_126" x="535" y="16" width="101" height="104" filterUnits="userSpaceOnUse" color-interpolation-filters="sRGB">
<feFlood flood-opacity="0" result="BackgroundImageFix"/>
<feGaussianBlur in="BackgroundImageFix" stdDeviation="2"/>
<feComposite in2="SourceAlpha" operator="in" result="effect1_backgroundBlur_6064_126"/>
<feBlend mode="normal" in="SourceGraphic" in2="effect1_backgroundBlur_6064_126" result="shape"/>
</filter>
<filter id="filter6_b_6064_126" x="624" y="16" width="100.295" height="104" filterUnits="userSpaceOnUse" color-interpolation-filters="sRGB">
<feFlood flood-opacity="0" result="BackgroundImageFix"/>
<feGaussianBlur in="BackgroundImageFix" stdDeviation="2"/>
<feComposite in2="SourceAlpha" operator="in" result="effect1_backgroundBlur_6064_126"/>
<feBlend mode="normal" in="SourceGraphic" in2="effect1_backgroundBlur_6064_126" result="shape"/>
</filter>
<filter id="filter7_b_6064_126" x="-4" y="3" width="29.5" height="291.5" filterUnits="userSpaceOnUse" color-interpolation-filters="sRGB">
<feFlood flood-opacity="0" result="BackgroundImageFix"/>
<feGaussianBlur in="BackgroundImageFix" stdDeviation="2"/>
<feComposite in2="SourceAlpha" operator="in" result="effect1_backgroundBlur_6064_126"/>
<feBlend mode="normal" in="SourceGraphic" in2="effect1_backgroundBlur_6064_126" result="shape"/>
</filter>
<filter id="filter8_b_6064_126" x="-4" y="-214" width="29.5" height="291.5" filterUnits="userSpaceOnUse" color-interpolation-filters="sRGB">
<feFlood flood-opacity="0" result="BackgroundImageFix"/>
<feGaussianBlur in="BackgroundImageFix" stdDeviation="2"/>
<feComposite in2="SourceAlpha" operator="in" result="effect1_backgroundBlur_6064_126"/>
<feBlend mode="normal" in="SourceGraphic" in2="effect1_backgroundBlur_6064_126" result="shape"/>
</filter>
<filter id="filter9_b_6064_126" x="712" y="1" width="29.5" height="291.5" filterUnits="userSpaceOnUse" color-interpolation-filters="sRGB">
<feFlood flood-opacity="0" result="BackgroundImageFix"/>
<feGaussianBlur in="BackgroundImageFix" stdDeviation="2"/>
<feComposite in2="SourceAlpha" operator="in" result="effect1_backgroundBlur_6064_126"/>
<feBlend mode="normal" in="SourceGraphic" in2="effect1_backgroundBlur_6064_126" result="shape"/>
</filter>
<filter id="filter10_b_6064_126" x="712" y="-216" width="29.5" height="291.5" filterUnits="userSpaceOnUse" color-interpolation-filters="sRGB">
<feFlood flood-opacity="0" result="BackgroundImageFix"/>
<feGaussianBlur in="BackgroundImageFix" stdDeviation="2"/>
<feComposite in2="SourceAlpha" operator="in" result="effect1_backgroundBlur_6064_126"/>
<feBlend mode="normal" in="SourceGraphic" in2="effect1_backgroundBlur_6064_126" result="shape"/>
</filter>
<filter id="filter11_b_6064_126" x="12" y="-75" width="100" height="104" filterUnits="userSpaceOnUse" color-interpolation-filters="sRGB">
<feFlood flood-opacity="0" result="BackgroundImageFix"/>
<feGaussianBlur in="BackgroundImageFix" stdDeviation="2"/>
<feComposite in2="SourceAlpha" operator="in" result="effect1_backgroundBlur_6064_126"/>
<feBlend mode="normal" in="SourceGraphic" in2="effect1_backgroundBlur_6064_126" result="shape"/>
</filter>
<filter id="filter12_b_6064_126" x="104" y="-75" width="126" height="104" filterUnits="userSpaceOnUse" color-interpolation-filters="sRGB">
<feFlood flood-opacity="0" result="BackgroundImageFix"/>
<feGaussianBlur in="BackgroundImageFix" stdDeviation="2"/>
<feComposite in2="SourceAlpha" operator="in" result="effect1_backgroundBlur_6064_126"/>
<feBlend mode="normal" in="SourceGraphic" in2="effect1_backgroundBlur_6064_126" result="shape"/>
</filter>
<filter id="filter13_b_6064_126" x="222" y="-75" width="105" height="104" filterUnits="userSpaceOnUse" color-interpolation-filters="sRGB">
<feFlood flood-opacity="0" result="BackgroundImageFix"/>
<feGaussianBlur in="BackgroundImageFix" stdDeviation="2"/>
<feComposite in2="SourceAlpha" operator="in" result="effect1_backgroundBlur_6064_126"/>
<feBlend mode="normal" in="SourceGraphic" in2="effect1_backgroundBlur_6064_126" result="shape"/>
</filter>
<filter id="filter14_b_6064_126" x="319" y="-75" width="98" height="104" filterUnits="userSpaceOnUse" color-interpolation-filters="sRGB">
<feFlood flood-opacity="0" result="BackgroundImageFix"/>
<feGaussianBlur in="BackgroundImageFix" stdDeviation="2"/>
<feComposite in2="SourceAlpha" operator="in" result="effect1_backgroundBlur_6064_126"/>
<feBlend mode="normal" in="SourceGraphic" in2="effect1_backgroundBlur_6064_126" result="shape"/>
</filter>
<filter id="filter15_b_6064_126" x="409" y="-75" width="134" height="104" filterUnits="userSpaceOnUse" color-interpolation-filters="sRGB">
<feFlood flood-opacity="0" result="BackgroundImageFix"/>
<feGaussianBlur in="BackgroundImageFix" stdDeviation="2"/>
<feComposite in2="SourceAlpha" operator="in" result="effect1_backgroundBlur_6064_126"/>
<feBlend mode="normal" in="SourceGraphic" in2="effect1_backgroundBlur_6064_126" result="shape"/>
</filter>
<filter id="filter16_b_6064_126" x="535" y="-75" width="101" height="104" filterUnits="userSpaceOnUse" color-interpolation-filters="sRGB">
<feFlood flood-opacity="0" result="BackgroundImageFix"/>
<feGaussianBlur in="BackgroundImageFix" stdDeviation="2"/>
<feComposite in2="SourceAlpha" operator="in" result="effect1_backgroundBlur_6064_126"/>
<feBlend mode="normal" in="SourceGraphic" in2="effect1_backgroundBlur_6064_126" result="shape"/>
</filter>
<filter id="filter17_b_6064_126" x="624" y="-75" width="101" height="104" filterUnits="userSpaceOnUse" color-interpolation-filters="sRGB">
<feFlood flood-opacity="0" result="BackgroundImageFix"/>
<feGaussianBlur in="BackgroundImageFix" stdDeviation="2"/>
<feComposite in2="SourceAlpha" operator="in" result="effect1_backgroundBlur_6064_126"/>
<feBlend mode="normal" in="SourceGraphic" in2="effect1_backgroundBlur_6064_126" result="shape"/>
</filter>
</defs>
</svg>
