<svg width="736" height="262" viewBox="0 0 736 262" fill="none" xmlns="http://www.w3.org/2000/svg">
<path d="M36.0588 19.6776L53.6128 62.7113H18.5049L36.0588 19.6776Z" fill="#549665"/>
<path d="M36.0588 41.4209L57.8566 94.4204H14.261L36.0588 41.4209Z" fill="#549665"/>
<path d="M79.6544 25.4612L93.6259 67.4704H65.6829L79.6544 25.4612Z" fill="#549665"/>
<path d="M79.6544 46.6869L97.0037 98.4245H62.3051L79.6544 46.6869Z" fill="#549665"/>
<path d="M135.483 11.2245L149.719 53.2336H121.248L135.483 11.2245Z" fill="#549665"/>
<path d="M135.483 32.4502L163.732 84.1878H107.235L135.483 32.4502Z" fill="#549665"/>
<path d="M183.305 26.7959L199.32 65.7312H167.068L183.305 26.7959Z" fill="#549665"/>
<path d="M183.083 46.4685L208.217 94.4204H157.949L183.083 46.4685Z" fill="#549665"/>
<path d="M290.292 9L307.309 52.2899H273.276L290.292 9Z" fill="#549665"/>
<path d="M290.292 30.8728L311.423 84.1878H269.162L290.292 30.8728Z" fill="#549665"/>
<path d="M238.689 16.1184L255.706 63.2506H221.673L238.689 16.1184Z" fill="#549665"/>
<path d="M238.689 39.9325L259.82 97.9796H217.559L238.689 39.9325Z" fill="#549665"/>
<path d="M207.995 31.2449L218.204 49.9441H197.785L207.995 31.2449Z" fill="#549665"/>
<path d="M207.995 40.6929L220.673 63.7224H195.316L207.995 40.6929Z" fill="#549665"/>
<path d="M101.23 35.6939L111.44 54.3931H91.0198L101.23 35.6939Z" fill="#549665"/>
<path d="M101.23 45.1419L113.908 68.1714H88.5515L101.23 45.1419Z" fill="#549665"/>
<path d="M18.0423 19.6776L28.2522 38.3767H7.83232L18.0423 19.6776Z" fill="#549665"/>
<path d="M18.0423 29.1256L30.7206 52.1551H5.36397L18.0423 29.1256Z" fill="#549665"/>
<path d="M266.715 43.2571L276.925 61.9563H256.505L266.715 43.2571Z" fill="#549665"/>
<path d="M266.715 52.7052L279.393 75.7347H254.037L266.715 52.7052Z" fill="#549665"/>
<path d="M238.689 16.1184L255.706 63.2506H221.673L238.689 16.1184Z" fill="#549665"/>
<path d="M238.689 39.9325L259.82 97.9796H217.559L238.689 39.9325Z" fill="#549665"/>
<path d="M-6.86948 11.2245L10.1471 58.3567H-23.8861L-6.86948 11.2245Z" fill="#549665"/>
<path d="M-6.86948 35.0387L14.261 93.0857H-28L-6.86948 35.0387Z" fill="#549665"/>
<path d="M85.8824 67.0592C85.8824 80.2047 75.3265 90.8612 62.3051 90.8612C49.2838 90.8612 38.7279 80.2047 38.7279 67.0592C38.7279 53.9137 49.2838 43.2571 62.3051 43.2571C75.3265 43.2571 85.8824 53.9137 85.8824 67.0592Z" fill="#549665"/>
<path d="M37.8382 74.1776C37.8382 87.3231 27.2824 97.9796 14.261 97.9796C1.2397 97.9796 -9.31618 87.3231 -9.31618 74.1776C-9.31618 61.032 1.2397 50.3755 14.261 50.3755C27.2824 50.3755 37.8382 61.032 37.8382 74.1776Z" fill="#549665"/>
<path d="M137.485 94.198C137.485 107.343 126.929 118 113.908 118C100.887 118 90.3309 107.343 90.3309 94.198C90.3309 81.0525 100.887 70.3959 113.908 70.3959C126.929 70.3959 137.485 81.0525 137.485 94.198Z" fill="#549665"/>
<path d="M113.908 83.5204C113.908 96.6659 103.352 107.322 90.3309 107.322C77.3096 107.322 66.7537 96.6659 66.7537 83.5204C66.7537 70.3749 77.3096 59.7184 90.3309 59.7184C103.352 59.7184 113.908 70.3749 113.908 83.5204Z" fill="#549665"/>
<path d="M177.967 94.198C177.967 107.343 167.411 118 154.39 118C141.368 118 130.812 107.343 130.812 94.198C130.812 81.0525 141.368 70.3959 154.39 70.3959C167.411 70.3959 177.967 81.0525 177.967 94.198Z" fill="#549665"/>
<path d="M230.46 85.7449C230.46 98.8904 219.904 109.547 206.882 109.547C193.861 109.547 183.305 98.8904 183.305 85.7449C183.305 72.5994 193.861 61.9429 206.882 61.9429C219.904 61.9429 230.46 72.5994 230.46 85.7449Z" fill="#549665"/>
<path d="M279.393 92.8633C279.393 106.009 268.838 116.665 255.816 116.665C242.795 116.665 232.239 106.009 232.239 92.8633C232.239 79.7178 242.795 69.0612 255.816 69.0612C268.838 69.0612 279.393 79.7178 279.393 92.8633Z" fill="#549665"/>
<path d="M335 81.2959C335 94.4414 324.444 105.098 311.423 105.098C298.401 105.098 287.846 94.4414 287.846 81.2959C287.846 68.1504 298.401 57.4939 311.423 57.4939C324.444 57.4939 335 68.1504 335 81.2959Z" fill="#549665"/>
<path d="M311.423 94.198C311.423 107.343 300.867 118 287.846 118C274.824 118 264.268 107.343 264.268 94.198C264.268 81.0525 274.824 70.3959 287.846 70.3959C300.867 70.3959 311.423 81.0525 311.423 94.198Z" fill="#549665"/>
<path d="M684.353 28.6776L666.364 71.7113H702.342L684.353 28.6776Z" fill="#549665"/>
<path d="M684.353 50.4209L662.015 103.42H706.691L684.353 50.4209Z" fill="#549665"/>
<path d="M639.676 34.4612L625.359 76.4704H653.994L639.676 34.4612Z" fill="#549665"/>
<path d="M639.676 55.6869L621.897 107.424H657.456L639.676 55.6869Z" fill="#549665"/>
<path d="M582.463 20.2245L567.875 62.2336H597.051L582.463 20.2245Z" fill="#549665"/>
<path d="M582.463 41.4502L553.515 93.1878H611.412L582.463 41.4502Z" fill="#549665"/>
<path d="M533.456 35.7959L517.044 74.7312H550.096L533.456 35.7959Z" fill="#549665"/>
<path d="M533.684 55.4685L507.926 103.42H559.441L533.684 55.4685Z" fill="#549665"/>
<path d="M423.816 18L406.378 61.2899H441.255L423.816 18Z" fill="#549665"/>
<path d="M423.816 39.8728L402.162 93.1878H445.471L423.816 39.8728Z" fill="#549665"/>
<path d="M476.699 25.1184L459.26 72.2506H494.137L476.699 25.1184Z" fill="#549665"/>
<path d="M476.699 48.9325L455.044 106.98H498.353L476.699 48.9325Z" fill="#549665"/>
<path d="M508.154 40.2449L497.691 58.9441H518.617L508.154 40.2449Z" fill="#549665"/>
<path d="M508.154 49.6929L495.162 72.7224H521.147L508.154 49.6929Z" fill="#549665"/>
<path d="M617.566 44.6939L607.103 63.3931H628.029L617.566 44.6939Z" fill="#549665"/>
<path d="M617.566 54.1419L604.574 77.1714H630.559L617.566 54.1419Z" fill="#549665"/>
<path d="M702.816 28.6776L692.353 47.3767H713.279L702.816 28.6776Z" fill="#549665"/>
<path d="M702.816 38.1256L689.824 61.1551H715.809L702.816 38.1256Z" fill="#549665"/>
<path d="M447.978 52.2571L437.515 70.9563H458.441L447.978 52.2571Z" fill="#549665"/>
<path d="M447.978 61.7052L434.985 84.7347H460.971L447.978 61.7052Z" fill="#549665"/>
<path d="M476.699 25.1184L459.26 72.2506H494.137L476.699 25.1184Z" fill="#549665"/>
<path d="M476.699 48.9325L455.044 106.98H498.353L476.699 48.9325Z" fill="#549665"/>
<path d="M728.346 20.2245L710.907 67.3567H745.784L728.346 20.2245Z" fill="#549665"/>
<path d="M728.346 44.0387L706.691 102.086H750L728.346 44.0387Z" fill="#549665"/>
<path d="M633.294 76.0592C633.294 89.2047 644.112 99.8612 657.456 99.8612C670.8 99.8612 681.618 89.2047 681.618 76.0592C681.618 62.9137 670.8 52.2571 657.456 52.2571C644.112 52.2571 633.294 62.9137 633.294 76.0592Z" fill="#549665"/>
<path d="M682.529 83.1776C682.529 96.3231 693.347 106.98 706.691 106.98C720.035 106.98 730.853 96.3231 730.853 83.1776C730.853 70.032 720.035 59.3755 706.691 59.3755C693.347 59.3755 682.529 70.032 682.529 83.1776Z" fill="#549665"/>
<path d="M580.412 103.198C580.412 116.343 591.229 127 604.574 127C617.918 127 628.735 116.343 628.735 103.198C628.735 90.0525 617.918 79.3959 604.574 79.3959C591.229 79.3959 580.412 90.0525 580.412 103.198Z" fill="#549665"/>
<path d="M604.574 92.5204C604.574 105.666 615.391 116.322 628.735 116.322C642.079 116.322 652.897 105.666 652.897 92.5204C652.897 79.3749 642.079 68.7184 628.735 68.7184C615.391 68.7184 604.574 79.3749 604.574 92.5204Z" fill="#549665"/>
<path d="M538.926 103.198C538.926 116.343 549.744 127 563.088 127C576.432 127 587.25 116.343 587.25 103.198C587.25 90.0525 576.432 79.3959 563.088 79.3959C549.744 79.3959 538.926 90.0525 538.926 103.198Z" fill="#549665"/>
<path d="M485.132 94.7449C485.132 107.89 495.95 118.547 509.294 118.547C522.638 118.547 533.456 107.89 533.456 94.7449C533.456 81.5994 522.638 70.9429 509.294 70.9429C495.95 70.9429 485.132 81.5994 485.132 94.7449Z" fill="#549665"/>
<path d="M434.985 101.863C434.985 115.009 445.803 125.665 459.147 125.665C472.491 125.665 483.309 115.009 483.309 101.863C483.309 88.7178 472.491 78.0612 459.147 78.0612C445.803 78.0612 434.985 88.7178 434.985 101.863Z" fill="#549665"/>
<path d="M378 90.2959C378 103.441 388.818 114.098 402.162 114.098C415.506 114.098 426.324 103.441 426.324 90.2959C426.324 77.1504 415.506 66.4939 402.162 66.4939C388.818 66.4939 378 77.1504 378 90.2959Z" fill="#549665"/>
<path d="M402.162 103.198C402.162 116.343 412.979 127 426.324 127C439.668 127 450.485 116.343 450.485 103.198C450.485 90.0525 439.668 79.3959 426.324 79.3959C412.979 79.3959 402.162 90.0525 402.162 103.198Z" fill="#549665"/>
<path d="M240.059 28.6776L257.613 71.7113H222.505L240.059 28.6776Z" fill="#549665"/>
<path d="M240.059 50.4209L261.857 103.42H218.261L240.059 50.4209Z" fill="#549665"/>
<path d="M283.654 34.4612L297.626 76.4704H269.683L283.654 34.4612Z" fill="#549665"/>
<path d="M283.654 55.6869L301.004 107.424H266.305L283.654 55.6869Z" fill="#549665"/>
<path d="M339.483 20.2245L353.719 62.2336H325.248L339.483 20.2245Z" fill="#549665"/>
<path d="M339.483 41.4502L367.732 93.1878H311.235L339.483 41.4502Z" fill="#549665"/>
<path d="M387.305 35.7959L403.32 74.7312H371.068L387.305 35.7959Z" fill="#549665"/>
<path d="M387.083 55.4685L412.217 103.42H361.949L387.083 55.4685Z" fill="#549665"/>
<path d="M494.292 18L511.309 61.2899H477.276L494.292 18Z" fill="#549665"/>
<path d="M494.292 39.8728L515.423 93.1878H473.162L494.292 39.8728Z" fill="#549665"/>
<path d="M442.689 25.1184L459.706 72.2506H425.673L442.689 25.1184Z" fill="#549665"/>
<path d="M442.689 48.9325L463.82 106.98H421.559L442.689 48.9325Z" fill="#549665"/>
<path d="M411.995 40.2449L422.204 58.9441H401.785L411.995 40.2449Z" fill="#549665"/>
<path d="M411.995 49.6929L424.673 72.7224H399.316L411.995 49.6929Z" fill="#549665"/>
<path d="M305.23 44.6939L315.44 63.3931H295.02L305.23 44.6939Z" fill="#549665"/>
<path d="M305.23 54.1419L317.908 77.1714H292.551L305.23 54.1419Z" fill="#549665"/>
<path d="M222.042 28.6776L232.252 47.3767H211.832L222.042 28.6776Z" fill="#549665"/>
<path d="M222.042 38.1256L234.721 61.1551H209.364L222.042 38.1256Z" fill="#549665"/>
<path d="M470.715 52.2571L480.925 70.9563H460.505L470.715 52.2571Z" fill="#549665"/>
<path d="M470.715 61.7052L483.393 84.7347H458.037L470.715 61.7052Z" fill="#549665"/>
<path d="M442.689 25.1184L459.706 72.2506H425.673L442.689 25.1184Z" fill="#549665"/>
<path d="M442.689 48.9325L463.82 106.98H421.559L442.689 48.9325Z" fill="#549665"/>
<path d="M197.13 20.2245L214.147 67.3567H180.114L197.13 20.2245Z" fill="#549665"/>
<path d="M197.13 44.0387L218.261 102.086H176L197.13 44.0387Z" fill="#549665"/>
<path d="M289.882 76.0592C289.882 89.2047 279.326 99.8612 266.305 99.8612C253.284 99.8612 242.728 89.2047 242.728 76.0592C242.728 62.9137 253.284 52.2571 266.305 52.2571C279.326 52.2571 289.882 62.9137 289.882 76.0592Z" fill="#549665"/>
<path d="M241.838 83.1776C241.838 96.3231 231.282 106.98 218.261 106.98C205.24 106.98 194.684 96.3231 194.684 83.1776C194.684 70.032 205.24 59.3755 218.261 59.3755C231.282 59.3755 241.838 70.032 241.838 83.1776Z" fill="#549665"/>
<path d="M341.485 103.198C341.485 116.343 330.929 127 317.908 127C304.887 127 294.331 116.343 294.331 103.198C294.331 90.0525 304.887 79.3959 317.908 79.3959C330.929 79.3959 341.485 90.0525 341.485 103.198Z" fill="#549665"/>
<path d="M317.908 92.5204C317.908 105.666 307.352 116.322 294.331 116.322C281.31 116.322 270.754 105.666 270.754 92.5204C270.754 79.3749 281.31 68.7184 294.331 68.7184C307.352 68.7184 317.908 79.3749 317.908 92.5204Z" fill="#549665"/>
<path d="M381.967 103.198C381.967 116.343 371.411 127 358.39 127C345.368 127 334.812 116.343 334.812 103.198C334.812 90.0525 345.368 79.3959 358.39 79.3959C371.411 79.3959 381.967 90.0525 381.967 103.198Z" fill="#549665"/>
<path d="M434.46 94.7449C434.46 107.89 423.904 118.547 410.882 118.547C397.861 118.547 387.305 107.89 387.305 94.7449C387.305 81.5994 397.861 70.9429 410.882 70.9429C423.904 70.9429 434.46 81.5994 434.46 94.7449Z" fill="#549665"/>
<path d="M483.393 101.863C483.393 115.009 472.837 125.665 459.816 125.665C446.795 125.665 436.239 115.009 436.239 101.863C436.239 88.7178 446.795 78.0612 459.816 78.0612C472.837 78.0612 483.393 88.7178 483.393 101.863Z" fill="#549665"/>
<path d="M539 90.2959C539 103.441 528.444 114.098 515.423 114.098C502.401 114.098 491.846 103.441 491.846 90.2959C491.846 77.1504 502.401 66.4939 515.423 66.4939C528.444 66.4939 539 77.1504 539 90.2959Z" fill="#549665"/>
<path d="M515.423 103.198C515.423 116.343 504.867 127 491.846 127C478.824 127 468.268 116.343 468.268 103.198C468.268 90.0525 478.824 79.3959 491.846 79.3959C504.867 79.3959 515.423 90.0525 515.423 103.198Z" fill="#549665"/>
<path d="M350.529 14.6939L325.19 73.9147H375.869L350.529 14.6939Z" fill="#4CA262"/>
<path d="M350.529 44.616L319.064 117.551H381.995L350.529 44.616Z" fill="#4CA262"/>
<path d="M287.598 22.6531L267.43 80.4638H307.766L287.598 22.6531Z" fill="#4CA262"/>
<path d="M287.598 51.8627L262.554 123.061H312.642L287.598 51.8627Z" fill="#4CA262"/>
<path d="M207.007 3.06122L186.458 60.872H227.556L207.007 3.06122Z" fill="#4CA262"/>
<path d="M207.007 32.2709L166.23 103.469H247.784L207.007 32.2709Z" fill="#4CA262"/>
<path d="M137.976 24.4898L114.858 78.0705H161.414L137.976 24.4898Z" fill="#4CA262"/>
<path d="M138.297 51.5621L102.015 117.551H174.579L138.297 51.5621Z" fill="#4CA262"/>
<path d="M58.0271 9.79592L33.4632 74.6568H82.591L58.0271 9.79592Z" fill="#4CA262"/>
<path d="M58.0271 42.5677L27.5246 122.449H88.5295L58.0271 42.5677Z" fill="#4CA262"/>
<path d="M102.336 30.6122L87.5975 56.3451H117.074L102.336 30.6122Z" fill="#4CA262"/>
<path d="M102.336 43.6141L84.0344 75.3061H120.637L102.336 43.6141Z" fill="#4CA262"/>
<path d="M256.454 36.7347L241.715 62.4675H271.192L256.454 36.7347Z" fill="#4CA262"/>
<path d="M256.454 49.7365L238.152 81.4286H274.755L256.454 49.7365Z" fill="#4CA262"/>
<path d="M376.537 14.6939L361.799 40.4267H391.275L376.537 14.6939Z" fill="#4CA262"/>
<path d="M376.537 27.6957L358.235 59.3878H394.838L376.537 27.6957Z" fill="#4CA262"/>
<path d="M17.5712 47.1429L2.83281 72.8757H32.3095L17.5712 47.1429Z" fill="#4CA262"/>
<path d="M17.5712 60.1447L-0.730286 91.8367H35.8727L17.5712 60.1447Z" fill="#4CA262"/>
<path d="M58.0271 9.79592L33.4632 74.6568H82.591L58.0271 9.79592Z" fill="#4CA262"/>
<path d="M58.0271 42.5677L27.5246 122.449H88.5295L58.0271 42.5677Z" fill="#4CA262"/>
<path d="M412.498 3.06122L387.934 67.9221H437.062L412.498 3.06122Z" fill="#4CA262"/>
<path d="M412.498 35.833L381.995 115.714H443L412.498 35.833Z" fill="#4CA262"/>
<path d="M278.608 79.898C278.608 97.9881 293.846 112.653 312.642 112.653C331.439 112.653 346.677 97.9881 346.677 79.898C346.677 61.8078 331.439 47.1429 312.642 47.1429C293.846 47.1429 278.608 61.8078 278.608 79.898Z" fill="#4CA262"/>
<path d="M347.961 89.6939C347.961 107.784 363.199 122.449 381.995 122.449C400.792 122.449 416.029 107.784 416.029 89.6939C416.029 71.6037 400.792 56.9388 381.995 56.9388C363.199 56.9388 347.961 71.6037 347.961 89.6939Z" fill="#4CA262"/>
<path d="M204.118 117.245C204.118 135.335 219.355 150 238.152 150C256.949 150 272.186 135.335 272.186 117.245C272.186 99.1548 256.949 84.4898 238.152 84.4898C219.355 84.4898 204.118 99.1548 204.118 117.245Z" fill="#4CA262"/>
<path d="M238.152 102.551C238.152 120.641 253.39 135.306 272.186 135.306C290.983 135.306 306.221 120.641 306.221 102.551C306.221 84.4609 290.983 69.7959 272.186 69.7959C253.39 69.7959 238.152 84.4609 238.152 102.551Z" fill="#4CA262"/>
<path d="M145.681 117.245C145.681 135.335 160.919 150 179.716 150C198.512 150 213.75 135.335 213.75 117.245C213.75 99.1548 198.512 84.4898 179.716 84.4898C160.919 84.4898 145.681 99.1548 145.681 117.245Z" fill="#4CA262"/>
<path d="M69.907 105.612C69.907 123.702 85.1447 138.367 103.941 138.367C122.738 138.367 137.976 123.702 137.976 105.612C137.976 87.5221 122.738 72.8571 103.941 72.8571C85.1447 72.8571 69.907 87.5221 69.907 105.612Z" fill="#4CA262"/>
<path d="M-0.730286 115.408C-0.730286 133.498 14.5074 148.163 33.304 148.163C52.1007 148.163 67.3383 133.498 67.3383 115.408C67.3383 97.318 52.1007 82.6531 33.304 82.6531C14.5074 82.6531 -0.730286 97.318 -0.730286 115.408Z" fill="#4CA262"/>
<path d="M687.007 3.06122L666.458 60.872H707.557L687.007 3.06122Z" fill="#4CA262"/>
<path d="M687.007 32.2709L646.231 103.469H727.784L687.007 32.2709Z" fill="#4CA262"/>
<path d="M617.976 24.4898L594.858 78.0705H641.414L617.976 24.4898Z" fill="#4CA262"/>
<path d="M618.297 51.5621L582.015 117.551H654.579L618.297 51.5621Z" fill="#4CA262"/>
<path d="M463.537 0L438.973 59.5733H488.101L463.537 0Z" fill="#4CA262"/>
<path d="M463.537 30.1002L433.034 103.469H494.039L463.537 30.1002Z" fill="#4CA262"/>
<path d="M538.027 9.79592L513.463 74.6568H562.591L538.027 9.79592Z" fill="#4CA262"/>
<path d="M538.027 42.5677L507.525 122.449H568.53L538.027 42.5677Z" fill="#4CA262"/>
<path d="M582.336 30.6122L567.598 56.3451H597.074L582.336 30.6122Z" fill="#4CA262"/>
<path d="M582.336 43.6141L564.034 75.3061H600.637L582.336 43.6141Z" fill="#4CA262"/>
<path d="M736.454 36.7347L721.715 62.4675H751.192L736.454 36.7347Z" fill="#4CA262"/>
<path d="M736.454 49.7365L718.152 81.4286H754.755L736.454 49.7365Z" fill="#4CA262"/>
<path d="M497.571 47.1429L482.833 72.8757H512.31L497.571 47.1429Z" fill="#4CA262"/>
<path d="M497.571 60.1447L479.27 91.8367H515.873L497.571 60.1447Z" fill="#4CA262"/>
<path d="M538.027 9.79592L513.463 74.6568H562.591L538.027 9.79592Z" fill="#4CA262"/>
<path d="M538.027 42.5677L507.525 122.449H568.53L538.027 42.5677Z" fill="#4CA262"/>
<path d="M684.118 117.245C684.118 135.335 699.355 150 718.152 150C736.949 150 752.186 135.335 752.186 117.245C752.186 99.1548 736.949 84.4898 718.152 84.4898C699.355 84.4898 684.118 99.1548 684.118 117.245Z" fill="#4CA262"/>
<path d="M625.682 117.245C625.682 135.335 640.919 150 659.716 150C678.512 150 693.75 135.335 693.75 117.245C693.75 99.1548 678.512 84.4898 659.716 84.4898C640.919 84.4898 625.682 99.1548 625.682 117.245Z" fill="#4CA262"/>
<path d="M549.907 105.612C549.907 123.702 565.145 138.367 583.941 138.367C602.738 138.367 617.976 123.702 617.976 105.612C617.976 87.5221 602.738 72.8571 583.941 72.8571C565.145 72.8571 549.907 87.5221 549.907 105.612Z" fill="#4CA262"/>
<path d="M479.27 115.408C479.27 133.498 494.507 148.163 513.304 148.163C532.101 148.163 547.338 133.498 547.338 115.408C547.338 97.318 532.101 82.6531 513.304 82.6531C494.507 82.6531 479.27 97.318 479.27 115.408Z" fill="#4CA262"/>
<path d="M399 99.4898C399 117.58 414.238 132.245 433.034 132.245C451.831 132.245 467.069 117.58 467.069 99.4898C467.069 81.3997 451.831 66.7347 433.034 66.7347C414.238 66.7347 399 81.3997 399 99.4898Z" fill="#4CA262"/>
<path d="M433.034 117.245C433.034 135.335 448.272 150 467.069 150C485.865 150 501.103 135.335 501.103 117.245C501.103 99.1548 485.865 84.4898 467.069 84.4898C448.272 84.4898 433.034 99.1548 433.034 117.245Z" fill="#4CA262"/>
<path d="M-0.186941 109.547L766.372 118.547L761 261.5L-0.186941 246V109.547Z" fill="#549665"/>
<path d="M721 121H761V162H721V121Z" fill="#549665"/>
<path d="M-29 91.8367H24V207H-29V91.8367Z" fill="#549665"/>
</svg>
