<svg width="733" height="324" viewBox="0 0 733 324" fill="none" xmlns="http://www.w3.org/2000/svg">
<path d="M175.975 135L190.124 111.617L310.302 178L310.302 209L175.975 135Z" fill="#878787"/>
<path d="M310.302 102H338.599V250H310.302V102Z" fill="#878787"/>
<path d="M204.108 135.383L189.96 112L70.3051 178V209L204.108 135.383Z" fill="#878787"/>
<path d="M42.0085 102H70.3051V250H42.0085V102Z" fill="#878787"/>
<path d="M20 138H358.511V161H20V138Z" fill="#ABABAB"/>
<path d="M40.7118 0H358.511V138H20L40.7118 0Z" fill="#D9D9D9"/>
<path d="M549.632 135L535.484 111.617L415.305 178L415.305 209L549.632 135Z" fill="#878787"/>
<path d="M415.305 102H387.009V250H415.305V102Z" fill="#878787"/>
<path d="M521.499 135.383L535.648 112L655.302 178V209L521.499 135.383Z" fill="#878787"/>
<path d="M683.599 102H655.302V250H683.599V102Z" fill="#878787"/>
<path d="M705.607 138H367.096V161H705.607V138Z" fill="#ABABAB"/>
<path d="M684.896 0H367.096V138H705.607L684.896 0Z" fill="#D9D9D9"/>
<path d="M162.565 283L177.764 259.617L306.873 326L306.873 357L162.565 283Z" fill="#878787"/>
<path d="M306.873 250H337.272V398H306.873V250Z" fill="#878787"/>
<path d="M192.788 283.383L177.588 260L49.0429 326V357L192.788 283.383Z" fill="#878787"/>
<path d="M18.6438 250H49.0429V398H18.6438V250Z" fill="#878787"/>
<path d="M-5 286H358.664V309H-5V286Z" fill="#ABABAB"/>
<path d="M17.2508 148H358.664V286H-5L17.2508 148Z" fill="#D9D9D9"/>
<path d="M565.099 283L549.9 259.617L420.791 326L420.791 357L565.099 283Z" fill="#878787"/>
<path d="M420.791 250H390.392V398H420.791V250Z" fill="#878787"/>
<path d="M534.876 283.383L550.075 260L678.621 326V357L534.876 283.383Z" fill="#878787"/>
<path d="M709.02 250H678.621V398H709.02V250Z" fill="#878787"/>
<path d="M732.664 286H369V309H732.664V286Z" fill="#ABABAB"/>
<path d="M710.413 148H369V286H732.664L710.413 148Z" fill="#D9D9D9"/>
</svg>
