<svg width="56" height="20" viewBox="0 0 56 20" fill="none" xmlns="http://www.w3.org/2000/svg">
<path d="M9.10938 6.69727V9.29688H2.69629V6.69727H9.10938ZM3.58789 0.359375V16H0.44043V0.359375H3.58789ZM11.3867 0.359375V16H8.27148V0.359375H11.3867ZM18.9277 13.3252V7.9541C18.9277 7.60319 18.8848 7.32389 18.7988 7.11621C18.7201 6.90853 18.5983 6.75814 18.4336 6.66504C18.276 6.56478 18.0827 6.51465 17.8535 6.51465C17.5957 6.51465 17.3809 6.56836 17.209 6.67578C17.0371 6.7832 16.9082 6.93717 16.8223 7.1377C16.7435 7.33822 16.7041 7.57812 16.7041 7.85742H13.6855C13.6855 7.35612 13.7822 6.88346 13.9756 6.43945C14.1689 5.98828 14.4518 5.5944 14.8242 5.25781C15.2038 4.91406 15.6549 4.64551 16.1777 4.45215C16.7005 4.25879 17.2878 4.16211 17.9395 4.16211C18.7129 4.16211 19.4004 4.2946 20.002 4.55957C20.6035 4.81738 21.0798 5.22917 21.4307 5.79492C21.7816 6.36068 21.957 7.09473 21.957 7.99707V13.1748C21.957 13.8265 21.9893 14.3564 22.0537 14.7646C22.1253 15.1729 22.2292 15.5238 22.3652 15.8174V16H19.3359C19.1999 15.6777 19.096 15.2767 19.0244 14.7969C18.96 14.3099 18.9277 13.8193 18.9277 13.3252ZM19.293 8.89941L19.3037 10.7041H18.1973C17.9108 10.7041 17.6602 10.7507 17.4453 10.8438C17.2376 10.9368 17.0622 11.0693 16.9189 11.2412C16.7757 11.4059 16.6683 11.5993 16.5967 11.8213C16.5322 12.0433 16.5 12.2796 16.5 12.5303C16.5 12.8096 16.5394 13.0459 16.6182 13.2393C16.6969 13.4326 16.8151 13.5794 16.9727 13.6797C17.1302 13.7799 17.3164 13.8301 17.5312 13.8301C17.8607 13.8301 18.1471 13.762 18.3906 13.626C18.6341 13.4899 18.8132 13.3252 18.9277 13.1318C19.0495 12.9385 19.0889 12.7594 19.0459 12.5947L19.7334 13.7656C19.6475 14.0306 19.5293 14.3063 19.3789 14.5928C19.2357 14.8792 19.0531 15.1442 18.8311 15.3877C18.609 15.6312 18.3333 15.8317 18.0039 15.9893C17.6816 16.1396 17.2985 16.2148 16.8545 16.2148C16.2314 16.2148 15.6621 16.0716 15.1465 15.7852C14.6309 15.4987 14.2227 15.0977 13.9219 14.582C13.6283 14.0664 13.4814 13.4541 13.4814 12.7451C13.4814 12.1579 13.5745 11.6279 13.7607 11.1553C13.9541 10.6755 14.2406 10.2708 14.6201 9.94141C14.9997 9.60482 15.4795 9.34701 16.0596 9.16797C16.6396 8.98893 17.32 8.89941 18.1006 8.89941H19.293ZM28.7568 10.457H26.6943V9.0498H28.1338C28.3701 9.0498 28.5599 8.99967 28.7031 8.89941C28.8535 8.79199 28.9609 8.64518 29.0254 8.45898C29.097 8.26562 29.1328 8.0472 29.1328 7.80371C29.1328 7.58887 29.1042 7.38477 29.0469 7.19141C28.9896 6.99089 28.8893 6.82975 28.7461 6.70801C28.61 6.5791 28.4095 6.51465 28.1445 6.51465C27.9082 6.51465 27.7005 6.5612 27.5215 6.6543C27.3496 6.7474 27.2171 6.88346 27.124 7.0625C27.0381 7.24154 26.9951 7.45996 26.9951 7.71777H23.9766C23.9766 6.97298 24.1556 6.33919 24.5137 5.81641C24.8789 5.28646 25.3659 4.88184 25.9746 4.60254C26.5833 4.31608 27.2529 4.17285 27.9834 4.17285C28.6136 4.17285 29.1829 4.24805 29.6914 4.39844C30.1999 4.54167 30.6367 4.75651 31.002 5.04297C31.3672 5.32943 31.6465 5.68392 31.8398 6.10645C32.0332 6.52181 32.1299 7.00521 32.1299 7.55664C32.1299 7.95052 32.0511 8.32292 31.8936 8.67383C31.736 9.02474 31.5104 9.33626 31.2168 9.6084C30.9232 9.87337 30.5687 10.0811 30.1533 10.2314C29.738 10.3818 29.2725 10.457 28.7568 10.457ZM26.6943 9.68359H28.7568C29.3298 9.68359 29.8346 9.75163 30.2715 9.8877C30.7155 10.0166 31.0879 10.21 31.3887 10.4678C31.6895 10.7256 31.9186 11.0443 32.0762 11.4238C32.2337 11.7962 32.3125 12.2259 32.3125 12.7129C32.3125 13.2643 32.2051 13.7585 31.9902 14.1953C31.7826 14.625 31.4818 14.9902 31.0879 15.291C30.7012 15.5918 30.2464 15.821 29.7236 15.9785C29.2008 16.1361 28.6208 16.2148 27.9834 16.2148C27.2959 16.2148 26.6335 16.0859 25.9961 15.8281C25.3659 15.5703 24.8467 15.1729 24.4385 14.6357C24.0303 14.0915 23.8262 13.3968 23.8262 12.5518H26.8447C26.8447 12.7809 26.8877 12.9993 26.9736 13.207C27.0667 13.4076 27.21 13.5723 27.4033 13.7012C27.5967 13.8229 27.8473 13.8838 28.1553 13.8838C28.4417 13.8838 28.6673 13.8158 28.832 13.6797C28.9967 13.5365 29.1149 13.3574 29.1865 13.1426C29.2581 12.9277 29.2939 12.7021 29.2939 12.4658C29.2939 12.1436 29.251 11.875 29.165 11.6602C29.0791 11.4453 28.9502 11.2913 28.7783 11.1982C28.6064 11.1051 28.3916 11.0586 28.1338 11.0586H26.6943V9.68359ZM39.2734 13.3252V7.9541C39.2734 7.60319 39.2305 7.32389 39.1445 7.11621C39.0658 6.90853 38.944 6.75814 38.7793 6.66504C38.6217 6.56478 38.4284 6.51465 38.1992 6.51465C37.9414 6.51465 37.7266 6.56836 37.5547 6.67578C37.3828 6.7832 37.2539 6.93717 37.168 7.1377C37.0892 7.33822 37.0498 7.57812 37.0498 7.85742H34.0312C34.0312 7.35612 34.1279 6.88346 34.3213 6.43945C34.5146 5.98828 34.7975 5.5944 35.1699 5.25781C35.5495 4.91406 36.0007 4.64551 36.5234 4.45215C37.0462 4.25879 37.6335 4.16211 38.2852 4.16211C39.0586 4.16211 39.7461 4.2946 40.3477 4.55957C40.9492 4.81738 41.4255 5.22917 41.7764 5.79492C42.1273 6.36068 42.3027 7.09473 42.3027 7.99707V13.1748C42.3027 13.8265 42.335 14.3564 42.3994 14.7646C42.471 15.1729 42.5749 15.5238 42.7109 15.8174V16H39.6816C39.5456 15.6777 39.4417 15.2767 39.3701 14.7969C39.3057 14.3099 39.2734 13.8193 39.2734 13.3252ZM39.6387 8.89941L39.6494 10.7041H38.543C38.2565 10.7041 38.0059 10.7507 37.791 10.8438C37.5833 10.9368 37.4079 11.0693 37.2646 11.2412C37.1214 11.4059 37.014 11.5993 36.9424 11.8213C36.8779 12.0433 36.8457 12.2796 36.8457 12.5303C36.8457 12.8096 36.8851 13.0459 36.9639 13.2393C37.0426 13.4326 37.1608 13.5794 37.3184 13.6797C37.4759 13.7799 37.6621 13.8301 37.877 13.8301C38.2064 13.8301 38.4928 13.762 38.7363 13.626C38.9798 13.4899 39.1589 13.3252 39.2734 13.1318C39.3952 12.9385 39.4346 12.7594 39.3916 12.5947L40.0791 13.7656C39.9932 14.0306 39.875 14.3063 39.7246 14.5928C39.5814 14.8792 39.3988 15.1442 39.1768 15.3877C38.9548 15.6312 38.679 15.8317 38.3496 15.9893C38.0273 16.1396 37.6442 16.2148 37.2002 16.2148C36.5771 16.2148 36.0078 16.0716 35.4922 15.7852C34.9766 15.4987 34.5684 15.0977 34.2676 14.582C33.974 14.0664 33.8271 13.4541 33.8271 12.7451C33.8271 12.1579 33.9202 11.6279 34.1064 11.1553C34.2998 10.6755 34.5863 10.2708 34.9658 9.94141C35.3454 9.60482 35.8252 9.34701 36.4053 9.16797C36.9854 8.98893 37.6657 8.89941 38.4463 8.89941H39.6387ZM46.2988 4.37695H49.3066L49.2529 8.2334C49.2314 9.49382 49.1061 10.5752 48.877 11.4775C48.6478 12.3799 48.3398 13.1354 47.9531 13.7441C47.5736 14.3529 47.1331 14.8398 46.6318 15.2051C46.1305 15.5632 45.597 15.8281 45.0312 16H44.4941L44.4619 13.5293L44.752 13.4971C45.0957 13.1104 45.3643 12.7344 45.5576 12.3691C45.7581 12.0039 45.9049 11.6243 45.998 11.2305C46.0911 10.8294 46.152 10.389 46.1807 9.90918C46.2165 9.4222 46.238 8.86361 46.2451 8.2334L46.2988 4.37695ZM47.083 4.37695H53.8506V16H50.8535V6.93359H47.083V4.37695ZM43.8818 13.4971H55.376V19.502H52.3682V16H46.9756V19.502H43.8818V13.4971Z" fill="#F2F2F2"/>
</svg>
