<svg width="169" height="16" viewBox="0 0 169 16" fill="none" xmlns="http://www.w3.org/2000/svg">
<path d="M10.0283 5.6084V7.74414C10.0283 8.64648 9.91699 9.4375 9.69434 10.1172C9.47754 10.791 9.16699 11.3564 8.7627 11.8135C8.36426 12.2646 7.88086 12.6045 7.3125 12.833C6.75 13.0615 6.12598 13.1758 5.44043 13.1758C4.75488 13.1758 4.12793 13.0615 3.55957 12.833C2.99707 12.6045 2.51074 12.2646 2.10059 11.8135C1.69629 11.3564 1.38281 10.791 1.16016 10.1172C0.9375 9.4375 0.826172 8.64648 0.826172 7.74414V5.6084C0.826172 4.68262 0.93457 3.87402 1.15137 3.18262C1.36816 2.48535 1.68164 1.90527 2.0918 1.44238C2.50195 0.973633 2.98828 0.62207 3.55078 0.387695C4.11328 0.147461 4.7373 0.0273438 5.42285 0.0273438C6.1084 0.0273438 6.73242 0.147461 7.29492 0.387695C7.85742 0.62207 8.34375 0.973633 8.75391 1.44238C9.16406 1.90527 9.47754 2.48535 9.69434 3.18262C9.91699 3.87402 10.0283 4.68262 10.0283 5.6084ZM7.4707 7.74414V5.59082C7.4707 4.98145 7.42676 4.46289 7.33887 4.03516C7.25098 3.60156 7.11914 3.24707 6.94336 2.97168C6.76758 2.69629 6.55371 2.49414 6.30176 2.36523C6.0498 2.23633 5.75684 2.17188 5.42285 2.17188C5.08887 2.17188 4.79297 2.23633 4.53516 2.36523C4.2832 2.49414 4.06934 2.69629 3.89355 2.97168C3.72363 3.24707 3.59473 3.60156 3.50684 4.03516C3.4248 4.46289 3.38379 4.98145 3.38379 5.59082V7.74414C3.38379 8.33008 3.42773 8.83105 3.51562 9.24707C3.60352 9.66309 3.73535 10.0029 3.91113 10.2666C4.08691 10.5303 4.30078 10.7266 4.55273 10.8555C4.81055 10.9785 5.10645 11.04 5.44043 11.04C5.76855 11.04 6.05859 10.9785 6.31055 10.8555C6.56836 10.7266 6.78223 10.5303 6.95215 10.2666C7.12207 10.0029 7.25098 9.66309 7.33887 9.24707C7.42676 8.83105 7.4707 8.33008 7.4707 7.74414ZM17.1211 3.49023V5.53809H13.5791V3.49023H17.1211ZM14.2471 3.49023V13H11.7773V3.49023H14.2471ZM18.9492 3.49023V13H16.4707V3.49023H18.9492ZM23.2119 8.71094L25.5762 3.49023H27.9492V13H25.5146V7.79688L23.1592 13H20.7773V3.49023H23.2119V8.71094ZM33.2139 11.1279C33.4424 11.1279 33.6387 11.0811 33.8027 10.9873C33.9727 10.8936 34.1016 10.7412 34.1895 10.5303C34.2773 10.3193 34.3242 10.0469 34.3301 9.71289H36.6416C36.6416 10.4277 36.4893 11.0459 36.1846 11.5674C35.8857 12.083 35.4814 12.4814 34.9717 12.7627C34.4678 13.0381 33.8965 13.1758 33.2578 13.1758C32.6191 13.1758 32.0625 13.0732 31.5879 12.8682C31.1133 12.6631 30.7207 12.3643 30.4102 11.9717C30.1055 11.5791 29.874 11.1016 29.7158 10.5391C29.5635 9.9707 29.4873 9.32031 29.4873 8.58789V7.89355C29.4873 7.17285 29.5635 6.52832 29.7158 5.95996C29.874 5.3916 30.1055 4.91113 30.4102 4.51855C30.7207 4.12598 31.1104 3.82715 31.5791 3.62207C32.0537 3.41699 32.6104 3.31445 33.249 3.31445C33.9346 3.31445 34.5293 3.45801 35.0332 3.74512C35.5371 4.02637 35.9297 4.44238 36.2109 4.99316C36.498 5.54395 36.6416 6.22363 36.6416 7.03223H34.3301C34.3242 6.66895 34.2803 6.36719 34.1982 6.12695C34.1221 5.88086 34.002 5.69336 33.8379 5.56445C33.6797 5.42969 33.4688 5.3623 33.2051 5.3623C32.9297 5.3623 32.707 5.4209 32.5371 5.53809C32.373 5.64941 32.2471 5.81348 32.1592 6.03027C32.0771 6.24121 32.0215 6.50488 31.9922 6.82129C31.9629 7.1377 31.9482 7.49512 31.9482 7.89355V8.58789C31.9482 9.01562 31.96 9.3877 31.9834 9.7041C32.0127 10.0146 32.0684 10.2783 32.1504 10.4951C32.2383 10.7061 32.3643 10.8643 32.5283 10.9697C32.6982 11.0752 32.9268 11.1279 33.2139 11.1279ZM42.249 10.8115V6.41699C42.249 6.12988 42.2139 5.90137 42.1436 5.73145C42.0791 5.56152 41.9795 5.43848 41.8447 5.3623C41.7158 5.28027 41.5576 5.23926 41.3701 5.23926C41.1592 5.23926 40.9834 5.2832 40.8428 5.37109C40.7021 5.45898 40.5967 5.58496 40.5264 5.74902C40.4619 5.91309 40.4297 6.10938 40.4297 6.33789H37.96C37.96 5.92773 38.0391 5.54102 38.1973 5.17773C38.3555 4.80859 38.5869 4.48633 38.8916 4.21094C39.2021 3.92969 39.5713 3.70996 39.999 3.55176C40.4268 3.39355 40.9072 3.31445 41.4404 3.31445C42.0732 3.31445 42.6357 3.42285 43.1279 3.63965C43.6201 3.85059 44.0098 4.1875 44.2969 4.65039C44.584 5.11328 44.7275 5.71387 44.7275 6.45215V10.6885C44.7275 11.2217 44.7539 11.6553 44.8066 11.9893C44.8652 12.3232 44.9502 12.6104 45.0615 12.8506V13H42.583C42.4717 12.7363 42.3867 12.4082 42.3281 12.0156C42.2754 11.6172 42.249 11.2158 42.249 10.8115ZM42.5479 7.19043L42.5566 8.66699H41.6514C41.417 8.66699 41.2119 8.70508 41.0361 8.78125C40.8662 8.85742 40.7227 8.96582 40.6055 9.10645C40.4883 9.24121 40.4004 9.39941 40.3418 9.58105C40.2891 9.7627 40.2627 9.95605 40.2627 10.1611C40.2627 10.3896 40.2949 10.583 40.3594 10.7412C40.4238 10.8994 40.5205 11.0195 40.6494 11.1016C40.7783 11.1836 40.9307 11.2246 41.1064 11.2246C41.376 11.2246 41.6104 11.1689 41.8096 11.0576C42.0088 10.9463 42.1553 10.8115 42.249 10.6533C42.3486 10.4951 42.3809 10.3486 42.3457 10.2139L42.9082 11.1719C42.8379 11.3887 42.7412 11.6143 42.6182 11.8486C42.501 12.083 42.3516 12.2998 42.1699 12.499C41.9883 12.6982 41.7627 12.8623 41.4932 12.9912C41.2295 13.1143 40.916 13.1758 40.5527 13.1758C40.043 13.1758 39.5771 13.0586 39.1553 12.8242C38.7334 12.5898 38.3994 12.2617 38.1533 11.8398C37.9131 11.418 37.793 10.917 37.793 10.3369C37.793 9.85645 37.8691 9.42285 38.0215 9.03613C38.1797 8.64355 38.4141 8.3125 38.7246 8.04297C39.0352 7.76758 39.4277 7.55664 39.9023 7.41016C40.377 7.26367 40.9336 7.19043 41.5723 7.19043H42.5479ZM52.0137 7.30469V9.34375H48.2168V7.30469H52.0137ZM49.0166 3.49023V13H46.5469V3.49023H49.0166ZM53.6924 3.49023V13H51.2314V3.49023H53.6924ZM57.9639 8.71094L60.3281 3.49023H62.7012V13H60.2666V7.79688L57.9111 13H55.5293V3.49023H57.9639V8.71094ZM68.3613 13.1758C67.7109 13.1758 67.1338 13.0762 66.6299 12.877C66.1318 12.6777 65.71 12.3906 65.3643 12.0156C65.0186 11.6348 64.7549 11.1748 64.5732 10.6357C64.3916 10.0967 64.3008 9.48145 64.3008 8.79004V8.00781C64.3008 7.23438 64.3887 6.55762 64.5645 5.97754C64.7402 5.3916 64.9893 4.89941 65.3115 4.50098C65.6338 4.10254 66.0293 3.80664 66.498 3.61328C66.9727 3.41406 67.5088 3.31445 68.1064 3.31445C68.7041 3.31445 69.2285 3.41406 69.6797 3.61328C70.1367 3.80664 70.5146 4.09961 70.8135 4.49219C71.1123 4.87891 71.3379 5.35938 71.4902 5.93359C71.6426 6.50781 71.7188 7.17578 71.7188 7.9375V9.0625H65.3467V7.33105H69.3018V7.11133C69.3018 6.72461 69.2607 6.40234 69.1787 6.14453C69.0967 5.88086 68.9678 5.68457 68.792 5.55566C68.6162 5.42676 68.3818 5.3623 68.0889 5.3623C67.8428 5.3623 67.6348 5.41211 67.4648 5.51172C67.2949 5.61133 67.1602 5.7666 67.0605 5.97754C66.9609 6.18848 66.8877 6.46387 66.8408 6.80371C66.7939 7.1377 66.7705 7.53906 66.7705 8.00781V8.79004C66.7705 9.22949 66.8086 9.59863 66.8848 9.89746C66.9609 10.1904 67.0723 10.4307 67.2188 10.6182C67.3711 10.7998 67.5557 10.9316 67.7725 11.0137C67.9893 11.0898 68.2412 11.1279 68.5283 11.1279C68.9619 11.1279 69.3516 11.0518 69.6973 10.8994C70.0488 10.7412 70.3477 10.5273 70.5938 10.2578L71.5781 11.752C71.4082 11.9746 71.1738 12.1973 70.875 12.4199C70.5762 12.6426 70.2188 12.8242 69.8027 12.9648C69.3867 13.1055 68.9062 13.1758 68.3613 13.1758ZM78.7412 3.49023H81.2021L81.1582 6.64551C81.1406 7.67676 81.0381 8.56152 80.8506 9.2998C80.6631 10.0381 80.4111 10.6562 80.0947 11.1543C79.7842 11.6523 79.4238 12.0508 79.0137 12.3496C78.6035 12.6426 78.167 12.8594 77.7041 13H77.2646L77.2383 10.9785L77.4756 10.9521C77.7568 10.6357 77.9766 10.3281 78.1348 10.0293C78.2988 9.73047 78.4189 9.41992 78.4951 9.09766C78.5713 8.76953 78.6211 8.40918 78.6445 8.0166C78.6738 7.61816 78.6914 7.16113 78.6973 6.64551L78.7412 3.49023ZM79.3828 3.49023H84.9199V13H82.4678V5.58203H79.3828V3.49023ZM76.7637 10.9521H86.168V15.8652H83.707V13H79.2949V15.8652H76.7637V10.9521ZM87.1699 8.57031V7.92871C87.1699 7.18457 87.2578 6.52539 87.4336 5.95117C87.6152 5.37695 87.873 4.89648 88.207 4.50977C88.541 4.11719 88.9424 3.82129 89.4111 3.62207C89.8857 3.41699 90.416 3.31445 91.002 3.31445C91.5938 3.31445 92.124 3.41699 92.5928 3.62207C93.0674 3.82129 93.4717 4.11719 93.8057 4.50977C94.1455 4.89648 94.4062 5.37695 94.5879 5.95117C94.7695 6.52539 94.8604 7.18457 94.8604 7.92871V8.57031C94.8604 9.30859 94.7695 9.96484 94.5879 10.5391C94.4062 11.1133 94.1455 11.5967 93.8057 11.9893C93.4717 12.3818 93.0703 12.6777 92.6016 12.877C92.1328 13.0762 91.6055 13.1758 91.0195 13.1758C90.4336 13.1758 89.9033 13.0762 89.4287 12.877C88.96 12.6777 88.5557 12.3818 88.2158 11.9893C87.876 11.5967 87.6152 11.1133 87.4336 10.5391C87.2578 9.96484 87.1699 9.30859 87.1699 8.57031ZM89.6309 7.92871V8.57031C89.6309 9.00977 89.6602 9.39062 89.7188 9.71289C89.7832 10.0352 89.874 10.3018 89.9912 10.5127C90.1143 10.7236 90.2607 10.8789 90.4307 10.9785C90.6006 11.0781 90.7969 11.1279 91.0195 11.1279C91.2422 11.1279 91.4414 11.0781 91.6172 10.9785C91.793 10.8789 91.9365 10.7236 92.0479 10.5127C92.165 10.3018 92.25 10.0352 92.3027 9.71289C92.3613 9.39062 92.3906 9.00977 92.3906 8.57031V7.92871C92.3906 7.50098 92.3584 7.12598 92.2939 6.80371C92.2295 6.47559 92.1387 6.20898 92.0215 6.00391C91.9043 5.79297 91.7578 5.63477 91.582 5.5293C91.4121 5.41797 91.2188 5.3623 91.002 5.3623C90.7852 5.3623 90.5918 5.41797 90.4219 5.5293C90.2578 5.63477 90.1143 5.79297 89.9912 6.00391C89.874 6.20898 89.7832 6.47559 89.7188 6.80371C89.6602 7.12598 89.6309 7.50098 89.6309 7.92871ZM99.8525 11.1279C100.081 11.1279 100.277 11.0811 100.441 10.9873C100.611 10.8936 100.74 10.7412 100.828 10.5303C100.916 10.3193 100.963 10.0469 100.969 9.71289H103.28C103.28 10.4277 103.128 11.0459 102.823 11.5674C102.524 12.083 102.12 12.4814 101.61 12.7627C101.106 13.0381 100.535 13.1758 99.8965 13.1758C99.2578 13.1758 98.7012 13.0732 98.2266 12.8682C97.752 12.6631 97.3594 12.3643 97.0488 11.9717C96.7441 11.5791 96.5127 11.1016 96.3545 10.5391C96.2021 9.9707 96.126 9.32031 96.126 8.58789V7.89355C96.126 7.17285 96.2021 6.52832 96.3545 5.95996C96.5127 5.3916 96.7441 4.91113 97.0488 4.51855C97.3594 4.12598 97.749 3.82715 98.2178 3.62207C98.6924 3.41699 99.249 3.31445 99.8877 3.31445C100.573 3.31445 101.168 3.45801 101.672 3.74512C102.176 4.02637 102.568 4.44238 102.85 4.99316C103.137 5.54395 103.28 6.22363 103.28 7.03223H100.969C100.963 6.66895 100.919 6.36719 100.837 6.12695C100.761 5.88086 100.641 5.69336 100.477 5.56445C100.318 5.42969 100.107 5.3623 99.8438 5.3623C99.5684 5.3623 99.3457 5.4209 99.1758 5.53809C99.0117 5.64941 98.8857 5.81348 98.7979 6.03027C98.7158 6.24121 98.6602 6.50488 98.6309 6.82129C98.6016 7.1377 98.5869 7.49512 98.5869 7.89355V8.58789C98.5869 9.01562 98.5986 9.3877 98.6221 9.7041C98.6514 10.0146 98.707 10.2783 98.7891 10.4951C98.877 10.7061 99.0029 10.8643 99.167 10.9697C99.3369 11.0752 99.5654 11.1279 99.8525 11.1279ZM109.081 3.49023V13H106.611V3.49023H109.081ZM111.524 3.49023V5.52051H104.177V3.49023H111.524ZM115.304 8.71094L117.668 3.49023H120.041V13H117.606V7.79688L115.251 13H112.869V3.49023H115.304V8.71094ZM124.646 9.4668L121.386 3.49023H124.436L125.815 7.03223H127.389L127.072 9.4668H124.646ZM125.833 9.01855L124.409 13H121.447L123.829 7.7793L125.833 9.01855ZM128.979 3.49023V13H126.519V3.49023H128.979ZM134.13 3.49023L130.86 9.4668H128.443L128.118 7.03223H129.691L131.089 3.49023H134.13ZM131.098 13L129.665 9.01855L131.748 7.7793L134.13 13H131.098ZM139.043 13.1758C138.393 13.1758 137.815 13.0762 137.312 12.877C136.813 12.6777 136.392 12.3906 136.046 12.0156C135.7 11.6348 135.437 11.1748 135.255 10.6357C135.073 10.0967 134.982 9.48145 134.982 8.79004V8.00781C134.982 7.23438 135.07 6.55762 135.246 5.97754C135.422 5.3916 135.671 4.89941 135.993 4.50098C136.315 4.10254 136.711 3.80664 137.18 3.61328C137.654 3.41406 138.19 3.31445 138.788 3.31445C139.386 3.31445 139.91 3.41406 140.361 3.61328C140.818 3.80664 141.196 4.09961 141.495 4.49219C141.794 4.87891 142.02 5.35938 142.172 5.93359C142.324 6.50781 142.4 7.17578 142.4 7.9375V9.0625H136.028V7.33105H139.983V7.11133C139.983 6.72461 139.942 6.40234 139.86 6.14453C139.778 5.88086 139.649 5.68457 139.474 5.55566C139.298 5.42676 139.063 5.3623 138.771 5.3623C138.524 5.3623 138.316 5.41211 138.146 5.51172C137.977 5.61133 137.842 5.7666 137.742 5.97754C137.643 6.18848 137.569 6.46387 137.522 6.80371C137.476 7.1377 137.452 7.53906 137.452 8.00781V8.79004C137.452 9.22949 137.49 9.59863 137.566 9.89746C137.643 10.1904 137.754 10.4307 137.9 10.6182C138.053 10.7998 138.237 10.9316 138.454 11.0137C138.671 11.0898 138.923 11.1279 139.21 11.1279C139.644 11.1279 140.033 11.0518 140.379 10.8994C140.73 10.7412 141.029 10.5273 141.275 10.2578L142.26 11.752C142.09 11.9746 141.855 12.1973 141.557 12.4199C141.258 12.6426 140.9 12.8242 140.484 12.9648C140.068 13.1055 139.588 13.1758 139.043 13.1758ZM149.291 7.30469V9.34375H145.494V7.30469H149.291ZM146.294 3.49023V13H143.824V3.49023H146.294ZM150.97 3.49023V13H148.509V3.49023H150.97ZM155.241 8.71094L157.605 3.49023H159.979V13H157.544V7.79688L155.188 13H152.807V3.49023H155.241V8.71094ZM163.485 8.22754H165.973L163.723 13H161.235L163.485 8.22754ZM165.059 3.49023H168.68V13H166.219V5.52051H165.059C164.818 5.52051 164.616 5.58203 164.452 5.70508C164.288 5.82812 164.168 5.98633 164.092 6.17969C164.016 6.36719 163.978 6.55762 163.978 6.75098C163.978 6.94434 164.016 7.13184 164.092 7.31348C164.168 7.49512 164.288 7.64453 164.452 7.76172C164.622 7.87891 164.827 7.9375 165.067 7.9375H167.098V9.71289H165.067C164.517 9.71289 164.021 9.63672 163.582 9.48438C163.143 9.33203 162.768 9.12109 162.457 8.85156C162.146 8.57617 161.909 8.25391 161.745 7.88477C161.581 7.50977 161.499 7.10254 161.499 6.66309C161.499 6.20605 161.581 5.78418 161.745 5.39746C161.909 5.01074 162.146 4.67676 162.457 4.39551C162.768 4.1084 163.14 3.88574 163.573 3.72754C164.013 3.56934 164.508 3.49023 165.059 3.49023Z" fill="white"/>
</svg>
