<svg width="520" height="568" viewBox="0 0 520 568" fill="none" xmlns="http://www.w3.org/2000/svg">
<path d="M0 0H520V568H0V0Z" fill="#B7B7B7"/>
<path d="M236 28H284V76H236V28ZM236 28L260 52M260 52L283.625 75.625M260 52L236.375 75.625M260 52L283.625 28.375" stroke="#4F4F4F" stroke-width="3"/>
<path d="M266 322H314V370H266V322ZM266 322L290 346M290 346L313.625 369.625M290 346L266.375 369.625M290 346L313.625 322.375" stroke="#4F4F4F" stroke-width="3"/>
<path d="M336 322H384V370H336V322ZM336 322L360 346M360 346L383.625 369.625M360 346L336.375 369.625M360 346L383.625 322.375" stroke="#4F4F4F" stroke-width="3"/>
<path d="M396 322H444V370H396V322ZM396 322L420 346M420 346L443.625 369.625M420 346L396.375 369.625M420 346L443.625 322.375" stroke="#4F4F4F" stroke-width="3"/>
<path d="M396 482H444V530H396V482ZM396 482L420 506M420 506L443.625 529.625M420 506L396.375 529.625M420 506L443.625 482.375" stroke="#4F4F4F" stroke-width="3"/>
<path d="M396 152H444V200H396V152ZM396 152L420 176M420 176L443.625 199.625M420 176L396.375 199.625M420 176L443.625 152.375" stroke="#4F4F4F" stroke-width="3"/>
<path d="M236 152H284V200H236V152ZM236 152L260 176M260 176L283.625 199.625M260 176L236.375 199.625M260 176L283.625 152.375" stroke="#4F4F4F" stroke-width="3"/>
<path d="M236 482H284V530H236V482ZM236 482L260 506M260 506L283.625 529.625M260 506L236.375 529.625M260 506L283.625 482.375" stroke="#4F4F4F" stroke-width="3"/>
<path d="M86 152H134V200H86V152ZM86 152L110 176M110 176L133.625 199.625M110 176L86.375 199.625M110 176L133.625 152.375" stroke="#4F4F4F" stroke-width="3"/>
<path d="M456 322H504V370H456V322ZM456 322L480 346M480 346L503.625 369.625M480 346L456.375 369.625M480 346L503.625 322.375" stroke="#4F4F4F" stroke-width="3"/>
<path d="M206 322H254V370H206V322ZM206 322L230 346M230 346L253.625 369.625M230 346L206.375 369.625M230 346L253.625 322.375" stroke="#4F4F4F" stroke-width="3"/>
<path d="M116 322H164V370H116V322ZM116 322L140 346M140 346L163.625 369.625M140 346L116.375 369.625M140 346L163.625 322.375" stroke="#4F4F4F" stroke-width="3"/>
<path d="M56 322H104V370H56V322ZM56 322L80 346M80 346L103.625 369.625M80 346L56.375 369.625M80 346L103.625 322.375" stroke="#4F4F4F" stroke-width="3"/>
<path d="M116 482H164V530H116V482ZM116 482L140 506M140 506L163.625 529.625M140 506L116.375 529.625M140 506L163.625 482.375" stroke="#4F4F4F" stroke-width="3"/>
<path d="M56 482H104V530H56V482ZM56 482L80 506M80 506L103.625 529.625M80 506L56.375 529.625M80 506L103.625 482.375" stroke="#4F4F4F" stroke-width="3"/>
<path d="M259.293 152.707C259.683 153.098 260.317 153.098 260.707 152.707L267.071 146.343C267.462 145.953 267.462 145.319 267.071 144.929C266.681 144.538 266.047 144.538 265.657 144.929L260 150.586L254.343 144.929C253.953 144.538 253.319 144.538 252.929 144.929C252.538 145.319 252.538 145.953 252.929 146.343L259.293 152.707ZM259 76V152H261V76H259Z" fill="white"/>
<path d="M110 101L110 100L109 100L109 101L110 101ZM109.293 152.707C109.683 153.098 110.317 153.098 110.707 152.707L117.071 146.343C117.462 145.953 117.462 145.319 117.071 144.929C116.681 144.538 116.047 144.538 115.657 144.929L110 150.586L104.343 144.929C103.953 144.538 103.319 144.538 102.929 144.929C102.538 145.319 102.538 145.953 102.929 146.343L109.293 152.707ZM260 100L110 100L110 102L260 102V100ZM109 101L109 152L111 152L111 101L109 101Z" fill="white"/>
<path d="M421 101L421 100L422 100L422 101L421 101ZM421.707 152.707C421.317 153.098 420.683 153.098 420.293 152.707L413.929 146.343C413.538 145.953 413.538 145.319 413.929 144.929C414.319 144.538 414.953 144.538 415.343 144.929L421 150.586L426.657 144.929C427.047 144.538 427.681 144.538 428.071 144.929C428.462 145.319 428.462 145.953 428.071 146.343L421.707 152.707ZM260 100.002L421 100L421 102L260 102.002L260 100.002ZM422 101L422 152L420 152L420 101L422 101Z" fill="white"/>
<path d="M419.293 322.707C419.683 323.098 420.317 323.098 420.707 322.707L427.071 316.343C427.462 315.953 427.462 315.319 427.071 314.929C426.681 314.538 426.047 314.538 425.657 314.929L420 320.586L414.343 314.929C413.953 314.538 413.319 314.538 412.929 314.929C412.538 315.319 412.538 315.953 412.929 316.343L419.293 322.707ZM419 200V322H421V200H419Z" fill="white"/>
<path d="M419.293 481.707C419.683 482.098 420.317 482.098 420.707 481.707L427.071 475.343C427.462 474.953 427.462 474.319 427.071 473.929C426.681 473.538 426.047 473.538 425.657 473.929L420 479.586L414.343 473.929C413.953 473.538 413.319 473.538 412.929 473.929C412.538 474.319 412.538 474.953 412.929 475.343L419.293 481.707ZM419 371V481H421V371H419Z" fill="white"/>
<path d="M290 260L291 260L291 259L290 259L290 260ZM289.294 322.713C289.685 323.104 290.318 323.104 290.709 322.713L297.072 316.349C297.463 315.958 297.463 315.325 297.072 314.935C296.682 314.544 296.049 314.544 295.658 314.935L290.002 320.592L284.345 314.935C283.954 314.544 283.321 314.544 282.93 314.935C282.54 315.326 282.54 315.959 282.93 316.349L289.294 322.713ZM260.002 260L259.002 260L259.002 261L260.002 261L260.002 260ZM289 260L289.002 322.006L291.002 322.006L291 260L289 260ZM259.002 200.006L259.002 260L261.002 260L261.002 200.006L259.002 200.006ZM260.002 261L290 261L290 259L260.002 259L260.002 261Z" fill="white"/>
<path d="M230 260L230 259L229 259L229 260L230 260ZM229.293 321.707C229.683 322.098 230.317 322.098 230.707 321.707L237.071 315.343C237.462 314.953 237.462 314.319 237.071 313.929C236.681 313.538 236.047 313.538 235.657 313.929L230 319.586L224.343 313.929C223.953 313.538 223.319 313.538 222.929 313.929C222.538 314.319 222.538 314.953 222.929 315.343L229.293 321.707ZM260 259L230 259L230 261L260 261V259ZM229 260L229 321L231 321L231 260L229 260Z" fill="white"/>
<path d="M139.157 260.529L140.157 260.529L140.157 259.529L139.157 259.529L139.157 260.529ZM138.452 323.242C138.842 323.633 139.475 323.633 139.866 323.242L146.23 316.878C146.62 316.488 146.62 315.854 146.23 315.464C145.839 315.073 145.206 315.073 144.815 315.464L139.159 321.121L133.502 315.464C133.111 315.074 132.478 315.074 132.088 315.464C131.697 315.855 131.697 316.488 132.088 316.879L138.452 323.242ZM109.159 260.529L108.159 260.529L108.159 261.529L109.159 261.529L109.159 260.529ZM138.157 260.529L138.159 322.535L140.159 322.535L140.157 260.529L138.157 260.529ZM108.159 200.535L108.159 260.529L110.159 260.529L110.159 200.535L108.159 200.535ZM109.159 261.529L139.157 261.529L139.157 259.529L109.159 259.529L109.159 261.529Z" fill="white"/>
<path d="M79.1572 260.529L79.1572 259.529L78.1572 259.529L78.1572 260.529L79.1572 260.529ZM78.4501 322.236C78.8406 322.627 79.4738 322.627 79.8643 322.236L86.2283 315.872C86.6188 315.482 86.6188 314.849 86.2283 314.458C85.8378 314.068 85.2046 314.068 84.8141 314.458L79.1572 320.115L73.5004 314.458C73.1098 314.068 72.4767 314.068 72.0862 314.458C71.6956 314.849 71.6956 315.482 72.0862 315.872L78.4501 322.236ZM109.157 259.529L79.1572 259.529L79.1572 261.529L109.157 261.529V259.529ZM78.1572 260.529L78.1572 321.529L80.1572 321.529L80.1572 260.529L78.1572 260.529Z" fill="white"/>
<path d="M139.292 482.206C139.682 482.597 140.315 482.598 140.706 482.208L147.08 475.854C147.471 475.464 147.472 474.831 147.082 474.44C146.692 474.049 146.059 474.048 145.668 474.438L140.002 480.086L134.354 474.42C133.964 474.029 133.331 474.028 132.94 474.418C132.549 474.808 132.548 475.441 132.938 475.832L139.292 482.206ZM139.172 371.498L139 481.498L141 481.502L141.172 371.502L139.172 371.498Z" fill="white"/>
<path d="M79.4481 481.246C79.8386 481.637 80.4717 481.637 80.8623 481.246L87.2264 474.882C87.6169 474.492 87.6169 473.859 87.2264 473.468C86.8359 473.078 86.2027 473.078 85.8122 473.468L80.1552 479.125L74.4985 473.468C74.1079 473.077 73.4748 473.077 73.0842 473.468C72.6937 473.859 72.6937 474.492 73.0842 474.882L79.4481 481.246ZM79.1572 371.5L79.1552 480.539L81.1552 480.539L81.1572 371.5L79.1572 371.5Z" fill="white"/>
<path d="M480.002 254.273L481.002 254.273L481.002 253.273L480.002 253.273L480.002 254.273ZM479.292 322.994C479.683 323.384 480.316 323.384 480.706 322.994L487.071 316.63C487.461 316.24 487.461 315.606 487.071 315.216C486.68 314.825 486.047 314.825 485.656 315.216L479.999 320.873L474.343 315.215C473.952 314.825 473.319 314.825 472.928 315.215C472.538 315.606 472.538 316.239 472.928 316.63L479.292 322.994ZM421 255.27L480.002 255.273L480.002 253.273L421 253.27L421 255.27ZM479.002 254.273L478.999 322.287L480.999 322.287L481.002 254.273L479.002 254.273Z" fill="white"/>
<path d="M360.171 254.273L359.171 254.273L359.171 253.273L360.171 253.273L360.171 254.273ZM360.881 322.994C360.49 323.384 359.857 323.384 359.466 322.994L353.102 316.63C352.712 316.24 352.712 315.606 353.102 315.216C353.493 314.825 354.126 314.825 354.516 315.216L360.174 320.873L365.83 315.215C366.221 314.825 366.854 314.825 367.244 315.215C367.635 315.606 367.635 316.239 367.244 316.63L360.881 322.994ZM419.173 255.27L360.171 255.273L360.171 253.273L419.173 253.27L419.173 255.27ZM361.171 254.273L361.174 322.287L359.174 322.287L359.171 254.273L361.171 254.273Z" fill="white"/>
<path d="M260 426.999L261 426.999L261 425.999L260 425.999L260 426.999ZM259.301 482.709C259.691 483.1 260.324 483.1 260.715 482.709L267.078 476.344C267.468 475.954 267.468 475.321 267.078 474.93C266.687 474.54 266.054 474.54 265.664 474.93L260.007 480.588L254.35 474.932C253.959 474.541 253.326 474.541 252.936 474.932C252.545 475.323 252.545 475.956 252.936 476.346L259.301 482.709ZM230.008 426.999L229.008 426.999L229.008 427.999L230.008 427.999L230.008 426.999ZM259 426.999L259.008 482.002L261.008 482.002L261 426.999L259 426.999ZM229.008 371.002L229.008 426.999L231.008 426.999L231.008 371.002L229.008 371.002ZM230.008 427.999L260 427.999L260 425.999L230.008 425.999L230.008 427.999Z" fill="white"/>
<line x1="291" y1="371" x2="291" y2="428" stroke="white" stroke-width="2"/>
<line x1="290" y1="427" x2="260" y2="427" stroke="white" stroke-width="2"/>
</svg>
