<svg width="40" height="14" viewBox="0 0 40 14" fill="none" xmlns="http://www.w3.org/2000/svg">
<path d="M5.02237 7.07129H3.32608V5.63867H4.63565C4.9462 5.63867 5.19815 5.56836 5.39151 5.42773C5.58487 5.28125 5.72843 5.08203 5.82218 4.83008C5.91593 4.57227 5.9628 4.26758 5.9628 3.91602C5.9628 3.63477 5.90714 3.37695 5.79581 3.14258C5.69034 2.9082 5.52921 2.7207 5.31241 2.58008C5.10147 2.43359 4.82315 2.36035 4.47745 2.36035C4.2255 2.36035 3.99698 2.42188 3.7919 2.54492C3.58683 2.66211 3.42569 2.83203 3.30851 3.05469C3.19132 3.27734 3.13272 3.54688 3.13272 3.86328H0.566319C0.566319 3.29492 0.668858 2.78809 0.873936 2.34277C1.08487 1.8916 1.37198 1.51074 1.73526 1.2002C2.09855 0.883789 2.51456 0.643555 2.98331 0.479492C3.45792 0.31543 3.95597 0.233398 4.47745 0.233398C5.09855 0.233398 5.65519 0.3125 6.14737 0.470703C6.63956 0.623047 7.06144 0.851562 7.413 1.15625C7.77042 1.46094 8.04288 1.8418 8.23038 2.29883C8.42374 2.75 8.52042 3.27441 8.52042 3.87207C8.52042 4.31152 8.43546 4.72461 8.26554 5.11133C8.09562 5.49805 7.85538 5.83789 7.54483 6.13086C7.23429 6.42383 6.86222 6.65527 6.42862 6.8252C6.00089 6.98926 5.53214 7.07129 5.02237 7.07129ZM3.32608 6.28906H5.02237C5.59659 6.28906 6.10929 6.3623 6.56046 6.50879C7.01163 6.65527 7.39542 6.86914 7.71183 7.15039C8.02823 7.43164 8.26847 7.78027 8.43253 8.19629C8.60245 8.60645 8.68741 9.07812 8.68741 9.61133C8.68741 10.209 8.58194 10.7422 8.37101 11.2109C8.16593 11.6738 7.87589 12.0664 7.50089 12.3887C7.12589 12.7109 6.68351 12.9541 6.17374 13.1182C5.66397 13.2822 5.09855 13.3643 4.47745 13.3643C3.99112 13.3643 3.5048 13.2939 3.01847 13.1533C2.538 13.0068 2.10147 12.7842 1.7089 12.4854C1.31632 12.1865 1.00284 11.8027 0.768467 11.334C0.534092 10.8652 0.416904 10.3027 0.416904 9.64648H2.9921C2.9921 9.93945 3.05655 10.209 3.18546 10.4551C3.31437 10.6953 3.49015 10.8887 3.7128 11.0352C3.93546 11.1758 4.19034 11.2461 4.47745 11.2461C4.82901 11.2461 5.12491 11.1729 5.36515 11.0264C5.61124 10.8799 5.79874 10.6807 5.92765 10.4287C6.05655 10.1709 6.12101 9.88672 6.12101 9.57617C6.12101 9.23633 6.08878 8.94922 6.02433 8.71484C5.96573 8.47461 5.87198 8.28125 5.74308 8.13477C5.61417 7.98242 5.45597 7.87109 5.26847 7.80078C5.08683 7.73047 4.87589 7.69531 4.63565 7.69531H3.32608V6.28906ZM14.8837 7.61621H12.2558L12.247 5.75293H14.4794C14.831 5.75293 15.1181 5.69434 15.3407 5.57715C15.5692 5.4541 15.7362 5.27539 15.8417 5.04102C15.953 4.80078 16.0087 4.51074 16.0087 4.1709C16.0087 3.77832 15.956 3.46484 15.8505 3.23047C15.7509 2.99023 15.5898 2.81445 15.3671 2.70312C15.1503 2.5918 14.8632 2.53613 14.5058 2.53613H13.1347V13.1973H10.5595V0.400391H14.5058C15.1386 0.400391 15.7069 0.470703 16.2108 0.611328C16.7148 0.751953 17.1425 0.96875 17.4941 1.26172C17.8456 1.54883 18.1151 1.91211 18.3026 2.35156C18.4901 2.78516 18.5839 3.30078 18.5839 3.89844C18.5839 4.42578 18.4784 4.91211 18.2675 5.35742C18.0566 5.80273 17.7255 6.16895 17.2743 6.45605C16.8232 6.7373 16.2401 6.89258 15.5253 6.92188L14.8837 7.61621ZM14.787 13.1973H11.5263L12.5546 11.0703H14.787C15.1327 11.0703 15.4081 10.9971 15.6132 10.8506C15.8183 10.7041 15.9677 10.5078 16.0614 10.2617C16.161 10.0098 16.2108 9.72266 16.2108 9.40039C16.2108 9.03711 16.1669 8.7207 16.079 8.45117C15.997 8.18164 15.8593 7.97656 15.6659 7.83594C15.4726 7.68945 15.2118 7.61621 14.8837 7.61621H12.6689L12.6864 5.75293H15.3759L15.9823 6.49121C16.6679 6.46777 17.2157 6.59961 17.6259 6.88672C18.036 7.16797 18.329 7.53711 18.5048 7.99414C18.6864 8.44531 18.7773 8.92578 18.7773 9.43555C18.7773 10.2559 18.622 10.9473 18.3114 11.5098C18.0067 12.0664 17.5585 12.4883 16.9667 12.7754C16.3749 13.0566 15.6483 13.1973 14.787 13.1973ZM23.8573 8.53027L26.3183 0.400391H29.078L25.5624 10.6924C25.4218 11.0498 25.2665 11.3926 25.0966 11.7207C24.9325 12.043 24.7362 12.3301 24.5077 12.582C24.2792 12.834 24.0038 13.0303 23.6816 13.1709C23.3593 13.3115 22.9755 13.3818 22.5302 13.3818C22.4247 13.3818 22.29 13.3789 22.1259 13.373C21.9677 13.3672 21.8388 13.3613 21.7392 13.3555L21.6952 11.2197C21.7538 11.2314 21.8505 11.2402 21.9853 11.2461C22.12 11.252 22.2138 11.2549 22.2665 11.2549C22.5419 11.2549 22.7499 11.208 22.8905 11.1143C23.037 11.0146 23.1483 10.874 23.2245 10.6924C23.3066 10.5107 23.3769 10.2969 23.4355 10.0508L23.8573 8.53027ZM22.662 0.400391L24.745 6.5791L25.5185 9.62891L23.6112 9.65527L19.911 0.400391H22.662ZM33.0507 0.400391V13.1973H30.4755V0.400391H33.0507ZM39.2821 0.400391L35.3007 7.9502H32.4618L32.1103 5.51562H33.9208L36.1796 0.400391H39.2821ZM36.5839 13.1973L33.9648 7.50195L35.7314 5.56836L39.6337 13.1973H36.5839Z" fill="#4F4F4F"/>
</svg>
