<svg width="44" height="14" viewBox="0 0 44 14" fill="none" xmlns="http://www.w3.org/2000/svg">
<path d="M7.56575 8.37598H4.9554L4.06771 8.00684C3.20052 7.67871 2.53548 7.19824 2.07259 6.56543C1.6097 5.93262 1.37825 5.12109 1.37825 4.13086C1.37825 3.27539 1.54232 2.55469 1.87044 1.96875C2.19857 1.38281 2.66732 0.94043 3.27669 0.641602C3.88607 0.342773 4.60677 0.193359 5.4388 0.193359H9.30599V12.9902H6.73079V2.3291H5.4388C4.91732 2.3291 4.53646 2.50488 4.29622 2.85645C4.05599 3.20215 3.93587 3.69727 3.93587 4.3418C3.93587 4.81641 3.99446 5.20312 4.11165 5.50195C4.22884 5.80078 4.40169 6.02344 4.63021 6.16992C4.86458 6.31055 5.16341 6.38086 5.52669 6.38086H7.55696L7.56575 8.37598ZM5.79915 7.29492L3.45247 12.9902H0.683918L3.0306 7.29492H5.79915ZM15.5374 6.86426H13.8411V5.43164H15.1507C15.4613 5.43164 15.7132 5.36133 15.9066 5.2207C16.0999 5.07422 16.2435 4.875 16.3372 4.62305C16.431 4.36523 16.4779 4.06055 16.4779 3.70898C16.4779 3.42773 16.4222 3.16992 16.3109 2.93555C16.2054 2.70117 16.0443 2.51367 15.8275 2.37305C15.6165 2.22656 15.3382 2.15332 14.9925 2.15332C14.7406 2.15332 14.512 2.21484 14.307 2.33789C14.1019 2.45508 13.9408 2.625 13.8236 2.84766C13.7064 3.07031 13.6478 3.33984 13.6478 3.65625H11.0814C11.0814 3.08789 11.1839 2.58105 11.389 2.13574C11.5999 1.68457 11.887 1.30371 12.2503 0.993164C12.6136 0.676758 13.0296 0.436523 13.4984 0.272461C13.973 0.108398 14.471 0.0263672 14.9925 0.0263672C15.6136 0.0263672 16.1702 0.105469 16.6624 0.263672C17.1546 0.416016 17.5765 0.644531 17.9281 0.949219C18.2855 1.25391 18.5579 1.63477 18.7454 2.0918C18.9388 2.54297 19.0355 3.06738 19.0355 3.66504C19.0355 4.10449 18.9505 4.51758 18.7806 4.9043C18.6107 5.29102 18.3704 5.63086 18.0599 5.92383C17.7493 6.2168 17.3773 6.44824 16.9437 6.61816C16.5159 6.78223 16.0472 6.86426 15.5374 6.86426ZM13.8411 6.08203H15.5374C16.1117 6.08203 16.6243 6.15527 17.0755 6.30176C17.5267 6.44824 17.9105 6.66211 18.2269 6.94336C18.5433 7.22461 18.7835 7.57324 18.9476 7.98926C19.1175 8.39941 19.2025 8.87109 19.2025 9.4043C19.2025 10.002 19.097 10.5352 18.8861 11.0039C18.681 11.4668 18.3909 11.8594 18.0159 12.1816C17.6409 12.5039 17.1986 12.7471 16.6888 12.9111C16.179 13.0752 15.6136 13.1572 14.9925 13.1572C14.5062 13.1572 14.0199 13.0869 13.5335 12.9463C13.0531 12.7998 12.6165 12.5771 12.224 12.2783C11.8314 11.9795 11.5179 11.5957 11.2835 11.127C11.0492 10.6582 10.932 10.0957 10.932 9.43945H13.5072C13.5072 9.73242 13.5716 10.002 13.7005 10.248C13.8294 10.4883 14.0052 10.6816 14.2279 10.8281C14.4505 10.9688 14.7054 11.0391 14.9925 11.0391C15.3441 11.0391 15.64 10.9658 15.8802 10.8193C16.1263 10.6729 16.3138 10.4736 16.4427 10.2217C16.5716 9.96387 16.6361 9.67969 16.6361 9.36914C16.6361 9.0293 16.6038 8.74219 16.5394 8.50781C16.4808 8.26758 16.387 8.07422 16.2581 7.92773C16.1292 7.77539 15.971 7.66406 15.7835 7.59375C15.6019 7.52344 15.3909 7.48828 15.1507 7.48828H13.8411V6.08203ZM22.8411 4.79883H25.2757C26.1253 4.79883 26.8636 4.96582 27.4906 5.2998C28.1234 5.63379 28.6068 6.10547 28.9408 6.71484C29.2806 7.32422 29.4505 8.03613 29.4505 8.85059C29.4505 9.46582 29.3538 10.0254 29.1605 10.5293C28.9671 11.0332 28.6888 11.4697 28.3255 11.8389C27.9622 12.208 27.5199 12.4922 26.9984 12.6914C26.4827 12.8906 25.9085 12.9902 25.2757 12.9902H21.1097V0.193359H23.6849V10.8633H25.2757C25.6331 10.8633 25.932 10.7725 26.1722 10.5908C26.4124 10.4033 26.5911 10.1572 26.7083 9.85254C26.8314 9.54199 26.8929 9.20215 26.8929 8.83301C26.8929 8.47559 26.8314 8.15332 26.7083 7.86621C26.5911 7.5791 26.4124 7.35352 26.1722 7.18945C25.932 7.01953 25.6331 6.93457 25.2757 6.93457H22.8411V4.79883ZM32.6937 0.193359V12.9902H30.1361V0.193359H32.6937ZM37.3783 0.193359V12.9902H34.8031V0.193359H37.3783ZM43.6097 0.193359L39.6283 7.74316H36.7894L36.4378 5.30859H38.2484L40.5072 0.193359H43.6097ZM40.9115 12.9902L38.2923 7.29492L40.0589 5.36133L43.9613 12.9902H40.9115Z" fill="#4F4F4F"/>
</svg>
