<svg width="230" height="25" viewBox="0 0 230 25" fill="none" xmlns="http://www.w3.org/2000/svg">
<path d="M12.8281 10.4688V14.25H3.5V10.4688H12.8281ZM4.79688 1.25V24H0.21875V1.25H4.79688ZM16.1406 1.25V24H11.6094V1.25H16.1406ZM28.3906 5.3125L23.5 24H18.6719L25.7812 1.25H28.7969L28.3906 5.3125ZM32.25 24L27.3281 5.3125L26.875 1.25H29.9375L37.1094 24H32.25ZM32.4219 15.5156V19.3125H22.1562V15.5156H32.4219ZM46.75 13.1094H43.7344V10.5625H46.0625C46.6146 10.5625 47.0625 10.4375 47.4062 10.1875C47.75 9.92708 48.0052 9.57292 48.1719 9.125C48.3385 8.66667 48.4219 8.125 48.4219 7.5C48.4219 7 48.3229 6.54167 48.125 6.125C47.9375 5.70833 47.651 5.375 47.2656 5.125C46.8906 4.86458 46.3958 4.73438 45.7812 4.73438C45.3333 4.73438 44.9271 4.84375 44.5625 5.0625C44.1979 5.27083 43.9115 5.57292 43.7031 5.96875C43.4948 6.36458 43.3906 6.84375 43.3906 7.40625H38.8281C38.8281 6.39583 39.0104 5.49479 39.375 4.70312C39.75 3.90104 40.2604 3.22396 40.9062 2.67188C41.5521 2.10938 42.2917 1.68229 43.125 1.39062C43.9688 1.09896 44.8542 0.953125 45.7812 0.953125C46.8854 0.953125 47.875 1.09375 48.75 1.375C49.625 1.64583 50.375 2.05208 51 2.59375C51.6354 3.13542 52.1198 3.8125 52.4531 4.625C52.7969 5.42708 52.9688 6.35938 52.9688 7.42188C52.9688 8.20312 52.8177 8.9375 52.5156 9.625C52.2135 10.3125 51.7865 10.9167 51.2344 11.4375C50.6823 11.9583 50.0208 12.3698 49.25 12.6719C48.4896 12.9635 47.6562 13.1094 46.75 13.1094ZM43.7344 11.7188H46.75C47.7708 11.7188 48.6823 11.849 49.4844 12.1094C50.2865 12.3698 50.9688 12.75 51.5312 13.25C52.0938 13.75 52.5208 14.3698 52.8125 15.1094C53.1146 15.8385 53.2656 16.6771 53.2656 17.625C53.2656 18.6875 53.0781 19.6354 52.7031 20.4688C52.3385 21.2917 51.8229 21.9896 51.1562 22.5625C50.4896 23.1354 49.7031 23.5677 48.7969 23.8594C47.8906 24.151 46.8854 24.2969 45.7812 24.2969C44.9167 24.2969 44.0521 24.1719 43.1875 23.9219C42.3333 23.6615 41.5573 23.2656 40.8594 22.7344C40.1615 22.2031 39.6042 21.5208 39.1875 20.6875C38.7708 19.8542 38.5625 18.8542 38.5625 17.6875H43.1406C43.1406 18.2083 43.2552 18.6875 43.4844 19.125C43.7135 19.5521 44.026 19.8958 44.4219 20.1562C44.8177 20.4062 45.2708 20.5312 45.7812 20.5312C46.4062 20.5312 46.9323 20.401 47.3594 20.1406C47.7969 19.8802 48.1302 19.526 48.3594 19.0781C48.5885 18.6198 48.7031 18.1146 48.7031 17.5625C48.7031 16.9583 48.6458 16.4479 48.5312 16.0312C48.4271 15.6042 48.2604 15.2604 48.0312 15C47.8021 14.7292 47.5208 14.5312 47.1875 14.4062C46.8646 14.2812 46.4896 14.2188 46.0625 14.2188H43.7344V11.7188ZM64.2812 14.0781H59.6094L59.5938 10.7656H63.5625C64.1875 10.7656 64.6979 10.6615 65.0938 10.4531C65.5 10.2344 65.7969 9.91667 65.9844 9.5C66.1823 9.07292 66.2812 8.55729 66.2812 7.95312C66.2812 7.25521 66.1875 6.69792 66 6.28125C65.8229 5.85417 65.5365 5.54167 65.1406 5.34375C64.7552 5.14583 64.2448 5.04688 63.6094 5.04688H61.1719V24H56.5938V1.25H63.6094C64.7344 1.25 65.7448 1.375 66.6406 1.625C67.5365 1.875 68.2969 2.26042 68.9219 2.78125C69.5469 3.29167 70.026 3.9375 70.3594 4.71875C70.6927 5.48958 70.8594 6.40625 70.8594 7.46875C70.8594 8.40625 70.6719 9.27083 70.2969 10.0625C69.9219 10.8542 69.3333 11.5052 68.5312 12.0156C67.7292 12.5156 66.6927 12.7917 65.4219 12.8438L64.2812 14.0781ZM64.1094 24H58.3125L60.1406 20.2188H64.1094C64.724 20.2188 65.2135 20.0885 65.5781 19.8281C65.9427 19.5677 66.2083 19.2188 66.375 18.7812C66.5521 18.3333 66.6406 17.8229 66.6406 17.25C66.6406 16.6042 66.5625 16.0417 66.4062 15.5625C66.2604 15.0833 66.0156 14.7188 65.6719 14.4688C65.3281 14.2083 64.8646 14.0781 64.2812 14.0781H60.3438L60.375 10.7656H65.1562L66.2344 12.0781C67.4531 12.0365 68.4271 12.2708 69.1562 12.7812C69.8854 13.2812 70.4062 13.9375 70.7188 14.75C71.0417 15.5521 71.2031 16.4062 71.2031 17.3125C71.2031 18.7708 70.9271 20 70.375 21C69.8333 21.9896 69.0365 22.7396 67.9844 23.25C66.9323 23.75 65.6406 24 64.1094 24ZM82.7969 5.3125L77.9062 24H73.0781L80.1875 1.25H83.2031L82.7969 5.3125ZM86.6562 24L81.7344 5.3125L81.2812 1.25H84.3438L91.5156 24H86.6562ZM86.8281 15.5156V19.3125H76.5625V15.5156H86.8281ZM106.297 10.4688V14.25H96.9688V10.4688H106.297ZM98.2656 1.25V24H93.6875V1.25H98.2656ZM109.609 1.25V24H105.078V1.25H109.609ZM117.625 15.6406L124.734 1.25H129.078V24H124.656V9.78125L117.609 24H113.188V1.25H117.625V15.6406ZM145.797 20.2188V24H135.906V20.2188H145.797ZM137.328 1.25V24H132.75V1.25H137.328ZM144.469 10.4688V14.1406H135.906V10.4688H144.469ZM145.766 1.25V5.04688H135.906V1.25H145.766ZM160.125 15.6406L167.234 1.25H171.578V24H167.156V9.78125L160.109 24H155.688V1.25H160.125V15.6406ZM188.047 1.25V5.04688H179.859V24H175.297V1.25H188.047ZM198.656 15.9844H194V12.1875H198.656C199.312 12.1875 199.844 12.0417 200.25 11.75C200.656 11.4583 200.953 11.0573 201.141 10.5469C201.328 10.026 201.422 9.44271 201.422 8.79688C201.422 8.14062 201.328 7.52604 201.141 6.95312C200.953 6.38021 200.656 5.92188 200.25 5.57812C199.844 5.22396 199.312 5.04688 198.656 5.04688H195.484V24H190.906V1.25H198.656C200.188 1.25 201.5 1.57292 202.594 2.21875C203.698 2.86458 204.547 3.75521 205.141 4.89062C205.734 6.01562 206.031 7.30729 206.031 8.76562C206.031 10.2344 205.734 11.5104 205.141 12.5938C204.547 13.6667 203.698 14.5 202.594 15.0938C201.5 15.6875 200.188 15.9844 198.656 15.9844ZM212.234 9.4375H216.562C218.073 9.4375 219.385 9.73438 220.5 10.3281C221.625 10.9219 222.484 11.7604 223.078 12.8438C223.682 13.9271 223.984 15.1927 223.984 16.6406C223.984 17.7344 223.812 18.7292 223.469 19.625C223.125 20.5208 222.63 21.2969 221.984 21.9531C221.339 22.6094 220.552 23.1146 219.625 23.4688C218.708 23.8229 217.688 24 216.562 24H209.156V1.25H213.734V20.2188H216.562C217.198 20.2188 217.729 20.0573 218.156 19.7344C218.583 19.401 218.901 18.9635 219.109 18.4219C219.328 17.8698 219.438 17.2656 219.438 16.6094C219.438 15.974 219.328 15.401 219.109 14.8906C218.901 14.3802 218.583 13.9792 218.156 13.6875C217.729 13.3854 217.198 13.2344 216.562 13.2344H212.234V9.4375ZM229.75 1.25V24H225.203V1.25H229.75Z" fill="#535353"/>
</svg>
