<svg width="133" height="38" viewBox="0 0 133 38" fill="none" xmlns="http://www.w3.org/2000/svg">
<path d="M14.0596 1.37988V37H7.19922V9.77832L0.412109 12.3906V6.67773L13.3027 1.37988H14.0596ZM44.7969 16.1016V22.2783C44.7969 24.9476 44.5446 27.2425 44.04 29.1631C43.5355 31.0837 42.8275 32.6624 41.916 33.8994C41.0046 35.1201 39.9222 36.0234 38.6689 36.6094C37.4157 37.1953 36.0322 37.4883 34.5186 37.4883C33.3141 37.4883 32.1829 37.3011 31.125 36.9268C30.0671 36.5524 29.1068 35.9827 28.2441 35.2178C27.3978 34.4365 26.6654 33.4518 26.0469 32.2637C25.4447 31.0592 24.9808 29.6351 24.6553 27.9912C24.3298 26.3311 24.167 24.4268 24.167 22.2783V16.1016C24.167 13.4323 24.4193 11.1455 24.9238 9.24121C25.4447 7.32064 26.1608 5.75 27.0723 4.5293C27.9837 3.30859 29.0661 2.41341 30.3193 1.84375C31.5889 1.25781 32.9805 0.964844 34.4941 0.964844C35.6823 0.964844 36.8053 1.15202 37.8633 1.52637C38.9212 1.88444 39.8734 2.44596 40.7197 3.21094C41.5661 3.97591 42.2904 4.96061 42.8926 6.16504C43.5111 7.35319 43.9831 8.77734 44.3086 10.4375C44.6341 12.0814 44.7969 13.9694 44.7969 16.1016ZM37.9365 23.2305V15.1006C37.9365 13.8473 37.8796 12.7487 37.7656 11.8047C37.668 10.8607 37.5215 10.0632 37.3262 9.41211C37.1471 8.76107 36.9111 8.2321 36.6182 7.8252C36.3415 7.41829 36.0241 7.12533 35.666 6.94629C35.3079 6.75098 34.9173 6.65332 34.4941 6.65332C33.957 6.65332 33.4769 6.7998 33.0537 7.09277C32.6305 7.38574 32.2643 7.86589 31.9551 8.5332C31.6458 9.18424 31.4098 10.055 31.2471 11.1455C31.1006 12.2197 31.0273 13.5381 31.0273 15.1006V23.2305C31.0273 24.4837 31.0762 25.5905 31.1738 26.5508C31.2878 27.5111 31.4424 28.333 31.6377 29.0166C31.8493 29.6839 32.0853 30.221 32.3457 30.6279C32.6224 31.0348 32.9398 31.3359 33.2979 31.5312C33.6722 31.7103 34.0791 31.7998 34.5186 31.7998C35.0394 31.7998 35.5114 31.6533 35.9346 31.3604C36.374 31.0511 36.7402 30.5628 37.0332 29.8955C37.3262 29.2282 37.5459 28.3493 37.6924 27.2588C37.8551 26.152 37.9365 24.8092 37.9365 23.2305ZM61.8135 33.5088C61.8135 32.4346 62.1715 31.5394 62.8877 30.8232C63.6038 30.0908 64.5723 29.7246 65.793 29.7246C67.0137 29.7246 67.9821 30.0908 68.6982 30.8232C69.4144 31.5394 69.7725 32.4346 69.7725 33.5088C69.7725 34.583 69.4144 35.4782 68.6982 36.1943C67.9821 36.9105 67.0137 37.2686 65.793 37.2686C64.5723 37.2686 63.6038 36.9105 62.8877 36.1943C62.1715 35.4782 61.8135 34.583 61.8135 33.5088ZM61.7646 13.4893C61.7646 12.415 62.1227 11.5199 62.8389 10.8037C63.555 10.0713 64.5234 9.70508 65.7441 9.70508C66.9648 9.70508 67.9333 10.0713 68.6494 10.8037C69.3656 11.5199 69.7236 12.415 69.7236 13.4893C69.7236 14.5635 69.3656 15.4587 68.6494 16.1748C67.9333 16.891 66.9648 17.249 65.7441 17.249C64.5234 17.249 63.555 16.891 62.8389 16.1748C62.1227 15.4587 61.7646 14.5635 61.7646 13.4893ZM106.809 16.1016V22.2783C106.809 24.9476 106.556 27.2425 106.052 29.1631C105.547 31.0837 104.839 32.6624 103.928 33.8994C103.016 35.1201 101.934 36.0234 100.681 36.6094C99.4274 37.1953 98.0439 37.4883 96.5303 37.4883C95.3258 37.4883 94.1947 37.3011 93.1367 36.9268C92.0788 36.5524 91.1185 35.9827 90.2559 35.2178C89.4095 34.4365 88.6771 33.4518 88.0586 32.2637C87.4564 31.0592 86.9925 29.6351 86.667 27.9912C86.3415 26.3311 86.1787 24.4268 86.1787 22.2783V16.1016C86.1787 13.4323 86.431 11.1455 86.9355 9.24121C87.4564 7.32064 88.1725 5.75 89.084 4.5293C89.9954 3.30859 91.0778 2.41341 92.3311 1.84375C93.6006 1.25781 94.9922 0.964844 96.5059 0.964844C97.694 0.964844 98.8171 1.15202 99.875 1.52637C100.933 1.88444 101.885 2.44596 102.731 3.21094C103.578 3.97591 104.302 4.96061 104.904 6.16504C105.523 7.35319 105.995 8.77734 106.32 10.4375C106.646 12.0814 106.809 13.9694 106.809 16.1016ZM99.9482 23.2305V15.1006C99.9482 13.8473 99.8913 12.7487 99.7773 11.8047C99.6797 10.8607 99.5332 10.0632 99.3379 9.41211C99.1589 8.76107 98.9229 8.2321 98.6299 7.8252C98.3532 7.41829 98.0358 7.12533 97.6777 6.94629C97.3197 6.75098 96.929 6.65332 96.5059 6.65332C95.9688 6.65332 95.4886 6.7998 95.0654 7.09277C94.6423 7.38574 94.276 7.86589 93.9668 8.5332C93.6576 9.18424 93.4215 10.055 93.2588 11.1455C93.1123 12.2197 93.0391 13.5381 93.0391 15.1006V23.2305C93.0391 24.4837 93.0879 25.5905 93.1855 26.5508C93.2995 27.5111 93.4541 28.333 93.6494 29.0166C93.861 29.6839 94.097 30.221 94.3574 30.6279C94.6341 31.0348 94.9515 31.3359 95.3096 31.5312C95.6839 31.7103 96.0908 31.7998 96.5303 31.7998C97.0511 31.7998 97.5231 31.6533 97.9463 31.3604C98.3857 31.0511 98.752 30.5628 99.0449 29.8955C99.3379 29.2282 99.5576 28.3493 99.7041 27.2588C99.8669 26.152 99.9482 24.8092 99.9482 23.2305ZM132.102 16.1016V22.2783C132.102 24.9476 131.849 27.2425 131.345 29.1631C130.84 31.0837 130.132 32.6624 129.221 33.8994C128.309 35.1201 127.227 36.0234 125.974 36.6094C124.72 37.1953 123.337 37.4883 121.823 37.4883C120.619 37.4883 119.488 37.3011 118.43 36.9268C117.372 36.5524 116.411 35.9827 115.549 35.2178C114.702 34.4365 113.97 33.4518 113.352 32.2637C112.749 31.0592 112.285 29.6351 111.96 27.9912C111.634 26.3311 111.472 24.4268 111.472 22.2783V16.1016C111.472 13.4323 111.724 11.1455 112.229 9.24121C112.749 7.32064 113.465 5.75 114.377 4.5293C115.288 3.30859 116.371 2.41341 117.624 1.84375C118.894 1.25781 120.285 0.964844 121.799 0.964844C122.987 0.964844 124.11 1.15202 125.168 1.52637C126.226 1.88444 127.178 2.44596 128.024 3.21094C128.871 3.97591 129.595 4.96061 130.197 6.16504C130.816 7.35319 131.288 8.77734 131.613 10.4375C131.939 12.0814 132.102 13.9694 132.102 16.1016ZM125.241 23.2305V15.1006C125.241 13.8473 125.184 12.7487 125.07 11.8047C124.973 10.8607 124.826 10.0632 124.631 9.41211C124.452 8.76107 124.216 8.2321 123.923 7.8252C123.646 7.41829 123.329 7.12533 122.971 6.94629C122.613 6.75098 122.222 6.65332 121.799 6.65332C121.262 6.65332 120.782 6.7998 120.358 7.09277C119.935 7.38574 119.569 7.86589 119.26 8.5332C118.951 9.18424 118.715 10.055 118.552 11.1455C118.405 12.2197 118.332 13.5381 118.332 15.1006V23.2305C118.332 24.4837 118.381 25.5905 118.479 26.5508C118.592 27.5111 118.747 28.333 118.942 29.0166C119.154 29.6839 119.39 30.221 119.65 30.6279C119.927 31.0348 120.244 31.3359 120.603 31.5312C120.977 31.7103 121.384 31.7998 121.823 31.7998C122.344 31.7998 122.816 31.6533 123.239 31.3604C123.679 31.0511 124.045 30.5628 124.338 29.8955C124.631 29.2282 124.851 28.3493 124.997 27.2588C125.16 26.152 125.241 24.8092 125.241 23.2305Z" fill="#535353"/>
</svg>
