<svg width="125" height="47" viewBox="0 0 125 47" fill="none" xmlns="http://www.w3.org/2000/svg">
<rect width="124.701" height="46.844" fill="#828282"/>
<path d="M35.6417 15.7246H38.4025L41.5929 26.4238L44.7726 15.7246H47.2111L42.7638 31.3652H40.4113L35.6417 15.7246ZM34.5245 15.7246H37.1564L37.5646 26.0371V31.3652H34.5245V15.7246ZM46.0079 15.7246H48.6505V31.3652H45.6212V26.0371L46.0079 15.7246ZM60.1876 28.7656V31.3652H53.3878V28.7656H60.1876ZM54.3654 15.7246V31.3652H51.2179V15.7246H54.3654ZM59.2745 22.0625V24.5869H53.3878V22.0625H59.2745ZM60.1661 15.7246V18.335H53.3878V15.7246H60.1661ZM70.6935 22.0625V24.6621H64.2804V22.0625H70.6935ZM65.172 15.7246V31.3652H62.0245V15.7246H65.172ZM72.9708 15.7246V31.3652H69.8556V15.7246H72.9708ZM78.7394 15.7246V31.3652H75.6027V15.7246H78.7394ZM81.1349 22.6318V25.124H77.4718V22.6318H81.1349ZM91.254 22.3311V24.9414C91.254 26.0443 91.118 27.0111 90.8458 27.8418C90.5808 28.6654 90.2013 29.3564 89.7071 29.915C89.2202 30.4665 88.6294 30.8818 87.9347 31.1611C87.2472 31.4404 86.4809 31.5801 85.6359 31.5801C84.8051 31.5801 84.0424 31.4404 83.3478 31.1611C82.6603 30.8818 82.0659 30.4665 81.5646 29.915C81.0633 29.3564 80.6766 28.6654 80.4044 27.8418C80.1394 27.0111 80.007 26.0443 80.007 24.9414V22.3311C80.007 21.1995 80.1394 20.2113 80.4044 19.3662C80.6694 18.514 81.0525 17.805 81.5538 17.2393C82.0551 16.6663 82.6495 16.2367 83.337 15.9502C84.0245 15.6566 84.7836 15.5098 85.6144 15.5098C86.4594 15.5098 87.2257 15.6566 87.9132 15.9502C88.6007 16.2367 89.1951 16.6663 89.6964 17.2393C90.1977 17.805 90.5808 18.514 90.8458 19.3662C91.118 20.2113 91.254 21.1995 91.254 22.3311ZM88.128 24.9414V22.3096C88.128 21.5648 88.0708 20.931 87.9562 20.4082C87.8488 19.8783 87.6876 19.445 87.4728 19.1084C87.2651 18.7718 87.0037 18.5247 86.6886 18.3672C86.3807 18.2096 86.0226 18.1309 85.6144 18.1309C85.2133 18.1309 84.8553 18.2096 84.5402 18.3672C84.2322 18.5247 83.9708 18.7718 83.756 19.1084C83.5483 19.445 83.3907 19.8783 83.2833 20.4082C83.1831 20.931 83.1329 21.5648 83.1329 22.3096V24.9414C83.1329 25.6576 83.1866 26.2699 83.2941 26.7783C83.4015 27.2868 83.5626 27.7021 83.7775 28.0244C83.9923 28.3467 84.2537 28.5866 84.5616 28.7441C84.8767 28.8945 85.2348 28.9697 85.6359 28.9697C86.0441 28.9697 86.4021 28.8945 86.7101 28.7441C87.0252 28.5866 87.2866 28.3467 87.4943 28.0244C87.7019 27.7021 87.8595 27.2868 87.9669 26.7783C88.0743 26.2699 88.128 25.6576 88.128 24.9414Z" fill="#F2F2F2"/>
</svg>
