<svg width="97" height="26" viewBox="0 0 97 26" fill="none" xmlns="http://www.w3.org/2000/svg">
<path d="M14.2869 0.902344V20.8086H10.2947V4.22461H4.37481V20.8086H0.36895V0.902344H14.2869ZM31.5545 9.31055V12.6328C31.5545 14.0365 31.3813 15.2669 31.035 16.3242C30.6977 17.3724 30.2147 18.252 29.5857 18.9629C28.966 19.6647 28.214 20.1934 27.3299 20.5488C26.4549 20.9043 25.4842 21.082 24.4178 21.082C23.3514 21.082 22.3761 20.9043 21.492 20.5488C20.617 20.1934 19.8605 19.6647 19.2225 18.9629C18.5936 18.252 18.1059 17.3724 17.7596 16.3242C17.4132 15.2669 17.24 14.0365 17.24 12.6328V9.31055C17.24 7.87044 17.4087 6.61263 17.7459 5.53711C18.0831 4.45247 18.5708 3.55013 19.2088 2.83008C19.8468 2.10091 20.6033 1.55404 21.4783 1.18945C22.3533 0.815755 23.324 0.628906 24.3904 0.628906C25.4568 0.628906 26.4275 0.815755 27.3025 1.18945C28.1775 1.55404 28.9341 2.10091 29.5721 2.83008C30.2101 3.55013 30.6977 4.45247 31.035 5.53711C31.3813 6.61263 31.5545 7.87044 31.5545 9.31055ZM27.576 12.6328V9.2832C27.576 8.33529 27.5076 7.52865 27.3709 6.86328C27.2342 6.1888 27.0291 5.63737 26.7557 5.20898C26.4822 4.7806 26.1495 4.46615 25.7576 4.26562C25.3657 4.0651 24.91 3.96484 24.3904 3.96484C23.8709 3.96484 23.4106 4.0651 23.0096 4.26562C22.6176 4.46615 22.285 4.7806 22.0115 5.20898C21.7472 5.63737 21.5467 6.1888 21.41 6.86328C21.2824 7.52865 21.2186 8.33529 21.2186 9.2832V12.6328C21.2186 13.5443 21.2869 14.3236 21.4236 14.9707C21.5604 15.6178 21.7654 16.1465 22.0389 16.5566C22.3123 16.9668 22.645 17.2721 23.0369 17.4727C23.438 17.6641 23.8982 17.7598 24.4178 17.7598C24.9282 17.7598 25.3794 17.6641 25.7713 17.4727C26.1723 17.2721 26.505 16.9668 26.7693 16.5566C27.0337 16.1465 27.2342 15.6178 27.3709 14.9707C27.5076 14.3236 27.576 13.5443 27.576 12.6328ZM45.5955 0.902344V4.22461H38.4451V20.8086H34.4529V0.902344H45.5955ZM37.1463 8.06641H40.9334C42.2641 8.06641 43.4171 8.32617 44.3924 8.8457C45.3676 9.36523 46.1196 10.099 46.6482 11.0469C47.186 11.9948 47.4549 13.1022 47.4549 14.3691C47.4549 15.3262 47.2999 16.1966 46.99 16.9805C46.6893 17.7643 46.2518 18.4434 45.6775 19.0176C45.1124 19.5918 44.4288 20.0339 43.6268 20.3438C42.8338 20.6536 41.936 20.8086 40.9334 20.8086H34.4529V0.902344H38.4588V17.5H40.9334C41.4985 17.5 41.9634 17.3587 42.3279 17.0762C42.7016 16.7845 42.9842 16.4017 43.1756 15.9277C43.367 15.4447 43.4627 14.916 43.4627 14.3418C43.4627 13.7858 43.367 13.2845 43.1756 12.8379C42.9842 12.3913 42.7016 12.0404 42.3279 11.7852C41.9634 11.5208 41.4985 11.3887 40.9334 11.3887H37.1463V8.06641ZM61.1678 17.5V20.8086H52.5135V17.5H61.1678ZM53.7576 0.902344V20.8086H49.7518V0.902344H53.7576ZM60.0057 8.96875V12.1816H52.5135V8.96875H60.0057ZM61.1404 0.902344V4.22461H52.5135V0.902344H61.1404ZM76.8904 17.5V20.8086H65.16V17.5H76.8904ZM66.2947 17.5V25.7031H62.535L62.3162 17.5H66.2947ZM79.7889 17.5L79.4334 25.7031H75.7693V17.5H79.7889ZM74.826 0.902344V4.22461H66.7869V0.902344H74.826ZM77.7107 0.902344V20.8086H73.7322V0.902344H77.7107ZM66.2947 0.902344H70.3006L69.8084 9.05078C69.7355 10.3997 69.6124 11.5892 69.4393 12.6191C69.2752 13.64 69.0701 14.5332 68.824 15.2988C68.587 16.0645 68.3227 16.7298 68.0311 17.2949C67.7394 17.86 67.4295 18.3522 67.1014 18.7715C66.7732 19.1908 66.436 19.5645 66.0897 19.8926C65.7433 20.2207 65.4015 20.526 65.0643 20.8086H62.8768V17.5H63.6561C63.8839 17.2812 64.1118 16.985 64.3397 16.6113C64.5675 16.2376 64.7772 15.7363 64.9686 15.1074C65.16 14.4694 65.3286 13.6582 65.4744 12.6738C65.6203 11.6895 65.7342 10.4818 65.8162 9.05078L66.2947 0.902344ZM89.3045 4.45703L85.0252 20.8086H80.8006L87.0213 0.902344H89.66L89.3045 4.45703ZM92.6814 20.8086L88.3748 4.45703L87.9783 0.902344H90.658L96.9334 20.8086H92.6814ZM92.8318 13.3848V16.707H83.8494V13.3848H92.8318Z" fill="#F2F2F2"/>
</svg>
