<svg width="143" height="15" viewBox="0 0 143 15" fill="none" xmlns="http://www.w3.org/2000/svg">
<path d="M4.26562 7.03906H1.92969L1.92188 5.38281H3.90625C4.21875 5.38281 4.47396 5.33073 4.67188 5.22656C4.875 5.11719 5.02344 4.95833 5.11719 4.75C5.21615 4.53646 5.26562 4.27865 5.26562 3.97656C5.26562 3.6276 5.21875 3.34896 5.125 3.14062C5.03646 2.92708 4.89323 2.77083 4.69531 2.67188C4.5026 2.57292 4.2474 2.52344 3.92969 2.52344H2.71094V12H0.421875V0.625H3.92969C4.49219 0.625 4.9974 0.6875 5.44531 0.8125C5.89323 0.9375 6.27344 1.13021 6.58594 1.39062C6.89844 1.64583 7.13802 1.96875 7.30469 2.35938C7.47135 2.74479 7.55469 3.20312 7.55469 3.73438C7.55469 4.20312 7.46094 4.63542 7.27344 5.03125C7.08594 5.42708 6.79167 5.7526 6.39062 6.00781C5.98958 6.25781 5.47135 6.39583 4.83594 6.42188L4.26562 7.03906ZM4.17969 12H1.28125L2.19531 10.1094H4.17969C4.48698 10.1094 4.73177 10.0443 4.91406 9.91406C5.09635 9.78385 5.22917 9.60938 5.3125 9.39062C5.40104 9.16667 5.44531 8.91146 5.44531 8.625C5.44531 8.30208 5.40625 8.02083 5.32812 7.78125C5.25521 7.54167 5.13281 7.35938 4.96094 7.23438C4.78906 7.10417 4.55729 7.03906 4.26562 7.03906H2.29688L2.3125 5.38281H4.70312L5.24219 6.03906C5.85156 6.01823 6.33854 6.13542 6.70312 6.39062C7.06771 6.64062 7.32812 6.96875 7.48438 7.375C7.64583 7.77604 7.72656 8.20312 7.72656 8.65625C7.72656 9.38542 7.58854 10 7.3125 10.5C7.04167 10.9948 6.64323 11.3698 6.11719 11.625C5.59115 11.875 4.94531 12 4.17969 12ZM10.9766 4.71875H13.1406C13.8958 4.71875 14.5521 4.86719 15.1094 5.16406C15.6719 5.46094 16.1016 5.88021 16.3984 6.42188C16.7005 6.96354 16.8516 7.59635 16.8516 8.32031C16.8516 8.86719 16.7656 9.36458 16.5938 9.8125C16.4219 10.2604 16.1745 10.6484 15.8516 10.9766C15.5286 11.3047 15.1354 11.5573 14.6719 11.7344C14.2135 11.9115 13.7031 12 13.1406 12H9.4375V0.625H11.7266V10.1094H13.1406C13.4583 10.1094 13.724 10.0286 13.9375 9.86719C14.151 9.70052 14.3099 9.48177 14.4141 9.21094C14.5234 8.9349 14.5781 8.63281 14.5781 8.30469C14.5781 7.98698 14.5234 7.70052 14.4141 7.44531C14.3099 7.1901 14.151 6.98958 13.9375 6.84375C13.724 6.69271 13.4583 6.61719 13.1406 6.61719H10.9766V4.71875ZM19.7344 0.625V12H17.4609V0.625H19.7344ZM27.9531 0.625V2.52344H23.8672V12H21.5859V0.625H27.9531ZM23.125 4.71875H25.2891C26.0495 4.71875 26.7083 4.86719 27.2656 5.16406C27.8229 5.46094 28.2526 5.88021 28.5547 6.42188C28.862 6.96354 29.0156 7.59635 29.0156 8.32031C29.0156 8.86719 28.9271 9.36458 28.75 9.8125C28.5781 10.2604 28.3281 10.6484 28 10.9766C27.6771 11.3047 27.2865 11.5573 26.8281 11.7344C26.375 11.9115 25.862 12 25.2891 12H21.5859V0.625H23.875V10.1094H25.2891C25.612 10.1094 25.8776 10.0286 26.0859 9.86719C26.2995 9.70052 26.4609 9.48177 26.5703 9.21094C26.6797 8.9349 26.7344 8.63281 26.7344 8.30469C26.7344 7.98698 26.6797 7.70052 26.5703 7.44531C26.4609 7.1901 26.2995 6.98958 26.0859 6.84375C25.8776 6.69271 25.612 6.61719 25.2891 6.61719H23.125V4.71875ZM36.8516 10.1094V12H31.9062V10.1094H36.8516ZM32.6172 0.625V12H30.3281V0.625H32.6172ZM36.1875 5.23438V7.07031H31.9062V5.23438H36.1875ZM36.8359 0.625V2.52344H31.9062V0.625H36.8359ZM42.0625 7.99219H39.7344V6.09375H42.0625C42.3906 6.09375 42.6562 6.02083 42.8594 5.875C43.0625 5.72917 43.2109 5.52865 43.3047 5.27344C43.3984 5.01302 43.4453 4.72135 43.4453 4.39844C43.4453 4.07031 43.3984 3.76302 43.3047 3.47656C43.2109 3.1901 43.0625 2.96094 42.8594 2.78906C42.6562 2.61198 42.3906 2.52344 42.0625 2.52344H40.4766V12H38.1875V0.625H42.0625C42.8281 0.625 43.4844 0.786458 44.0312 1.10938C44.5833 1.43229 45.0078 1.8776 45.3047 2.44531C45.6016 3.00781 45.75 3.65365 45.75 4.38281C45.75 5.11719 45.6016 5.75521 45.3047 6.29688C45.0078 6.83333 44.5833 7.25 44.0312 7.54688C43.4844 7.84375 42.8281 7.99219 42.0625 7.99219ZM49.4219 7.82031L52.9766 0.625H55.1484V12H52.9375V4.89062L49.4141 12H47.2031V0.625H49.4219V7.82031ZM67.125 5.36719V7.26562H63.125V5.36719H67.125ZM60.2344 8.21094H62.5078C62.5339 8.66406 62.6042 9.04427 62.7188 9.35156C62.8333 9.65885 63.0078 9.89062 63.2422 10.0469C63.4766 10.1979 63.7839 10.2734 64.1641 10.2734C64.4922 10.2734 64.7682 10.1979 64.9922 10.0469C65.2161 9.89062 65.3958 9.66406 65.5312 9.36719C65.6719 9.0651 65.7708 8.6901 65.8281 8.24219C65.8906 7.79427 65.9219 7.27604 65.9219 6.6875V5.9375C65.9219 5.45312 65.8984 5.02083 65.8516 4.64062C65.8099 4.25521 65.7422 3.91927 65.6484 3.63281C65.5547 3.34635 65.4349 3.11198 65.2891 2.92969C65.1484 2.74219 64.9818 2.60156 64.7891 2.50781C64.5964 2.41406 64.3776 2.36719 64.1328 2.36719C63.737 2.36719 63.4219 2.45052 63.1875 2.61719C62.9583 2.77865 62.7917 3.01823 62.6875 3.33594C62.5833 3.65365 62.5208 4.03646 62.5 4.48438H60.2188C60.2812 3.70833 60.4635 3.01823 60.7656 2.41406C61.0729 1.8099 61.5026 1.33594 62.0547 0.992188C62.612 0.643229 63.3047 0.46875 64.1328 0.46875C64.7526 0.46875 65.3099 0.596354 65.8047 0.851562C66.3047 1.10677 66.7344 1.47396 67.0938 1.95312C67.4531 2.42708 67.7266 3.0026 67.9141 3.67969C68.1016 4.35677 68.1953 5.11458 68.1953 5.95312V6.6875C68.1953 7.53646 68.1042 8.29948 67.9219 8.97656C67.7396 9.64844 67.474 10.2214 67.125 10.6953C66.776 11.1693 66.3516 11.5339 65.8516 11.7891C65.3516 12.0391 64.7891 12.1641 64.1641 12.1641C63.3516 12.1641 62.6615 11.9974 62.0938 11.6641C61.526 11.3255 61.0833 10.8594 60.7656 10.2656C60.4531 9.66667 60.276 8.98177 60.2344 8.21094ZM73.5781 7.03906H71.2422L71.2344 5.38281H73.2188C73.5312 5.38281 73.7865 5.33073 73.9844 5.22656C74.1875 5.11719 74.3359 4.95833 74.4297 4.75C74.5286 4.53646 74.5781 4.27865 74.5781 3.97656C74.5781 3.6276 74.5312 3.34896 74.4375 3.14062C74.349 2.92708 74.2057 2.77083 74.0078 2.67188C73.8151 2.57292 73.5599 2.52344 73.2422 2.52344H72.0234V12H69.7344V0.625H73.2422C73.8047 0.625 74.3099 0.6875 74.7578 0.8125C75.2057 0.9375 75.5859 1.13021 75.8984 1.39062C76.2109 1.64583 76.4505 1.96875 76.6172 2.35938C76.7839 2.74479 76.8672 3.20312 76.8672 3.73438C76.8672 4.20312 76.7734 4.63542 76.5859 5.03125C76.3984 5.42708 76.1042 5.7526 75.7031 6.00781C75.3021 6.25781 74.7839 6.39583 74.1484 6.42188L73.5781 7.03906ZM73.4922 12H70.5938L71.5078 10.1094H73.4922C73.7995 10.1094 74.0443 10.0443 74.2266 9.91406C74.4089 9.78385 74.5417 9.60938 74.625 9.39062C74.7135 9.16667 74.7578 8.91146 74.7578 8.625C74.7578 8.30208 74.7188 8.02083 74.6406 7.78125C74.5677 7.54167 74.4453 7.35938 74.2734 7.23438C74.1016 7.10417 73.8698 7.03906 73.5781 7.03906H71.6094L71.625 5.38281H74.0156L74.5547 6.03906C75.1641 6.01823 75.651 6.13542 76.0156 6.39062C76.3802 6.64062 76.6406 6.96875 76.7969 7.375C76.9583 7.77604 77.0391 8.20312 77.0391 8.65625C77.0391 9.38542 76.901 10 76.625 10.5C76.3542 10.9948 75.9557 11.3698 75.4297 11.625C74.9036 11.875 74.2578 12 73.4922 12ZM86.7109 5.42969V7.32812C86.7109 8.13021 86.612 8.83333 86.4141 9.4375C86.2214 10.0365 85.9453 10.5391 85.5859 10.9453C85.2318 11.3464 84.8021 11.6484 84.2969 11.8516C83.7969 12.0547 83.2422 12.1562 82.6328 12.1562C82.0234 12.1562 81.4661 12.0547 80.9609 11.8516C80.4609 11.6484 80.0286 11.3464 79.6641 10.9453C79.3047 10.5391 79.026 10.0365 78.8281 9.4375C78.6302 8.83333 78.5312 8.13021 78.5312 7.32812V5.42969C78.5312 4.60677 78.6276 3.88802 78.8203 3.27344C79.013 2.65365 79.2917 2.13802 79.6562 1.72656C80.0208 1.3099 80.4531 0.997396 80.9531 0.789062C81.4531 0.575521 82.0078 0.46875 82.6172 0.46875C83.2266 0.46875 83.7812 0.575521 84.2812 0.789062C84.7812 0.997396 85.2135 1.3099 85.5781 1.72656C85.9427 2.13802 86.2214 2.65365 86.4141 3.27344C86.612 3.88802 86.7109 4.60677 86.7109 5.42969ZM84.4375 7.32812V5.41406C84.4375 4.8724 84.3984 4.41146 84.3203 4.03125C84.2422 3.64583 84.125 3.33073 83.9688 3.08594C83.8125 2.84115 83.6224 2.66146 83.3984 2.54688C83.1745 2.43229 82.9141 2.375 82.6172 2.375C82.3203 2.375 82.0573 2.43229 81.8281 2.54688C81.6042 2.66146 81.4141 2.84115 81.2578 3.08594C81.1068 3.33073 80.9922 3.64583 80.9141 4.03125C80.8411 4.41146 80.8047 4.8724 80.8047 5.41406V7.32812C80.8047 7.84896 80.8438 8.29427 80.9219 8.66406C81 9.03385 81.1172 9.33594 81.2734 9.57031C81.4297 9.80469 81.6198 9.97917 81.8438 10.0938C82.0729 10.2031 82.3359 10.2578 82.6328 10.2578C82.9245 10.2578 83.1823 10.2031 83.4062 10.0938C83.6354 9.97917 83.8255 9.80469 83.9766 9.57031C84.1276 9.33594 84.2422 9.03385 84.3203 8.66406C84.3984 8.29427 84.4375 7.84896 84.4375 7.32812ZM94.4297 0.625V2.52344H89.7656V0.625H94.4297ZM96.0859 0.625V12H93.8125V0.625H96.0859ZM89.4844 0.625H91.75L91.5234 6.35938C91.4974 7.21875 91.4297 7.96354 91.3203 8.59375C91.2161 9.21875 91.0755 9.75 90.8984 10.1875C90.7266 10.6198 90.5104 10.9688 90.25 11.2344C89.9896 11.5 89.6849 11.6953 89.3359 11.8203C88.9922 11.9401 88.6068 12 88.1797 12H87.6406V10.1094L87.8984 10.0781C88.1016 10.0521 88.2812 9.98698 88.4375 9.88281C88.5938 9.77344 88.7266 9.61198 88.8359 9.39844C88.9453 9.17969 89.0339 8.90104 89.1016 8.5625C89.1745 8.21875 89.2292 7.80208 89.2656 7.3125C89.3073 6.82292 89.3359 6.2526 89.3516 5.60156L89.4844 0.625ZM100.281 0.625V12H98V0.625H100.281ZM102.023 5.64844V7.46094H99.3594V5.64844H102.023ZM109.383 5.42969V7.32812C109.383 8.13021 109.284 8.83333 109.086 9.4375C108.893 10.0365 108.617 10.5391 108.258 10.9453C107.904 11.3464 107.474 11.6484 106.969 11.8516C106.469 12.0547 105.911 12.1562 105.297 12.1562C104.693 12.1562 104.138 12.0547 103.633 11.8516C103.133 11.6484 102.701 11.3464 102.336 10.9453C101.971 10.5391 101.69 10.0365 101.492 9.4375C101.299 8.83333 101.203 8.13021 101.203 7.32812V5.42969C101.203 4.60677 101.299 3.88802 101.492 3.27344C101.685 2.65365 101.964 2.13802 102.328 1.72656C102.693 1.3099 103.125 0.997396 103.625 0.789062C104.125 0.575521 104.677 0.46875 105.281 0.46875C105.896 0.46875 106.453 0.575521 106.953 0.789062C107.453 0.997396 107.885 1.3099 108.25 1.72656C108.615 2.13802 108.893 2.65365 109.086 3.27344C109.284 3.88802 109.383 4.60677 109.383 5.42969ZM107.109 7.32812V5.41406C107.109 4.8724 107.068 4.41146 106.984 4.03125C106.906 3.64583 106.789 3.33073 106.633 3.08594C106.482 2.84115 106.292 2.66146 106.062 2.54688C105.839 2.43229 105.578 2.375 105.281 2.375C104.99 2.375 104.729 2.43229 104.5 2.54688C104.276 2.66146 104.086 2.84115 103.93 3.08594C103.779 3.33073 103.664 3.64583 103.586 4.03125C103.513 4.41146 103.477 4.8724 103.477 5.41406V7.32812C103.477 7.84896 103.516 8.29427 103.594 8.66406C103.672 9.03385 103.789 9.33594 103.945 9.57031C104.102 9.80469 104.292 9.97917 104.516 10.0938C104.745 10.2031 105.005 10.2578 105.297 10.2578C105.594 10.2578 105.854 10.2031 106.078 10.0938C106.307 9.97917 106.497 9.80469 106.648 9.57031C106.799 9.33594 106.914 9.03385 106.992 8.66406C107.07 8.29427 107.109 7.84896 107.109 7.32812ZM120.258 10.1172L120.102 14.7422H117.984V12H117.234V10.1172H120.258ZM110.922 12V0.625H113.195V10.1094H116.586V0.625H118.883V12H110.922ZM123.812 7.82031L127.367 0.625H129.539V12H127.328V4.89062L123.805 12H121.594V0.625H123.812V7.82031ZM133.703 0.625V12H131.422V0.625H133.703ZM135.445 5.64844V7.46094H132.781V5.64844H135.445ZM142.805 5.42969V7.32812C142.805 8.13021 142.706 8.83333 142.508 9.4375C142.315 10.0365 142.039 10.5391 141.68 10.9453C141.326 11.3464 140.896 11.6484 140.391 11.8516C139.891 12.0547 139.333 12.1562 138.719 12.1562C138.115 12.1562 137.56 12.0547 137.055 11.8516C136.555 11.6484 136.122 11.3464 135.758 10.9453C135.393 10.5391 135.112 10.0365 134.914 9.4375C134.721 8.83333 134.625 8.13021 134.625 7.32812V5.42969C134.625 4.60677 134.721 3.88802 134.914 3.27344C135.107 2.65365 135.385 2.13802 135.75 1.72656C136.115 1.3099 136.547 0.997396 137.047 0.789062C137.547 0.575521 138.099 0.46875 138.703 0.46875C139.318 0.46875 139.875 0.575521 140.375 0.789062C140.875 0.997396 141.307 1.3099 141.672 1.72656C142.036 2.13802 142.315 2.65365 142.508 3.27344C142.706 3.88802 142.805 4.60677 142.805 5.42969ZM140.531 7.32812V5.41406C140.531 4.8724 140.49 4.41146 140.406 4.03125C140.328 3.64583 140.211 3.33073 140.055 3.08594C139.904 2.84115 139.714 2.66146 139.484 2.54688C139.26 2.43229 139 2.375 138.703 2.375C138.411 2.375 138.151 2.43229 137.922 2.54688C137.698 2.66146 137.508 2.84115 137.352 3.08594C137.201 3.33073 137.086 3.64583 137.008 4.03125C136.935 4.41146 136.898 4.8724 136.898 5.41406V7.32812C136.898 7.84896 136.938 8.29427 137.016 8.66406C137.094 9.03385 137.211 9.33594 137.367 9.57031C137.523 9.80469 137.714 9.97917 137.938 10.0938C138.167 10.2031 138.427 10.2578 138.719 10.2578C139.016 10.2578 139.276 10.2031 139.5 10.0938C139.729 9.97917 139.919 9.80469 140.07 9.57031C140.221 9.33594 140.336 9.03385 140.414 8.66406C140.492 8.29427 140.531 7.84896 140.531 7.32812Z" fill="#F2F2F2"/>
</svg>
