<svg width="105" height="38" viewBox="0 0 105 38" fill="none" xmlns="http://www.w3.org/2000/svg">
<path d="M5.55469 3.92578V5.34375H2.05664V3.92578H5.55469ZM2.54297 0.46875V9H0.826172V0.46875H2.54297ZM6.79688 0.46875V9H5.09766V0.46875H6.79688ZM10.9102 7.54102V4.61133C10.9102 4.41992 10.8867 4.26758 10.8398 4.1543C10.7969 4.04102 10.7305 3.95898 10.6406 3.9082C10.5547 3.85352 10.4492 3.82617 10.3242 3.82617C10.1836 3.82617 10.0664 3.85547 9.97266 3.91406C9.87891 3.97266 9.80859 4.05664 9.76172 4.16602C9.71875 4.27539 9.69727 4.40625 9.69727 4.55859H8.05078C8.05078 4.28516 8.10352 4.02734 8.20898 3.78516C8.31445 3.53906 8.46875 3.32422 8.67188 3.14062C8.87891 2.95312 9.125 2.80664 9.41016 2.70117C9.69531 2.5957 10.0156 2.54297 10.3711 2.54297C10.793 2.54297 11.168 2.61523 11.4961 2.75977C11.8242 2.90039 12.084 3.125 12.2754 3.43359C12.4668 3.74219 12.5625 4.14258 12.5625 4.63477V7.45898C12.5625 7.81445 12.5801 8.10352 12.6152 8.32617C12.6543 8.54883 12.7109 8.74023 12.7852 8.90039V9H11.1328C11.0586 8.82422 11.002 8.60547 10.9629 8.34375C10.9277 8.07812 10.9102 7.81055 10.9102 7.54102ZM11.1094 5.12695L11.1152 6.11133H10.5117C10.3555 6.11133 10.2188 6.13672 10.1016 6.1875C9.98828 6.23828 9.89258 6.31055 9.81445 6.4043C9.73633 6.49414 9.67773 6.59961 9.63867 6.7207C9.60352 6.8418 9.58594 6.9707 9.58594 7.10742C9.58594 7.25977 9.60742 7.38867 9.65039 7.49414C9.69336 7.59961 9.75781 7.67969 9.84375 7.73438C9.92969 7.78906 10.0312 7.81641 10.1484 7.81641C10.3281 7.81641 10.4844 7.7793 10.6172 7.70508C10.75 7.63086 10.8477 7.54102 10.9102 7.43555C10.9766 7.33008 10.998 7.23242 10.9746 7.14258L11.3496 7.78125C11.3027 7.92578 11.2383 8.07617 11.1562 8.23242C11.0781 8.38867 10.9785 8.5332 10.8574 8.66602C10.7363 8.79883 10.5859 8.9082 10.4062 8.99414C10.2305 9.07617 10.0215 9.11719 9.7793 9.11719C9.43945 9.11719 9.12891 9.03906 8.84766 8.88281C8.56641 8.72656 8.34375 8.50781 8.17969 8.22656C8.01953 7.94531 7.93945 7.61133 7.93945 7.22461C7.93945 6.9043 7.99023 6.61523 8.0918 6.35742C8.19727 6.0957 8.35352 5.875 8.56055 5.69531C8.76758 5.51172 9.0293 5.37109 9.3457 5.27344C9.66211 5.17578 10.0332 5.12695 10.459 5.12695H11.1094ZM16.2715 5.97656H15.1465V5.20898H15.9316C16.0605 5.20898 16.1641 5.18164 16.2422 5.12695C16.3242 5.06836 16.3828 4.98828 16.418 4.88672C16.457 4.78125 16.4766 4.66211 16.4766 4.5293C16.4766 4.41211 16.4609 4.30078 16.4297 4.19531C16.3984 4.08594 16.3438 3.99805 16.2656 3.93164C16.1914 3.86133 16.082 3.82617 15.9375 3.82617C15.8086 3.82617 15.6953 3.85156 15.5977 3.90234C15.5039 3.95312 15.4316 4.02734 15.3809 4.125C15.334 4.22266 15.3105 4.3418 15.3105 4.48242H13.6641C13.6641 4.07617 13.7617 3.73047 13.957 3.44531C14.1562 3.15625 14.4219 2.93555 14.7539 2.7832C15.0859 2.62695 15.4512 2.54883 15.8496 2.54883C16.1934 2.54883 16.5039 2.58984 16.7812 2.67188C17.0586 2.75 17.2969 2.86719 17.4961 3.02344C17.6953 3.17969 17.8477 3.37305 17.9531 3.60352C18.0586 3.83008 18.1113 4.09375 18.1113 4.39453C18.1113 4.60938 18.0684 4.8125 17.9824 5.00391C17.8965 5.19531 17.7734 5.36523 17.6133 5.51367C17.4531 5.6582 17.2598 5.77148 17.0332 5.85352C16.8066 5.93555 16.5527 5.97656 16.2715 5.97656ZM15.1465 5.55469H16.2715C16.584 5.55469 16.8594 5.5918 17.0977 5.66602C17.3398 5.73633 17.543 5.8418 17.707 5.98242C17.8711 6.12305 17.9961 6.29688 18.082 6.50391C18.168 6.70703 18.2109 6.94141 18.2109 7.20703C18.2109 7.50781 18.1523 7.77734 18.0352 8.01562C17.9219 8.25 17.7578 8.44922 17.543 8.61328C17.332 8.77734 17.084 8.90234 16.7988 8.98828C16.5137 9.07422 16.1973 9.11719 15.8496 9.11719C15.4746 9.11719 15.1133 9.04688 14.7656 8.90625C14.4219 8.76562 14.1387 8.54883 13.916 8.25586C13.6934 7.95898 13.582 7.58008 13.582 7.11914H15.2285C15.2285 7.24414 15.252 7.36328 15.2988 7.47656C15.3496 7.58594 15.4277 7.67578 15.5332 7.74609C15.6387 7.8125 15.7754 7.8457 15.9434 7.8457C16.0996 7.8457 16.2227 7.80859 16.3125 7.73438C16.4023 7.65625 16.4668 7.55859 16.5059 7.44141C16.5449 7.32422 16.5645 7.20117 16.5645 7.07227C16.5645 6.89648 16.541 6.75 16.4941 6.63281C16.4473 6.51562 16.377 6.43164 16.2832 6.38086C16.1895 6.33008 16.0723 6.30469 15.9316 6.30469H15.1465V5.55469ZM21.9551 6.36914H20.3613L20.3496 5.22656H21.6445C21.7969 5.22656 21.918 5.20508 22.0078 5.16211C22.0977 5.11914 22.1621 5.05664 22.2012 4.97461C22.2441 4.88867 22.2656 4.78125 22.2656 4.65234C22.2656 4.53906 22.252 4.44141 22.2246 4.35938C22.1973 4.27734 22.1562 4.21094 22.1016 4.16016C22.0508 4.10938 21.9824 4.07227 21.8965 4.04883C21.8145 4.02539 21.7207 4.01367 21.6152 4.01367H20.959V9H19.3184V2.66016H21.6152C21.9668 2.66016 22.2832 2.69727 22.5645 2.77148C22.8457 2.8418 23.0879 2.94922 23.291 3.09375C23.4941 3.23828 23.6484 3.42188 23.7539 3.64453C23.8594 3.86719 23.9121 4.12891 23.9121 4.42969C23.9121 4.625 23.873 4.80859 23.7949 4.98047C23.7168 5.14844 23.6035 5.29883 23.4551 5.43164C23.3066 5.56445 23.1211 5.67383 22.8984 5.75977C22.6758 5.8418 22.4199 5.89453 22.1309 5.91797L21.9551 6.36914ZM21.9551 9H19.9395L20.5312 7.64648H21.9551C22.0996 7.64648 22.2148 7.62305 22.3008 7.57617C22.3867 7.5293 22.4492 7.45898 22.4883 7.36523C22.5273 7.26758 22.5469 7.15234 22.5469 7.01953C22.5469 6.89062 22.5293 6.77734 22.4941 6.67969C22.4629 6.57812 22.4043 6.50195 22.3184 6.45117C22.2363 6.39648 22.1152 6.36914 21.9551 6.36914H20.6309L20.6426 5.22656H22.1074L22.4883 5.68945C22.8867 5.7168 23.2109 5.80078 23.4609 5.94141C23.7109 6.08203 23.8945 6.26172 24.0117 6.48047C24.1289 6.69531 24.1875 6.93164 24.1875 7.18945C24.1875 7.49023 24.1387 7.75391 24.041 7.98047C23.9434 8.20703 23.8008 8.39648 23.6133 8.54883C23.4297 8.69727 23.1973 8.81055 22.916 8.88867C22.6348 8.96289 22.3145 9 21.9551 9ZM27.9844 7.54102V4.61133C27.9844 4.41992 27.9609 4.26758 27.9141 4.1543C27.8711 4.04102 27.8047 3.95898 27.7148 3.9082C27.6289 3.85352 27.5234 3.82617 27.3984 3.82617C27.2578 3.82617 27.1406 3.85547 27.0469 3.91406C26.9531 3.97266 26.8828 4.05664 26.8359 4.16602C26.793 4.27539 26.7715 4.40625 26.7715 4.55859H25.125C25.125 4.28516 25.1777 4.02734 25.2832 3.78516C25.3887 3.53906 25.543 3.32422 25.7461 3.14062C25.9531 2.95312 26.1992 2.80664 26.4844 2.70117C26.7695 2.5957 27.0898 2.54297 27.4453 2.54297C27.8672 2.54297 28.2422 2.61523 28.5703 2.75977C28.8984 2.90039 29.1582 3.125 29.3496 3.43359C29.541 3.74219 29.6367 4.14258 29.6367 4.63477V7.45898C29.6367 7.81445 29.6543 8.10352 29.6895 8.32617C29.7285 8.54883 29.7852 8.74023 29.8594 8.90039V9H28.207C28.1328 8.82422 28.0762 8.60547 28.0371 8.34375C28.002 8.07812 27.9844 7.81055 27.9844 7.54102ZM28.1836 5.12695L28.1895 6.11133H27.5859C27.4297 6.11133 27.293 6.13672 27.1758 6.1875C27.0625 6.23828 26.9668 6.31055 26.8887 6.4043C26.8105 6.49414 26.752 6.59961 26.7129 6.7207C26.6777 6.8418 26.6602 6.9707 26.6602 7.10742C26.6602 7.25977 26.6816 7.38867 26.7246 7.49414C26.7676 7.59961 26.832 7.67969 26.918 7.73438C27.0039 7.78906 27.1055 7.81641 27.2227 7.81641C27.4023 7.81641 27.5586 7.7793 27.6914 7.70508C27.8242 7.63086 27.9219 7.54102 27.9844 7.43555C28.0508 7.33008 28.0723 7.23242 28.0488 7.14258L28.4238 7.78125C28.377 7.92578 28.3125 8.07617 28.2305 8.23242C28.1523 8.38867 28.0527 8.5332 27.9316 8.66602C27.8105 8.79883 27.6602 8.9082 27.4805 8.99414C27.3047 9.07617 27.0957 9.11719 26.8535 9.11719C26.5137 9.11719 26.2031 9.03906 25.9219 8.88281C25.6406 8.72656 25.418 8.50781 25.2539 8.22656C25.0938 7.94531 25.0137 7.61133 25.0137 7.22461C25.0137 6.9043 25.0645 6.61523 25.166 6.35742C25.2715 6.0957 25.4277 5.875 25.6348 5.69531C25.8418 5.51172 26.1035 5.37109 26.4199 5.27344C26.7363 5.17578 27.1074 5.12695 27.5332 5.12695H28.1836ZM34.4941 5.20312V6.5625H31.9629V5.20312H34.4941ZM32.4961 2.66016V9H30.8496V2.66016H32.4961ZM35.6133 2.66016V9H33.9727V2.66016H35.6133ZM38.4609 6.14062L40.0371 2.66016H41.6191V9H39.9961V5.53125L38.4258 9H36.8379V2.66016H38.4609V6.14062ZM45.3926 9.11719C44.959 9.11719 44.5742 9.05078 44.2383 8.91797C43.9062 8.78516 43.625 8.59375 43.3945 8.34375C43.1641 8.08984 42.9883 7.7832 42.8672 7.42383C42.7461 7.06445 42.6855 6.6543 42.6855 6.19336V5.67188C42.6855 5.15625 42.7441 4.70508 42.8613 4.31836C42.9785 3.92773 43.1445 3.59961 43.3594 3.33398C43.5742 3.06836 43.8379 2.87109 44.1504 2.74219C44.4668 2.60938 44.8242 2.54297 45.2227 2.54297C45.6211 2.54297 45.9707 2.60938 46.2715 2.74219C46.5762 2.87109 46.8281 3.06641 47.0273 3.32812C47.2266 3.58594 47.377 3.90625 47.4785 4.28906C47.5801 4.67188 47.6309 5.11719 47.6309 5.625V6.375H43.3828V5.2207H46.0195V5.07422C46.0195 4.81641 45.9922 4.60156 45.9375 4.42969C45.8828 4.25391 45.7969 4.12305 45.6797 4.03711C45.5625 3.95117 45.4062 3.9082 45.2109 3.9082C45.0469 3.9082 44.9082 3.94141 44.7949 4.00781C44.6816 4.07422 44.5918 4.17773 44.5254 4.31836C44.459 4.45898 44.4102 4.64258 44.3789 4.86914C44.3477 5.0918 44.332 5.35938 44.332 5.67188V6.19336C44.332 6.48633 44.3574 6.73242 44.4082 6.93164C44.459 7.12695 44.5332 7.28711 44.6309 7.41211C44.7324 7.5332 44.8555 7.62109 45 7.67578C45.1445 7.72656 45.3125 7.75195 45.5039 7.75195C45.793 7.75195 46.0527 7.70117 46.2832 7.59961C46.5176 7.49414 46.7168 7.35156 46.8809 7.17188L47.5371 8.16797C47.4238 8.31641 47.2676 8.46484 47.0684 8.61328C46.8691 8.76172 46.6309 8.88281 46.3535 8.97656C46.0762 9.07031 45.7559 9.11719 45.3926 9.11719ZM52.9863 3.87891V11.4375H51.3516V2.66016H52.8633L52.9863 3.87891ZM56.2793 5.61328V6.03516C56.2793 6.53125 56.2363 6.9707 56.1504 7.35352C56.0645 7.73242 55.9355 8.05469 55.7637 8.32031C55.5957 8.58203 55.3848 8.78125 55.1309 8.91797C54.877 9.05078 54.5801 9.11719 54.2402 9.11719C53.9238 9.11719 53.6504 9.04297 53.4199 8.89453C53.1934 8.74219 53.002 8.5332 52.8457 8.26758C52.6895 8.00195 52.5645 7.69141 52.4707 7.33594C52.377 6.98047 52.3047 6.59961 52.2539 6.19336V5.53711C52.3008 5.10352 52.3691 4.70508 52.459 4.3418C52.5488 3.97461 52.6719 3.65625 52.8281 3.38672C52.9883 3.11719 53.1816 2.91016 53.4082 2.76562C53.6387 2.61719 53.9121 2.54297 54.2285 2.54297C54.5723 2.54297 54.8711 2.60547 55.125 2.73047C55.3828 2.85547 55.5957 3.04492 55.7637 3.29883C55.9355 3.54883 56.0645 3.86719 56.1504 4.25391C56.2363 4.64062 56.2793 5.09375 56.2793 5.61328ZM54.6328 6.03516V5.61328C54.6328 5.30859 54.6172 5.04883 54.5859 4.83398C54.5547 4.61914 54.5039 4.44336 54.4336 4.30664C54.3633 4.16992 54.2715 4.07031 54.1582 4.00781C54.0449 3.94531 53.9062 3.91406 53.7422 3.91406C53.582 3.91406 53.4414 3.94531 53.3203 4.00781C53.2031 4.07031 53.1074 4.16211 53.0332 4.2832C52.959 4.40039 52.9023 4.54492 52.8633 4.7168C52.8242 4.88477 52.8027 5.07617 52.7988 5.29102V6.43945C52.8066 6.69336 52.8398 6.91797 52.8984 7.11328C52.9609 7.30859 53.0605 7.46484 53.1973 7.58203C53.334 7.69531 53.5195 7.75195 53.7539 7.75195C53.9219 7.75195 54.0605 7.7168 54.1699 7.64648C54.2832 7.57617 54.375 7.4707 54.4453 7.33008C54.5156 7.18945 54.5645 7.01172 54.5918 6.79688C54.6191 6.58203 54.6328 6.32812 54.6328 6.03516ZM60.082 7.54102V4.61133C60.082 4.41992 60.0586 4.26758 60.0117 4.1543C59.9688 4.04102 59.9023 3.95898 59.8125 3.9082C59.7266 3.85352 59.6211 3.82617 59.4961 3.82617C59.3555 3.82617 59.2383 3.85547 59.1445 3.91406C59.0508 3.97266 58.9805 4.05664 58.9336 4.16602C58.8906 4.27539 58.8691 4.40625 58.8691 4.55859H57.2227C57.2227 4.28516 57.2754 4.02734 57.3809 3.78516C57.4863 3.53906 57.6406 3.32422 57.8438 3.14062C58.0508 2.95312 58.2969 2.80664 58.582 2.70117C58.8672 2.5957 59.1875 2.54297 59.543 2.54297C59.9648 2.54297 60.3398 2.61523 60.668 2.75977C60.9961 2.90039 61.2559 3.125 61.4473 3.43359C61.6387 3.74219 61.7344 4.14258 61.7344 4.63477V7.45898C61.7344 7.81445 61.752 8.10352 61.7871 8.32617C61.8262 8.54883 61.8828 8.74023 61.957 8.90039V9H60.3047C60.2305 8.82422 60.1738 8.60547 60.1348 8.34375C60.0996 8.07812 60.082 7.81055 60.082 7.54102ZM60.2812 5.12695L60.2871 6.11133H59.6836C59.5273 6.11133 59.3906 6.13672 59.2734 6.1875C59.1602 6.23828 59.0645 6.31055 58.9863 6.4043C58.9082 6.49414 58.8496 6.59961 58.8105 6.7207C58.7754 6.8418 58.7578 6.9707 58.7578 7.10742C58.7578 7.25977 58.7793 7.38867 58.8223 7.49414C58.8652 7.59961 58.9297 7.67969 59.0156 7.73438C59.1016 7.78906 59.2031 7.81641 59.3203 7.81641C59.5 7.81641 59.6562 7.7793 59.7891 7.70508C59.9219 7.63086 60.0195 7.54102 60.082 7.43555C60.1484 7.33008 60.1699 7.23242 60.1465 7.14258L60.5215 7.78125C60.4746 7.92578 60.4102 8.07617 60.3281 8.23242C60.25 8.38867 60.1504 8.5332 60.0293 8.66602C59.9082 8.79883 59.7578 8.9082 59.5781 8.99414C59.4023 9.07617 59.1934 9.11719 58.9512 9.11719C58.6113 9.11719 58.3008 9.03906 58.0195 8.88281C57.7383 8.72656 57.5156 8.50781 57.3516 8.22656C57.1914 7.94531 57.1113 7.61133 57.1113 7.22461C57.1113 6.9043 57.1621 6.61523 57.2637 6.35742C57.3691 6.0957 57.5254 5.875 57.7324 5.69531C57.9395 5.51172 58.2012 5.37109 58.5176 5.27344C58.834 5.17578 59.2051 5.12695 59.6309 5.12695H60.2812ZM65.2383 7.75195C65.3906 7.75195 65.5215 7.7207 65.6309 7.6582C65.7441 7.5957 65.8301 7.49414 65.8887 7.35352C65.9473 7.21289 65.9785 7.03125 65.9824 6.80859H67.5234C67.5234 7.28516 67.4219 7.69727 67.2188 8.04492C67.0195 8.38867 66.75 8.6543 66.4102 8.8418C66.0742 9.02539 65.6934 9.11719 65.2676 9.11719C64.8418 9.11719 64.4707 9.04883 64.1543 8.91211C63.8379 8.77539 63.5762 8.57617 63.3691 8.31445C63.166 8.05273 63.0117 7.73438 62.9062 7.35938C62.8047 6.98047 62.7539 6.54688 62.7539 6.05859V5.5957C62.7539 5.11523 62.8047 4.68555 62.9062 4.30664C63.0117 3.92773 63.166 3.60742 63.3691 3.3457C63.5762 3.08398 63.8359 2.88477 64.1484 2.74805C64.4648 2.61133 64.8359 2.54297 65.2617 2.54297C65.7188 2.54297 66.1152 2.63867 66.4512 2.83008C66.7871 3.01758 67.0488 3.29492 67.2363 3.66211C67.4277 4.0293 67.5234 4.48242 67.5234 5.02148H65.9824C65.9785 4.7793 65.9492 4.57812 65.8945 4.41797C65.8438 4.25391 65.7637 4.12891 65.6543 4.04297C65.5488 3.95312 65.4082 3.9082 65.2324 3.9082C65.0488 3.9082 64.9004 3.94727 64.7871 4.02539C64.6777 4.09961 64.5938 4.20898 64.5352 4.35352C64.4805 4.49414 64.4434 4.66992 64.4238 4.88086C64.4043 5.0918 64.3945 5.33008 64.3945 5.5957V6.05859C64.3945 6.34375 64.4023 6.5918 64.418 6.80273C64.4375 7.00977 64.4746 7.18555 64.5293 7.33008C64.5879 7.4707 64.6719 7.57617 64.7812 7.64648C64.8945 7.7168 65.0469 7.75195 65.2383 7.75195ZM71.3906 2.66016V9H69.7441V2.66016H71.3906ZM73.0195 2.66016V4.01367H68.1211V2.66016H73.0195ZM76.0957 9.11719C75.6621 9.11719 75.2773 9.05078 74.9414 8.91797C74.6094 8.78516 74.3281 8.59375 74.0977 8.34375C73.8672 8.08984 73.6914 7.7832 73.5703 7.42383C73.4492 7.06445 73.3887 6.6543 73.3887 6.19336V5.67188C73.3887 5.15625 73.4473 4.70508 73.5645 4.31836C73.6816 3.92773 73.8477 3.59961 74.0625 3.33398C74.2773 3.06836 74.541 2.87109 74.8535 2.74219C75.1699 2.60938 75.5273 2.54297 75.9258 2.54297C76.3242 2.54297 76.6738 2.60938 76.9746 2.74219C77.2793 2.87109 77.5312 3.06641 77.7305 3.32812C77.9297 3.58594 78.0801 3.90625 78.1816 4.28906C78.2832 4.67188 78.334 5.11719 78.334 5.625V6.375H74.0859V5.2207H76.7227V5.07422C76.7227 4.81641 76.6953 4.60156 76.6406 4.42969C76.5859 4.25391 76.5 4.12305 76.3828 4.03711C76.2656 3.95117 76.1094 3.9082 75.9141 3.9082C75.75 3.9082 75.6113 3.94141 75.498 4.00781C75.3848 4.07422 75.2949 4.17773 75.2285 4.31836C75.1621 4.45898 75.1133 4.64258 75.082 4.86914C75.0508 5.0918 75.0352 5.35938 75.0352 5.67188V6.19336C75.0352 6.48633 75.0605 6.73242 75.1113 6.93164C75.1621 7.12695 75.2363 7.28711 75.334 7.41211C75.4355 7.5332 75.5586 7.62109 75.7031 7.67578C75.8477 7.72656 76.0156 7.75195 76.207 7.75195C76.4961 7.75195 76.7559 7.70117 76.9863 7.59961C77.2207 7.49414 77.4199 7.35156 77.584 7.17188L78.2402 8.16797C78.127 8.31641 77.9707 8.46484 77.7715 8.61328C77.5723 8.76172 77.334 8.88281 77.0566 8.97656C76.7793 9.07031 76.459 9.11719 76.0957 9.11719ZM82.9277 5.20312V6.5625H80.3965V5.20312H82.9277ZM80.9297 2.66016V9H79.2832V2.66016H80.9297ZM84.0469 2.66016V9H82.4062V2.66016H84.0469ZM86.8945 6.14062L88.4707 2.66016H90.0527V9H88.4297V5.53125L86.8594 9H85.2715V2.66016H86.8945V6.14062ZM92.3906 5.81836H94.0488L92.5488 9H90.8906L92.3906 5.81836ZM93.4395 2.66016H95.8535V9H94.2129V4.01367H93.4395C93.2793 4.01367 93.1445 4.05469 93.0352 4.13672C92.9258 4.21875 92.8457 4.32422 92.7949 4.45312C92.7441 4.57812 92.7188 4.70508 92.7188 4.83398C92.7188 4.96289 92.7441 5.08789 92.7949 5.20898C92.8457 5.33008 92.9258 5.42969 93.0352 5.50781C93.1484 5.58594 93.2852 5.625 93.4453 5.625H94.7988V6.80859H93.4453C93.0781 6.80859 92.748 6.75781 92.4551 6.65625C92.1621 6.55469 91.9121 6.41406 91.7051 6.23438C91.498 6.05078 91.3398 5.83594 91.2305 5.58984C91.1211 5.33984 91.0664 5.06836 91.0664 4.77539C91.0664 4.4707 91.1211 4.18945 91.2305 3.93164C91.3398 3.67383 91.498 3.45117 91.7051 3.26367C91.9121 3.07227 92.1602 2.92383 92.4492 2.81836C92.7422 2.71289 93.0723 2.66016 93.4395 2.66016ZM102.246 7.75195C102.398 7.75195 102.529 7.7207 102.639 7.6582C102.752 7.5957 102.838 7.49414 102.896 7.35352C102.955 7.21289 102.986 7.03125 102.99 6.80859H104.531C104.531 7.28516 104.43 7.69727 104.227 8.04492C104.027 8.38867 103.758 8.6543 103.418 8.8418C103.082 9.02539 102.701 9.11719 102.275 9.11719C101.85 9.11719 101.479 9.04883 101.162 8.91211C100.846 8.77539 100.584 8.57617 100.377 8.31445C100.174 8.05273 100.02 7.73438 99.9141 7.35938C99.8125 6.98047 99.7617 6.54688 99.7617 6.05859V5.5957C99.7617 5.11523 99.8125 4.68555 99.9141 4.30664C100.02 3.92773 100.174 3.60742 100.377 3.3457C100.584 3.08398 100.844 2.88477 101.156 2.74805C101.473 2.61133 101.844 2.54297 102.27 2.54297C102.727 2.54297 103.123 2.63867 103.459 2.83008C103.795 3.01758 104.057 3.29492 104.244 3.66211C104.436 4.0293 104.531 4.48242 104.531 5.02148H102.99C102.986 4.7793 102.957 4.57812 102.902 4.41797C102.852 4.25391 102.771 4.12891 102.662 4.04297C102.557 3.95312 102.416 3.9082 102.24 3.9082C102.057 3.9082 101.908 3.94727 101.795 4.02539C101.686 4.09961 101.602 4.20898 101.543 4.35352C101.488 4.49414 101.451 4.66992 101.432 4.88086C101.412 5.0918 101.402 5.33008 101.402 5.5957V6.05859C101.402 6.34375 101.41 6.5918 101.426 6.80273C101.445 7.00977 101.482 7.18555 101.537 7.33008C101.596 7.4707 101.68 7.57617 101.789 7.64648C101.902 7.7168 102.055 7.75195 102.246 7.75195ZM16.3008 16.6602V23H14.6543V16.6602H16.3008ZM19.7461 16.6602L17.4492 20.6621H16.002L15.791 19.0391H16.6992L17.6777 16.6602H19.7461ZM17.7012 23L16.5996 20.3457L18.0293 19.5195L19.8809 23H17.7012ZM20.0566 20.0469V19.6191C20.0566 19.123 20.1152 18.6836 20.2324 18.3008C20.3535 17.918 20.5254 17.5977 20.748 17.3398C20.9707 17.0781 21.2383 16.8809 21.5508 16.748C21.8672 16.6113 22.2207 16.543 22.6113 16.543C23.0059 16.543 23.3594 16.6113 23.6719 16.748C23.9883 16.8809 24.2578 17.0781 24.4805 17.3398C24.707 17.5977 24.8809 17.918 25.002 18.3008C25.123 18.6836 25.1836 19.123 25.1836 19.6191V20.0469C25.1836 20.5391 25.123 20.9766 25.002 21.3594C24.8809 21.7422 24.707 22.0645 24.4805 22.3262C24.2578 22.5879 23.9902 22.7852 23.6777 22.918C23.3652 23.0508 23.0137 23.1172 22.623 23.1172C22.2324 23.1172 21.8789 23.0508 21.5625 22.918C21.25 22.7852 20.9805 22.5879 20.7539 22.3262C20.5273 22.0645 20.3535 21.7422 20.2324 21.3594C20.1152 20.9766 20.0566 20.5391 20.0566 20.0469ZM21.6973 19.6191V20.0469C21.6973 20.3398 21.7168 20.5938 21.7559 20.8086C21.7988 21.0234 21.8594 21.2012 21.9375 21.3418C22.0195 21.4824 22.1172 21.5859 22.2305 21.6523C22.3438 21.7188 22.4746 21.752 22.623 21.752C22.7715 21.752 22.9043 21.7188 23.0215 21.6523C23.1387 21.5859 23.2344 21.4824 23.3086 21.3418C23.3867 21.2012 23.4434 21.0234 23.4785 20.8086C23.5176 20.5938 23.5371 20.3398 23.5371 20.0469V19.6191C23.5371 19.334 23.5156 19.084 23.4727 18.8691C23.4297 18.6504 23.3691 18.4727 23.291 18.3359C23.2129 18.1953 23.1152 18.0898 22.998 18.0195C22.8848 17.9453 22.7559 17.9082 22.6113 17.9082C22.4668 17.9082 22.3379 17.9453 22.2246 18.0195C22.1152 18.0898 22.0195 18.1953 21.9375 18.3359C21.8594 18.4727 21.7988 18.6504 21.7559 18.8691C21.7168 19.084 21.6973 19.334 21.6973 19.6191ZM28.9688 16.6602V23H27.3223V16.6602H28.9688ZM30.5977 16.6602V18.0137H25.6992V16.6602H30.5977ZM31.1309 20.0469V19.6191C31.1309 19.123 31.1895 18.6836 31.3066 18.3008C31.4277 17.918 31.5996 17.5977 31.8223 17.3398C32.0449 17.0781 32.3125 16.8809 32.625 16.748C32.9414 16.6113 33.2949 16.543 33.6855 16.543C34.0801 16.543 34.4336 16.6113 34.7461 16.748C35.0625 16.8809 35.332 17.0781 35.5547 17.3398C35.7812 17.5977 35.9551 17.918 36.0762 18.3008C36.1973 18.6836 36.2578 19.123 36.2578 19.6191V20.0469C36.2578 20.5391 36.1973 20.9766 36.0762 21.3594C35.9551 21.7422 35.7812 22.0645 35.5547 22.3262C35.332 22.5879 35.0645 22.7852 34.752 22.918C34.4395 23.0508 34.0879 23.1172 33.6973 23.1172C33.3066 23.1172 32.9531 23.0508 32.6367 22.918C32.3242 22.7852 32.0547 22.5879 31.8281 22.3262C31.6016 22.0645 31.4277 21.7422 31.3066 21.3594C31.1895 20.9766 31.1309 20.5391 31.1309 20.0469ZM32.7715 19.6191V20.0469C32.7715 20.3398 32.791 20.5938 32.8301 20.8086C32.873 21.0234 32.9336 21.2012 33.0117 21.3418C33.0938 21.4824 33.1914 21.5859 33.3047 21.6523C33.418 21.7188 33.5488 21.752 33.6973 21.752C33.8457 21.752 33.9785 21.7188 34.0957 21.6523C34.2129 21.5859 34.3086 21.4824 34.3828 21.3418C34.4609 21.2012 34.5176 21.0234 34.5527 20.8086C34.5918 20.5938 34.6113 20.3398 34.6113 20.0469V19.6191C34.6113 19.334 34.5898 19.084 34.5469 18.8691C34.5039 18.6504 34.4434 18.4727 34.3652 18.3359C34.2871 18.1953 34.1895 18.0898 34.0723 18.0195C33.959 17.9453 33.8301 17.9082 33.6855 17.9082C33.541 17.9082 33.4121 17.9453 33.2988 18.0195C33.1895 18.0898 33.0938 18.1953 33.0117 18.3359C32.9336 18.4727 32.873 18.6504 32.8301 18.8691C32.791 19.084 32.7715 19.334 32.7715 19.6191ZM38.9355 17.8789V25.4375H37.3008V16.6602H38.8125L38.9355 17.8789ZM42.2285 19.6133V20.0352C42.2285 20.5312 42.1855 20.9707 42.0996 21.3535C42.0137 21.7324 41.8848 22.0547 41.7129 22.3203C41.5449 22.582 41.334 22.7812 41.0801 22.918C40.8262 23.0508 40.5293 23.1172 40.1895 23.1172C39.873 23.1172 39.5996 23.043 39.3691 22.8945C39.1426 22.7422 38.9512 22.5332 38.7949 22.2676C38.6387 22.002 38.5137 21.6914 38.4199 21.3359C38.3262 20.9805 38.2539 20.5996 38.2031 20.1934V19.5371C38.25 19.1035 38.3184 18.7051 38.4082 18.3418C38.498 17.9746 38.6211 17.6562 38.7773 17.3867C38.9375 17.1172 39.1309 16.9102 39.3574 16.7656C39.5879 16.6172 39.8613 16.543 40.1777 16.543C40.5215 16.543 40.8203 16.6055 41.0742 16.7305C41.332 16.8555 41.5449 17.0449 41.7129 17.2988C41.8848 17.5488 42.0137 17.8672 42.0996 18.2539C42.1855 18.6406 42.2285 19.0938 42.2285 19.6133ZM40.582 20.0352V19.6133C40.582 19.3086 40.5664 19.0488 40.5352 18.834C40.5039 18.6191 40.4531 18.4434 40.3828 18.3066C40.3125 18.1699 40.2207 18.0703 40.1074 18.0078C39.9941 17.9453 39.8555 17.9141 39.6914 17.9141C39.5312 17.9141 39.3906 17.9453 39.2695 18.0078C39.1523 18.0703 39.0566 18.1621 38.9824 18.2832C38.9082 18.4004 38.8516 18.5449 38.8125 18.7168C38.7734 18.8848 38.752 19.0762 38.748 19.291V20.4395C38.7559 20.6934 38.7891 20.918 38.8477 21.1133C38.9102 21.3086 39.0098 21.4648 39.1465 21.582C39.2832 21.6953 39.4688 21.752 39.7031 21.752C39.8711 21.752 40.0098 21.7168 40.1191 21.6465C40.2324 21.5762 40.3242 21.4707 40.3945 21.3301C40.4648 21.1895 40.5137 21.0117 40.541 20.7969C40.5684 20.582 40.582 20.3281 40.582 20.0352ZM44.3906 18.5117H45.8672C46.3672 18.5117 46.793 18.6074 47.1445 18.7988C47.5 18.9863 47.7695 19.25 47.9531 19.5898C48.1406 19.9297 48.2344 20.3223 48.2344 20.7676C48.2344 21.0918 48.1797 21.3906 48.0703 21.6641C47.9648 21.9336 47.8105 22.1699 47.6074 22.373C47.4082 22.5723 47.1621 22.7266 46.8691 22.8359C46.5762 22.9453 46.2422 23 45.8672 23H43.3418V16.6602H44.9941V21.6406H45.8672C46.043 21.6406 46.1836 21.5996 46.2891 21.5176C46.3984 21.4355 46.4766 21.3301 46.5234 21.2012C46.5742 21.0684 46.5996 20.9238 46.5996 20.7676C46.5996 20.6035 46.5742 20.4551 46.5234 20.3223C46.4766 20.1855 46.3984 20.0781 46.2891 20C46.1836 19.918 46.043 19.877 45.8672 19.877H44.3906V18.5117ZM50.6074 16.6602V23H48.9668V16.6602H50.6074ZM55.3359 20.7266L56.5254 16.6602H57.8789L55.9336 23H54.7266L52.7695 16.6602H54.1523L55.3359 20.7266ZM53.707 16.6602V23H52.1191V16.6602H53.707ZM57 23V16.6602H58.5938V23H57ZM65.9707 13.8711H67.2891C67.2891 14.1836 67.2559 14.4531 67.1895 14.6797C67.127 14.9062 67.0215 15.0996 66.873 15.2598C66.7246 15.4199 66.5273 15.5566 66.2812 15.6699C66.0352 15.7832 65.7285 15.8809 65.3613 15.9629C65.0996 16.0254 64.873 16.1348 64.6816 16.291C64.4902 16.4434 64.334 16.6504 64.2129 16.9121C64.0918 17.1699 64.0078 17.498 63.9609 17.8965C63.9141 18.291 63.9023 18.7656 63.9258 19.3203V19.584L62.6602 19.7773V19.5195C62.6602 18.75 62.7168 18.0801 62.8301 17.5098C62.9473 16.9395 63.1113 16.459 63.3223 16.0684C63.5332 15.6777 63.7871 15.3672 64.084 15.1367C64.3809 14.9023 64.709 14.7383 65.0684 14.6445C65.2754 14.582 65.4453 14.5215 65.5781 14.4629C65.7109 14.4043 65.8086 14.3281 65.8711 14.2344C65.9375 14.1406 65.9707 14.0195 65.9707 13.8711ZM65.5254 17.0117C65.8887 17.0117 66.207 17.0859 66.4805 17.2344C66.7578 17.3828 66.9902 17.5898 67.1777 17.8555C67.3652 18.1211 67.5059 18.4336 67.5996 18.793C67.6973 19.1523 67.7461 19.5469 67.7461 19.9766V20.0996C67.7461 20.5332 67.6914 20.9336 67.582 21.3008C67.4727 21.668 67.3105 21.9883 67.0957 22.2617C66.8809 22.5352 66.6152 22.748 66.2988 22.9004C65.9824 23.0488 65.6191 23.123 65.209 23.123C64.7949 23.123 64.4297 23.041 64.1133 22.877C63.7969 22.7129 63.5293 22.4844 63.3105 22.1914C63.0957 21.8945 62.9336 21.5469 62.8242 21.1484C62.7148 20.75 62.6602 20.3145 62.6602 19.8418V19.7129C62.6602 19.6504 62.6875 19.5898 62.7422 19.5312C62.8008 19.4688 62.8711 19.3965 62.9531 19.3145C63.0352 19.2324 63.1035 19.1289 63.1582 19.0039C63.373 18.5664 63.5977 18.1992 63.832 17.9023C64.0703 17.6055 64.3281 17.3828 64.6055 17.2344C64.8828 17.0859 65.1895 17.0117 65.5254 17.0117ZM65.2031 18.377C64.9727 18.377 64.791 18.4512 64.6582 18.5996C64.5254 18.7441 64.4316 18.9395 64.377 19.1855C64.3262 19.4277 64.3008 19.6914 64.3008 19.9766V20.0996C64.3008 20.3262 64.3145 20.541 64.3418 20.7441C64.373 20.9434 64.4219 21.1211 64.4883 21.2773C64.5547 21.4297 64.6465 21.5488 64.7637 21.6348C64.8809 21.7168 65.0293 21.7578 65.209 21.7578C65.3809 21.7578 65.5254 21.7168 65.6426 21.6348C65.7598 21.5488 65.8516 21.4297 65.918 21.2773C65.9844 21.1211 66.0312 20.9434 66.0586 20.7441C66.0898 20.541 66.1055 20.3262 66.1055 20.0996V19.9766C66.1055 19.7578 66.0898 19.5527 66.0586 19.3613C66.0312 19.1699 65.9844 19 65.918 18.8516C65.8516 18.7031 65.7598 18.5879 65.6426 18.5059C65.5254 18.4199 65.3789 18.377 65.2031 18.377ZM70.3652 22.2734L71.6895 16.6602H73.4004L71.3145 23.9492C71.2676 24.1094 71.2031 24.2812 71.1211 24.4648C71.0391 24.6523 70.9297 24.8281 70.793 24.9922C70.6602 25.1602 70.4922 25.2969 70.2891 25.4023C70.0859 25.5078 69.8418 25.5605 69.5566 25.5605C69.4121 25.5605 69.2949 25.5508 69.2051 25.5312C69.1191 25.5156 69.0098 25.4883 68.877 25.4492V24.1719C68.9121 24.1719 68.9453 24.1719 68.9766 24.1719C69.0117 24.1758 69.0449 24.1777 69.0762 24.1777C69.2598 24.1777 69.4062 24.1523 69.5156 24.1016C69.625 24.0547 69.7129 23.9805 69.7793 23.8789C69.8496 23.7773 69.9082 23.6504 69.9551 23.498L70.3652 22.2734ZM70.0254 16.6602L71.0098 21.207L71.2324 23.0586L70.125 23.1641L68.2676 16.6602H70.0254ZM74.7539 16.6602H76.3945L76.3652 18.7637C76.3535 19.4512 76.2852 20.041 76.1602 20.5332C76.0352 21.0254 75.8672 21.4375 75.6562 21.7695C75.4492 22.1016 75.209 22.3672 74.9355 22.5664C74.6621 22.7617 74.3711 22.9062 74.0625 23H73.7695L73.752 21.6523L73.9102 21.6348C74.0977 21.4238 74.2441 21.2188 74.3496 21.0195C74.459 20.8203 74.5391 20.6133 74.5898 20.3984C74.6406 20.1797 74.6738 19.9395 74.6895 19.6777C74.709 19.4121 74.7207 19.1074 74.7246 18.7637L74.7539 16.6602ZM75.1816 16.6602H78.873V23H77.2383V18.0547H75.1816V16.6602ZM73.4355 21.6348H79.7051V24.9102H78.0645V23H75.123V24.9102H73.4355V21.6348ZM83.1152 23.1172C82.6816 23.1172 82.2969 23.0508 81.9609 22.918C81.6289 22.7852 81.3477 22.5938 81.1172 22.3438C80.8867 22.0898 80.7109 21.7832 80.5898 21.4238C80.4688 21.0645 80.4082 20.6543 80.4082 20.1934V19.6719C80.4082 19.1562 80.4668 18.7051 80.584 18.3184C80.7012 17.9277 80.8672 17.5996 81.082 17.334C81.2969 17.0684 81.5605 16.8711 81.873 16.7422C82.1895 16.6094 82.5469 16.543 82.9453 16.543C83.3438 16.543 83.6934 16.6094 83.9941 16.7422C84.2988 16.8711 84.5508 17.0664 84.75 17.3281C84.9492 17.5859 85.0996 17.9062 85.2012 18.2891C85.3027 18.6719 85.3535 19.1172 85.3535 19.625V20.375H81.1055V19.2207H83.7422V19.0742C83.7422 18.8164 83.7148 18.6016 83.6602 18.4297C83.6055 18.2539 83.5195 18.123 83.4023 18.0371C83.2852 17.9512 83.1289 17.9082 82.9336 17.9082C82.7695 17.9082 82.6309 17.9414 82.5176 18.0078C82.4043 18.0742 82.3145 18.1777 82.248 18.3184C82.1816 18.459 82.1328 18.6426 82.1016 18.8691C82.0703 19.0918 82.0547 19.3594 82.0547 19.6719V20.1934C82.0547 20.4863 82.0801 20.7324 82.1309 20.9316C82.1816 21.127 82.2559 21.2871 82.3535 21.4121C82.4551 21.5332 82.5781 21.6211 82.7227 21.6758C82.8672 21.7266 83.0352 21.752 83.2266 21.752C83.5156 21.752 83.7754 21.7012 84.0059 21.5996C84.2402 21.4941 84.4395 21.3516 84.6035 21.1719L85.2598 22.168C85.1465 22.3164 84.9902 22.4648 84.791 22.6133C84.5918 22.7617 84.3535 22.8828 84.0762 22.9766C83.7988 23.0703 83.4785 23.1172 83.1152 23.1172ZM89.1562 16.6602V23H87.5098V16.6602H89.1562ZM90.7852 16.6602V18.0137H85.8867V16.6602H90.7852ZM34.8105 35.752C34.9629 35.752 35.0938 35.7207 35.2031 35.6582C35.3164 35.5957 35.4023 35.4941 35.4609 35.3535C35.5195 35.2129 35.5508 35.0312 35.5547 34.8086H37.0957C37.0957 35.2852 36.9941 35.6973 36.791 36.0449C36.5918 36.3887 36.3223 36.6543 35.9824 36.8418C35.6465 37.0254 35.2656 37.1172 34.8398 37.1172C34.4141 37.1172 34.043 37.0488 33.7266 36.9121C33.4102 36.7754 33.1484 36.5762 32.9414 36.3145C32.7383 36.0527 32.584 35.7344 32.4785 35.3594C32.377 34.9805 32.3262 34.5469 32.3262 34.0586V33.5957C32.3262 33.1152 32.377 32.6855 32.4785 32.3066C32.584 31.9277 32.7383 31.6074 32.9414 31.3457C33.1484 31.084 33.4082 30.8848 33.7207 30.748C34.0371 30.6113 34.4082 30.543 34.834 30.543C35.291 30.543 35.6875 30.6387 36.0234 30.8301C36.3594 31.0176 36.6211 31.2949 36.8086 31.6621C37 32.0293 37.0957 32.4824 37.0957 33.0215H35.5547C35.5508 32.7793 35.5215 32.5781 35.4668 32.418C35.416 32.2539 35.3359 32.1289 35.2266 32.043C35.1211 31.9531 34.9805 31.9082 34.8047 31.9082C34.6211 31.9082 34.4727 31.9473 34.3594 32.0254C34.25 32.0996 34.166 32.209 34.1074 32.3535C34.0527 32.4941 34.0156 32.6699 33.9961 32.8809C33.9766 33.0918 33.9668 33.3301 33.9668 33.5957V34.0586C33.9668 34.3438 33.9746 34.5918 33.9902 34.8027C34.0098 35.0098 34.0469 35.1855 34.1016 35.3301C34.1602 35.4707 34.2441 35.5762 34.3535 35.6465C34.4668 35.7168 34.6191 35.752 34.8105 35.752ZM41.6016 30.6602V32.0254H39.0352V30.6602H41.6016ZM42.8262 30.6602V37H41.1855V30.6602H42.8262ZM38.6309 30.6602H40.248L40.0898 33.877C40.0742 34.3301 40.0312 34.7305 39.9609 35.0781C39.8945 35.4258 39.8047 35.7227 39.6914 35.9688C39.582 36.2109 39.4512 36.4082 39.2988 36.5605C39.1465 36.7129 38.9727 36.8242 38.7773 36.8945C38.582 36.9648 38.3691 37 38.1387 37H37.6465L37.6348 35.623L37.8164 35.5996C37.9141 35.5879 38 35.5527 38.0742 35.4941C38.1523 35.4355 38.2188 35.3496 38.2734 35.2363C38.3281 35.123 38.3711 34.9785 38.4023 34.8027C38.4375 34.627 38.4648 34.4199 38.4844 34.1816C38.5039 33.9434 38.5195 33.6699 38.5312 33.3613L38.6309 30.6602ZM45.6738 34.1406L47.25 30.6602H48.832V37H47.209V33.5312L45.6387 37H44.0508V30.6602H45.6738V34.1406ZM51.1699 33.8184H52.8281L51.3281 37H49.6699L51.1699 33.8184ZM52.2188 30.6602H54.6328V37H52.9922V32.0137H52.2188C52.0586 32.0137 51.9238 32.0547 51.8145 32.1367C51.7051 32.2188 51.625 32.3242 51.5742 32.4531C51.5234 32.5781 51.498 32.7051 51.498 32.834C51.498 32.9629 51.5234 33.0879 51.5742 33.209C51.625 33.3301 51.7051 33.4297 51.8145 33.5078C51.9277 33.5859 52.0645 33.625 52.2246 33.625H53.5781V34.8086H52.2246C51.8574 34.8086 51.5273 34.7578 51.2344 34.6562C50.9414 34.5547 50.6914 34.4141 50.4844 34.2344C50.2773 34.0508 50.1191 33.8359 50.0098 33.5898C49.9004 33.3398 49.8457 33.0684 49.8457 32.7754C49.8457 32.4707 49.9004 32.1895 50.0098 31.9316C50.1191 31.6738 50.2773 31.4512 50.4844 31.2637C50.6914 31.0723 50.9395 30.9238 51.2285 30.8184C51.5215 30.7129 51.8516 30.6602 52.2188 30.6602ZM59.6133 33.2031V34.5625H57.082V33.2031H59.6133ZM57.6152 30.6602V37H55.9688V30.6602H57.6152ZM60.7324 30.6602V37H59.0918V30.6602H60.7324ZM63.5801 34.1406L65.1562 30.6602H66.7383V37H65.1152V33.5312L63.5449 37H61.957V30.6602H63.5801V34.1406ZM70.5117 37.1172C70.0781 37.1172 69.6934 37.0508 69.3574 36.918C69.0254 36.7852 68.7441 36.5938 68.5137 36.3438C68.2832 36.0898 68.1074 35.7832 67.9863 35.4238C67.8652 35.0645 67.8047 34.6543 67.8047 34.1934V33.6719C67.8047 33.1562 67.8633 32.7051 67.9805 32.3184C68.0977 31.9277 68.2637 31.5996 68.4785 31.334C68.6934 31.0684 68.957 30.8711 69.2695 30.7422C69.5859 30.6094 69.9434 30.543 70.3418 30.543C70.7402 30.543 71.0898 30.6094 71.3906 30.7422C71.6953 30.8711 71.9473 31.0664 72.1465 31.3281C72.3457 31.5859 72.4961 31.9062 72.5977 32.2891C72.6992 32.6719 72.75 33.1172 72.75 33.625V34.375H68.502V33.2207H71.1387V33.0742C71.1387 32.8164 71.1113 32.6016 71.0566 32.4297C71.002 32.2539 70.916 32.123 70.7988 32.0371C70.6816 31.9512 70.5254 31.9082 70.3301 31.9082C70.166 31.9082 70.0273 31.9414 69.9141 32.0078C69.8008 32.0742 69.7109 32.1777 69.6445 32.3184C69.5781 32.459 69.5293 32.6426 69.498 32.8691C69.4668 33.0918 69.4512 33.3594 69.4512 33.6719V34.1934C69.4512 34.4863 69.4766 34.7324 69.5273 34.9316C69.5781 35.127 69.6523 35.2871 69.75 35.4121C69.8516 35.5332 69.9746 35.6211 70.1191 35.6758C70.2637 35.7266 70.4316 35.752 70.623 35.752C70.9121 35.752 71.1719 35.7012 71.4023 35.5996C71.6367 35.4941 71.8359 35.3516 72 35.1719L72.6562 36.168C72.543 36.3164 72.3867 36.4648 72.1875 36.6133C71.9883 36.7617 71.75 36.8828 71.4727 36.9766C71.1953 37.0703 70.875 37.1172 70.5117 37.1172Z" fill="white"/>
</svg>
