<svg width="161" height="22" viewBox="0 0 161 22" fill="none" xmlns="http://www.w3.org/2000/svg">
<path d="M11.0781 7.72949V10.2432H2.91406V7.72949H11.0781ZM3.87012 1.35938V17H0.647461V1.35938H3.87012ZM13.377 1.35938V17H10.165V1.35938H13.377ZM15.4932 11.3066V11.0811C15.4932 10.2288 15.6149 9.44466 15.8584 8.72852C16.1019 8.00521 16.4564 7.37858 16.9219 6.84863C17.3874 6.31868 17.9603 5.9069 18.6406 5.61328C19.321 5.3125 20.1016 5.16211 20.9824 5.16211C21.8633 5.16211 22.6475 5.3125 23.335 5.61328C24.0225 5.9069 24.599 6.31868 25.0645 6.84863C25.5371 7.37858 25.8952 8.00521 26.1387 8.72852C26.3822 9.44466 26.5039 10.2288 26.5039 11.0811V11.3066C26.5039 12.1517 26.3822 12.9359 26.1387 13.6592C25.8952 14.3753 25.5371 15.002 25.0645 15.5391C24.599 16.069 24.026 16.4808 23.3457 16.7744C22.6654 17.068 21.8848 17.2148 21.0039 17.2148C20.123 17.2148 19.3389 17.068 18.6514 16.7744C17.971 16.4808 17.3945 16.069 16.9219 15.5391C16.4564 15.002 16.1019 14.3753 15.8584 13.6592C15.6149 12.9359 15.4932 12.1517 15.4932 11.3066ZM18.5869 11.0811V11.3066C18.5869 11.7936 18.6299 12.2484 18.7158 12.6709C18.8018 13.0934 18.9378 13.4658 19.124 13.7881C19.3174 14.1032 19.568 14.3503 19.876 14.5293C20.1839 14.7083 20.5599 14.7979 21.0039 14.7979C21.4336 14.7979 21.8024 14.7083 22.1104 14.5293C22.4183 14.3503 22.6654 14.1032 22.8516 13.7881C23.0378 13.4658 23.1738 13.0934 23.2598 12.6709C23.3529 12.2484 23.3994 11.7936 23.3994 11.3066V11.0811C23.3994 10.6084 23.3529 10.1644 23.2598 9.74902C23.1738 9.3265 23.0342 8.9541 22.8408 8.63184C22.6546 8.30241 22.4076 8.0446 22.0996 7.8584C21.7917 7.6722 21.4193 7.5791 20.9824 7.5791C20.5456 7.5791 20.1732 7.6722 19.8652 7.8584C19.5645 8.0446 19.3174 8.30241 19.124 8.63184C18.9378 8.9541 18.8018 9.3265 18.7158 9.74902C18.6299 10.1644 18.5869 10.6084 18.5869 11.0811ZM34.1953 12.1445H30.5537L30.5322 10.1143H33.54C33.9411 10.1143 34.2669 10.0749 34.5176 9.99609C34.7682 9.91016 34.9508 9.78483 35.0654 9.62012C35.1872 9.44824 35.248 9.24056 35.248 8.99707C35.248 8.78223 35.2087 8.59961 35.1299 8.44922C35.0583 8.29167 34.9473 8.16276 34.7969 8.0625C34.6465 7.96224 34.4567 7.89062 34.2275 7.84766C34.0055 7.79753 33.7441 7.77246 33.4434 7.77246H31.7031V17H28.6094V5.37695H33.4434C34.2025 5.37695 34.8828 5.44499 35.4844 5.58105C36.0859 5.70996 36.598 5.9069 37.0205 6.17188C37.4502 6.43685 37.776 6.77344 37.998 7.18164C38.2272 7.58268 38.3418 8.05892 38.3418 8.61035C38.3418 8.96842 38.2594 9.30501 38.0947 9.62012C37.9372 9.93522 37.7008 10.2145 37.3857 10.458C37.0706 10.7015 36.6803 10.902 36.2148 11.0596C35.7565 11.21 35.2266 11.3031 34.625 11.3389L34.1953 12.1445ZM34.1953 17H29.791L30.8545 14.6045H34.1953C34.5749 14.6045 34.8864 14.5579 35.1299 14.4648C35.3734 14.3717 35.5524 14.2357 35.667 14.0566C35.7887 13.8704 35.8496 13.6484 35.8496 13.3906C35.8496 13.14 35.7959 12.9215 35.6885 12.7354C35.5811 12.5492 35.4056 12.4059 35.1621 12.3057C34.9258 12.1982 34.6035 12.1445 34.1953 12.1445H31.3057L31.3271 10.1143H34.6143L35.3662 10.9307C36.1826 10.9808 36.8558 11.1348 37.3857 11.3926C37.9157 11.6504 38.306 11.9798 38.5566 12.3809C38.8145 12.7747 38.9434 13.208 38.9434 13.6807C38.9434 14.2321 38.8395 14.7155 38.6318 15.1309C38.4242 15.5462 38.1162 15.8936 37.708 16.1729C37.307 16.445 36.8128 16.6527 36.2256 16.7959C35.6383 16.932 34.9616 17 34.1953 17ZM42.9824 8.8252H46.3555C47.4154 8.8252 48.3177 9.00065 49.0625 9.35156C49.8145 9.69531 50.3874 10.1751 50.7812 10.791C51.1823 11.4069 51.3828 12.1195 51.3828 12.9287C51.3828 13.516 51.2682 14.0602 51.0391 14.5615C50.8171 15.0557 50.4912 15.4854 50.0615 15.8506C49.6318 16.2158 49.1055 16.4987 48.4824 16.6992C47.8594 16.8997 47.1504 17 46.3555 17H41.0488V5.37695H44.1533V14.5938H46.3555C46.821 14.5938 47.1934 14.5186 47.4727 14.3682C47.7591 14.2106 47.9668 14.0065 48.0957 13.7559C48.2318 13.5052 48.2998 13.2331 48.2998 12.9395C48.2998 12.6315 48.2318 12.3522 48.0957 12.1016C47.9668 11.8438 47.7591 11.6361 47.4727 11.4785C47.1934 11.321 46.821 11.2422 46.3555 11.2422H42.9824V8.8252ZM56.3457 5.37695V17H53.252V5.37695H56.3457ZM62.1465 12.6816L66.0459 5.37695H69.1396V17H66.0459V9.68457L62.1465 17H59.0527V5.37695H62.1465V12.6816ZM65.6914 0.704102H67.8936C67.8936 1.31999 67.7396 1.86784 67.4316 2.34766C67.1309 2.82031 66.7012 3.19271 66.1426 3.46484C65.584 3.72982 64.9251 3.8623 64.166 3.8623C63.013 3.8623 62.0999 3.56868 61.4268 2.98145C60.7607 2.39421 60.4277 1.63509 60.4277 0.704102H62.6191C62.6191 1.0765 62.7337 1.40951 62.9629 1.70312C63.1992 1.99674 63.6003 2.14355 64.166 2.14355C64.7246 2.14355 65.1185 1.99674 65.3477 1.70312C65.5768 1.40951 65.6914 1.0765 65.6914 0.704102ZM80.4512 15.6895L83.5342 5.37695H86.8535L82.1807 18.751C82.0804 19.0446 81.9443 19.3597 81.7725 19.6963C81.6077 20.0329 81.3822 20.3516 81.0957 20.6523C80.8164 20.9603 80.4619 21.2109 80.0322 21.4043C79.6097 21.5977 79.0905 21.6943 78.4746 21.6943C78.181 21.6943 77.9411 21.6764 77.7549 21.6406C77.5687 21.6048 77.3467 21.5547 77.0889 21.4902V19.2236C77.1676 19.2236 77.25 19.2236 77.3359 19.2236C77.4219 19.2308 77.5042 19.2344 77.583 19.2344C77.9912 19.2344 78.3242 19.1878 78.582 19.0947C78.8398 19.0016 79.0475 18.8584 79.2051 18.665C79.3626 18.4788 79.488 18.2354 79.5811 17.9346L80.4512 15.6895ZM79.1621 5.37695L81.6865 13.7988L82.127 17.0752L80.0215 17.3008L75.8428 5.37695H79.1621ZM91.1826 7.61133V21.4688H88.0889V5.37695H90.957L91.1826 7.61133ZM98.541 11.0596V11.2852C98.541 12.1302 98.4408 12.9144 98.2402 13.6377C98.0469 14.361 97.7604 14.9912 97.3809 15.5283C97.0013 16.0583 96.5286 16.4736 95.9629 16.7744C95.4043 17.068 94.7598 17.2148 94.0293 17.2148C93.3203 17.2148 92.7044 17.0716 92.1816 16.7852C91.6589 16.4987 91.2184 16.0977 90.8604 15.582C90.5094 15.0592 90.2266 14.4541 90.0117 13.7666C89.7969 13.0791 89.6322 12.3415 89.5176 11.5537V10.9629C89.6322 10.1178 89.7969 9.3444 90.0117 8.64258C90.2266 7.93359 90.5094 7.32129 90.8604 6.80566C91.2184 6.28288 91.6553 5.87826 92.1709 5.5918C92.6937 5.30534 93.306 5.16211 94.0078 5.16211C94.7454 5.16211 95.3936 5.30176 95.9521 5.58105C96.5179 5.86035 96.9906 6.26139 97.3701 6.78418C97.7568 7.30697 98.0469 7.93001 98.2402 8.65332C98.4408 9.37663 98.541 10.1787 98.541 11.0596ZM95.4365 11.2852V11.0596C95.4365 10.5654 95.3936 10.1107 95.3076 9.69531C95.2288 9.27279 95.0999 8.90397 94.9209 8.58887C94.749 8.27376 94.5199 8.03027 94.2334 7.8584C93.9541 7.67936 93.6139 7.58984 93.2129 7.58984C92.7904 7.58984 92.4287 7.65788 92.1279 7.79395C91.8343 7.93001 91.5944 8.12695 91.4082 8.38477C91.222 8.64258 91.0824 8.95052 90.9893 9.30859C90.8962 9.66667 90.8389 10.0713 90.8174 10.5225V12.0156C90.8532 12.5456 90.9535 13.0218 91.1182 13.4443C91.2829 13.8597 91.5371 14.1891 91.8809 14.4326C92.2246 14.6761 92.6758 14.7979 93.2344 14.7979C93.6426 14.7979 93.9863 14.7083 94.2656 14.5293C94.5449 14.3431 94.7705 14.0889 94.9424 13.7666C95.1214 13.4443 95.2467 13.0719 95.3184 12.6494C95.3971 12.2269 95.4365 11.7721 95.4365 11.2852ZM99.9697 11.3066V11.0811C99.9697 10.2288 100.091 9.44466 100.335 8.72852C100.578 8.00521 100.933 7.37858 101.398 6.84863C101.864 6.31868 102.437 5.9069 103.117 5.61328C103.798 5.3125 104.578 5.16211 105.459 5.16211C106.34 5.16211 107.124 5.3125 107.812 5.61328C108.499 5.9069 109.076 6.31868 109.541 6.84863C110.014 7.37858 110.372 8.00521 110.615 8.72852C110.859 9.44466 110.98 10.2288 110.98 11.0811V11.3066C110.98 12.1517 110.859 12.9359 110.615 13.6592C110.372 14.3753 110.014 15.002 109.541 15.5391C109.076 16.069 108.503 16.4808 107.822 16.7744C107.142 17.068 106.361 17.2148 105.48 17.2148C104.6 17.2148 103.815 17.068 103.128 16.7744C102.448 16.4808 101.871 16.069 101.398 15.5391C100.933 15.002 100.578 14.3753 100.335 13.6592C100.091 12.9359 99.9697 12.1517 99.9697 11.3066ZM103.063 11.0811V11.3066C103.063 11.7936 103.106 12.2484 103.192 12.6709C103.278 13.0934 103.414 13.4658 103.601 13.7881C103.794 14.1032 104.045 14.3503 104.353 14.5293C104.66 14.7083 105.036 14.7979 105.48 14.7979C105.91 14.7979 106.279 14.7083 106.587 14.5293C106.895 14.3503 107.142 14.1032 107.328 13.7881C107.514 13.4658 107.65 13.0934 107.736 12.6709C107.829 12.2484 107.876 11.7936 107.876 11.3066V11.0811C107.876 10.6084 107.829 10.1644 107.736 9.74902C107.65 9.3265 107.511 8.9541 107.317 8.63184C107.131 8.30241 106.884 8.0446 106.576 7.8584C106.268 7.6722 105.896 7.5791 105.459 7.5791C105.022 7.5791 104.65 7.6722 104.342 7.8584C104.041 8.0446 103.794 8.30241 103.601 8.63184C103.414 8.9541 103.278 9.3265 103.192 9.74902C103.106 10.1644 103.063 10.6084 103.063 11.0811ZM118.672 12.1445H115.03L115.009 10.1143H118.017C118.418 10.1143 118.743 10.0749 118.994 9.99609C119.245 9.91016 119.427 9.78483 119.542 9.62012C119.664 9.44824 119.725 9.24056 119.725 8.99707C119.725 8.78223 119.685 8.59961 119.606 8.44922C119.535 8.29167 119.424 8.16276 119.273 8.0625C119.123 7.96224 118.933 7.89062 118.704 7.84766C118.482 7.79753 118.221 7.77246 117.92 7.77246H116.18V17H113.086V5.37695H117.92C118.679 5.37695 119.359 5.44499 119.961 5.58105C120.562 5.70996 121.075 5.9069 121.497 6.17188C121.927 6.43685 122.253 6.77344 122.475 7.18164C122.704 7.58268 122.818 8.05892 122.818 8.61035C122.818 8.96842 122.736 9.30501 122.571 9.62012C122.414 9.93522 122.177 10.2145 121.862 10.458C121.547 10.7015 121.157 10.902 120.691 11.0596C120.233 11.21 119.703 11.3031 119.102 11.3389L118.672 12.1445ZM118.672 17H114.268L115.331 14.6045H118.672C119.051 14.6045 119.363 14.5579 119.606 14.4648C119.85 14.3717 120.029 14.2357 120.144 14.0566C120.265 13.8704 120.326 13.6484 120.326 13.3906C120.326 13.14 120.272 12.9215 120.165 12.7354C120.058 12.5492 119.882 12.4059 119.639 12.3057C119.402 12.1982 119.08 12.1445 118.672 12.1445H115.782L115.804 10.1143H119.091L119.843 10.9307C120.659 10.9808 121.332 11.1348 121.862 11.3926C122.392 11.6504 122.783 11.9798 123.033 12.3809C123.291 12.7747 123.42 13.208 123.42 13.6807C123.42 14.2321 123.316 14.7155 123.108 15.1309C122.901 15.5462 122.593 15.8936 122.185 16.1729C121.784 16.445 121.289 16.6527 120.702 16.7959C120.115 16.932 119.438 17 118.672 17ZM130.671 17.2148C129.769 17.2148 128.959 17.0716 128.243 16.7852C127.527 16.4915 126.918 16.0869 126.417 15.5713C125.923 15.0557 125.543 14.4577 125.278 13.7773C125.013 13.0898 124.881 12.3594 124.881 11.5859V11.1562C124.881 10.2754 125.006 9.46973 125.257 8.73926C125.507 8.00879 125.866 7.375 126.331 6.83789C126.804 6.30078 127.377 5.889 128.05 5.60254C128.723 5.30892 129.482 5.16211 130.327 5.16211C131.151 5.16211 131.881 5.29818 132.519 5.57031C133.156 5.84245 133.689 6.22917 134.119 6.73047C134.556 7.23177 134.885 7.83333 135.107 8.53516C135.329 9.22982 135.44 10.0033 135.44 10.8555V12.1445H126.202V10.082H132.4V9.8457C132.4 9.41602 132.322 9.03288 132.164 8.69629C132.014 8.35254 131.785 8.0804 131.477 7.87988C131.169 7.67936 130.775 7.5791 130.295 7.5791C129.887 7.5791 129.536 7.66862 129.242 7.84766C128.949 8.02669 128.709 8.27734 128.522 8.59961C128.343 8.92188 128.207 9.30143 128.114 9.73828C128.028 10.168 127.985 10.6406 127.985 11.1562V11.5859C127.985 12.0514 128.05 12.4811 128.179 12.875C128.315 13.2689 128.505 13.609 128.748 13.8955C128.999 14.182 129.299 14.404 129.65 14.5615C130.008 14.7191 130.413 14.7979 130.864 14.7979C131.423 14.7979 131.942 14.6904 132.422 14.4756C132.909 14.2536 133.328 13.9206 133.679 13.4766L135.183 15.1094C134.939 15.4603 134.606 15.7969 134.184 16.1191C133.768 16.4414 133.267 16.7064 132.68 16.9141C132.092 17.1146 131.423 17.2148 130.671 17.2148ZM145.162 10.0713V12.4775H139.254V10.0713H145.162ZM140.285 5.37695V17H137.191V5.37695H140.285ZM147.257 5.37695V17H144.152V5.37695H147.257ZM151.801 8.8252H155.174C156.234 8.8252 157.136 9.00065 157.881 9.35156C158.633 9.69531 159.206 10.1751 159.6 10.791C160.001 11.4069 160.201 12.1195 160.201 12.9287C160.201 13.516 160.087 14.0602 159.857 14.5615C159.635 15.0557 159.31 15.4854 158.88 15.8506C158.45 16.2158 157.924 16.4987 157.301 16.6992C156.678 16.8997 155.969 17 155.174 17H149.867V5.37695H152.972V14.5938H155.174C155.639 14.5938 156.012 14.5186 156.291 14.3682C156.577 14.2106 156.785 14.0065 156.914 13.7559C157.05 13.5052 157.118 13.2331 157.118 12.9395C157.118 12.6315 157.05 12.3522 156.914 12.1016C156.785 11.8438 156.577 11.6361 156.291 11.4785C156.012 11.321 155.639 11.2422 155.174 11.2422H151.801V8.8252Z" fill="#535353"/>
</svg>
