<svg width="68" height="15" viewBox="0 0 68 15" fill="none" xmlns="http://www.w3.org/2000/svg">
<path d="M8.26172 6.47656V8.7002C8.26172 9.66113 8.1709 10.4873 7.98926 11.1787C7.80762 11.8701 7.55273 12.4385 7.22461 12.8838C6.89648 13.3232 6.50684 13.6484 6.05566 13.8594C5.60449 14.0703 5.10645 14.1758 4.56152 14.1758C4.12793 14.1758 3.7207 14.1084 3.33984 13.9736C2.95898 13.8389 2.61328 13.6338 2.30273 13.3584C1.99805 13.0771 1.73438 12.7227 1.51172 12.2949C1.29492 11.8613 1.12793 11.3486 1.01074 10.7568C0.893555 10.1592 0.834961 9.47363 0.834961 8.7002V6.47656C0.834961 5.51562 0.925781 4.69238 1.10742 4.00684C1.29492 3.31543 1.55273 2.75 1.88086 2.31055C2.20898 1.87109 2.59863 1.54883 3.0498 1.34375C3.50684 1.13281 4.00781 1.02734 4.55273 1.02734C4.98047 1.02734 5.38477 1.09473 5.76562 1.22949C6.14648 1.3584 6.48926 1.56055 6.79395 1.83594C7.09863 2.11133 7.35938 2.46582 7.57617 2.89941C7.79883 3.32715 7.96875 3.83984 8.08594 4.4375C8.20312 5.0293 8.26172 5.70898 8.26172 6.47656ZM5.79199 9.04297V6.11621C5.79199 5.66504 5.77148 5.26953 5.73047 4.92969C5.69531 4.58984 5.64258 4.30273 5.57227 4.06836C5.50781 3.83398 5.42285 3.64355 5.31738 3.49707C5.21777 3.35059 5.10352 3.24512 4.97461 3.18066C4.8457 3.11035 4.70508 3.0752 4.55273 3.0752C4.35938 3.0752 4.18652 3.12793 4.03418 3.2334C3.88184 3.33887 3.75 3.51172 3.63867 3.75195C3.52734 3.98633 3.44238 4.2998 3.38379 4.69238C3.33105 5.0791 3.30469 5.55371 3.30469 6.11621V9.04297C3.30469 9.49414 3.32227 9.89258 3.35742 10.2383C3.39844 10.584 3.4541 10.8799 3.52441 11.126C3.60059 11.3662 3.68555 11.5596 3.7793 11.7061C3.87891 11.8525 3.99316 11.9609 4.12207 12.0312C4.25684 12.0957 4.40332 12.1279 4.56152 12.1279C4.74902 12.1279 4.91895 12.0752 5.07129 11.9697C5.22949 11.8584 5.36133 11.6826 5.4668 11.4424C5.57227 11.2021 5.65137 10.8857 5.7041 10.4932C5.7627 10.0947 5.79199 9.61133 5.79199 9.04297ZM10.2393 12.7432C10.2393 12.3564 10.3682 12.0342 10.626 11.7764C10.8838 11.5127 11.2324 11.3809 11.6719 11.3809C12.1113 11.3809 12.46 11.5127 12.7178 11.7764C12.9756 12.0342 13.1045 12.3564 13.1045 12.7432C13.1045 13.1299 12.9756 13.4521 12.7178 13.71C12.46 13.9678 12.1113 14.0967 11.6719 14.0967C11.2324 14.0967 10.8838 13.9678 10.626 13.71C10.3682 13.4521 10.2393 13.1299 10.2393 12.7432ZM10.2217 5.53613C10.2217 5.14941 10.3506 4.82715 10.6084 4.56934C10.8662 4.30566 11.2148 4.17383 11.6543 4.17383C12.0938 4.17383 12.4424 4.30566 12.7002 4.56934C12.958 4.82715 13.0869 5.14941 13.0869 5.53613C13.0869 5.92285 12.958 6.24512 12.7002 6.50293C12.4424 6.76074 12.0938 6.88965 11.6543 6.88965C11.2148 6.88965 10.8662 6.76074 10.6084 6.50293C10.3506 6.24512 10.2217 5.92285 10.2217 5.53613ZM20.3291 1.17676V14H17.8594V4.2002L15.416 5.14062V3.08398L20.0566 1.17676H20.3291ZM31.5088 11.9521V14H23.9678V12.251L27.4307 7.84766C27.7646 7.39062 28.0254 6.98633 28.2129 6.63477C28.4004 6.2832 28.5352 5.96973 28.6172 5.69434C28.6992 5.41309 28.7402 5.14648 28.7402 4.89453C28.7402 4.51953 28.6963 4.19727 28.6084 3.92773C28.5205 3.65234 28.3887 3.44141 28.2129 3.29492C28.043 3.14258 27.832 3.06641 27.5801 3.06641C27.2754 3.06641 27.0234 3.16016 26.8242 3.34766C26.625 3.53516 26.4756 3.79297 26.376 4.12109C26.2822 4.44336 26.2354 4.80957 26.2354 5.21973H23.7656C23.7656 4.45801 23.9209 3.75781 24.2314 3.11914C24.5479 2.47461 24.9902 1.96484 25.5586 1.58984C26.1328 1.20898 26.8213 1.01855 27.624 1.01855C28.4033 1.01855 29.0596 1.16504 29.5928 1.45801C30.126 1.75098 30.5273 2.16992 30.7969 2.71484C31.0723 3.25391 31.21 3.90137 31.21 4.65723C31.21 5.0791 31.1543 5.49219 31.043 5.89648C30.9316 6.29492 30.7734 6.69336 30.5684 7.0918C30.3633 7.48438 30.1084 7.88574 29.8037 8.2959C29.5049 8.70605 29.1709 9.13086 28.8018 9.57031L27.1318 11.9521H31.5088ZM41.9062 11.8994V0.5H44.376V14L42.1436 14.0088L41.9062 11.8994ZM36.9756 9.5791V8.94629C36.9756 8.17285 37.04 7.49609 37.1689 6.91602C37.3037 6.33594 37.5029 5.85254 37.7666 5.46582C38.0303 5.0791 38.3525 4.79199 38.7334 4.60449C39.1201 4.41113 39.5625 4.31445 40.0605 4.31445C40.5117 4.31445 40.9072 4.42871 41.2471 4.65723C41.5928 4.87988 41.8857 5.19336 42.126 5.59766C42.3662 6.00195 42.5596 6.47949 42.7061 7.03027C42.8525 7.58105 42.9551 8.18457 43.0137 8.84082V9.75488C42.9434 10.376 42.835 10.9561 42.6885 11.4951C42.5479 12.0342 42.3545 12.5029 42.1084 12.9014C41.8682 13.2998 41.5781 13.6133 41.2383 13.8418C40.8984 14.0645 40.5029 14.1758 40.0518 14.1758C39.5537 14.1758 39.1113 14.0762 38.7246 13.877C38.3438 13.6777 38.0215 13.3848 37.7578 12.998C37.5 12.6055 37.3037 12.125 37.1689 11.5566C37.04 10.9824 36.9756 10.3232 36.9756 9.5791ZM39.4365 8.94629V9.5791C39.4365 10.0244 39.457 10.4082 39.498 10.7305C39.5449 11.0469 39.6182 11.3076 39.7178 11.5127C39.8232 11.7119 39.9609 11.8613 40.1309 11.9609C40.3008 12.0547 40.5117 12.1016 40.7637 12.1016C41.0918 12.1016 41.3584 12.0195 41.5635 11.8555C41.7686 11.6855 41.9209 11.4541 42.0205 11.1611C42.126 10.8623 42.1846 10.5195 42.1963 10.1328V8.47168C42.1846 8.14941 42.1465 7.85938 42.082 7.60156C42.0176 7.34375 41.9268 7.12402 41.8096 6.94238C41.6924 6.76074 41.5459 6.62012 41.3701 6.52051C41.2002 6.4209 41.001 6.37109 40.7725 6.37109C40.5264 6.37109 40.3154 6.4209 40.1396 6.52051C39.9697 6.62012 39.835 6.77539 39.7354 6.98633C39.6357 7.19141 39.5596 7.45801 39.5068 7.78613C39.46 8.1084 39.4365 8.49512 39.4365 8.94629ZM50.4229 11.8115V7.41699C50.4229 7.12988 50.3877 6.90137 50.3174 6.73145C50.2529 6.56152 50.1533 6.43848 50.0186 6.3623C49.8896 6.28027 49.7314 6.23926 49.5439 6.23926C49.333 6.23926 49.1572 6.2832 49.0166 6.37109C48.876 6.45898 48.7705 6.58496 48.7002 6.74902C48.6357 6.91309 48.6035 7.10938 48.6035 7.33789H46.1338C46.1338 6.92773 46.2129 6.54102 46.3711 6.17773C46.5293 5.80859 46.7607 5.48633 47.0654 5.21094C47.376 4.92969 47.7451 4.70996 48.1729 4.55176C48.6006 4.39355 49.0811 4.31445 49.6143 4.31445C50.2471 4.31445 50.8096 4.42285 51.3018 4.63965C51.7939 4.85059 52.1836 5.1875 52.4707 5.65039C52.7578 6.11328 52.9014 6.71387 52.9014 7.45215V11.6885C52.9014 12.2217 52.9277 12.6553 52.9805 12.9893C53.0391 13.3232 53.124 13.6104 53.2354 13.8506V14H50.7568C50.6455 13.7363 50.5605 13.4082 50.502 13.0156C50.4492 12.6172 50.4229 12.2158 50.4229 11.8115ZM50.7217 8.19043L50.7305 9.66699H49.8252C49.5908 9.66699 49.3857 9.70508 49.21 9.78125C49.04 9.85742 48.8965 9.96582 48.7793 10.1064C48.6621 10.2412 48.5742 10.3994 48.5156 10.5811C48.4629 10.7627 48.4365 10.9561 48.4365 11.1611C48.4365 11.3896 48.4688 11.583 48.5332 11.7412C48.5977 11.8994 48.6943 12.0195 48.8232 12.1016C48.9521 12.1836 49.1045 12.2246 49.2803 12.2246C49.5498 12.2246 49.7842 12.1689 49.9834 12.0576C50.1826 11.9463 50.3291 11.8115 50.4229 11.6533C50.5225 11.4951 50.5547 11.3486 50.5195 11.2139L51.082 12.1719C51.0117 12.3887 50.915 12.6143 50.792 12.8486C50.6748 13.083 50.5254 13.2998 50.3438 13.499C50.1621 13.6982 49.9365 13.8623 49.667 13.9912C49.4033 14.1143 49.0898 14.1758 48.7266 14.1758C48.2168 14.1758 47.751 14.0586 47.3291 13.8242C46.9072 13.5898 46.5732 13.2617 46.3271 12.8398C46.0869 12.418 45.9668 11.917 45.9668 11.3369C45.9668 10.8564 46.043 10.4229 46.1953 10.0361C46.3535 9.64355 46.5879 9.3125 46.8984 9.04297C47.209 8.76758 47.6016 8.55664 48.0762 8.41016C48.5508 8.26367 49.1074 8.19043 49.7461 8.19043H50.7217ZM58.8691 4.49023V6.34473H54.0176V4.49023H58.8691ZM55.1338 2.14355H57.5859V11.0996C57.5859 11.3574 57.6123 11.5596 57.665 11.7061C57.7178 11.8467 57.7969 11.9463 57.9023 12.0049C58.0137 12.0576 58.1572 12.084 58.333 12.084C58.4619 12.084 58.5791 12.0781 58.6846 12.0664C58.79 12.0488 58.8691 12.0312 58.9219 12.0137V13.9385C58.7285 14.0146 58.5234 14.0732 58.3066 14.1143C58.0957 14.1553 57.8438 14.1758 57.5508 14.1758C57.0586 14.1758 56.6309 14.085 56.2676 13.9033C55.9102 13.7158 55.6318 13.4141 55.4326 12.998C55.2334 12.582 55.1338 12.0371 55.1338 11.3633V2.14355ZM64.4326 11.8115V7.41699C64.4326 7.12988 64.3975 6.90137 64.3271 6.73145C64.2627 6.56152 64.1631 6.43848 64.0283 6.3623C63.8994 6.28027 63.7412 6.23926 63.5537 6.23926C63.3428 6.23926 63.167 6.2832 63.0264 6.37109C62.8857 6.45898 62.7803 6.58496 62.71 6.74902C62.6455 6.91309 62.6133 7.10938 62.6133 7.33789H60.1436C60.1436 6.92773 60.2227 6.54102 60.3809 6.17773C60.5391 5.80859 60.7705 5.48633 61.0752 5.21094C61.3857 4.92969 61.7549 4.70996 62.1826 4.55176C62.6104 4.39355 63.0908 4.31445 63.624 4.31445C64.2568 4.31445 64.8193 4.42285 65.3115 4.63965C65.8037 4.85059 66.1934 5.1875 66.4805 5.65039C66.7676 6.11328 66.9111 6.71387 66.9111 7.45215V11.6885C66.9111 12.2217 66.9375 12.6553 66.9902 12.9893C67.0488 13.3232 67.1338 13.6104 67.2451 13.8506V14H64.7666C64.6553 13.7363 64.5703 13.4082 64.5117 13.0156C64.459 12.6172 64.4326 12.2158 64.4326 11.8115ZM64.7314 8.19043L64.7402 9.66699H63.835C63.6006 9.66699 63.3955 9.70508 63.2197 9.78125C63.0498 9.85742 62.9062 9.96582 62.7891 10.1064C62.6719 10.2412 62.584 10.3994 62.5254 10.5811C62.4727 10.7627 62.4463 10.9561 62.4463 11.1611C62.4463 11.3896 62.4785 11.583 62.543 11.7412C62.6074 11.8994 62.7041 12.0195 62.833 12.1016C62.9619 12.1836 63.1143 12.2246 63.29 12.2246C63.5596 12.2246 63.7939 12.1689 63.9932 12.0576C64.1924 11.9463 64.3389 11.8115 64.4326 11.6533C64.5322 11.4951 64.5645 11.3486 64.5293 11.2139L65.0918 12.1719C65.0215 12.3887 64.9248 12.6143 64.8018 12.8486C64.6846 13.083 64.5352 13.2998 64.3535 13.499C64.1719 13.6982 63.9463 13.8623 63.6768 13.9912C63.4131 14.1143 63.0996 14.1758 62.7363 14.1758C62.2266 14.1758 61.7607 14.0586 61.3389 13.8242C60.917 13.5898 60.583 13.2617 60.3369 12.8398C60.0967 12.418 59.9766 11.917 59.9766 11.3369C59.9766 10.8564 60.0527 10.4229 60.2051 10.0361C60.3633 9.64355 60.5977 9.3125 60.9082 9.04297C61.2188 8.76758 61.6113 8.55664 62.0859 8.41016C62.5605 8.26367 63.1172 8.19043 63.7559 8.19043H64.7314Z" fill="white"/>
</svg>
