<svg width="110" height="70" viewBox="0 0 110 70" fill="none" xmlns="http://www.w3.org/2000/svg">
<path d="M38.0224 35.0713H36.3261V33.6387H37.6357C37.9462 33.6387 38.1982 33.5684 38.3915 33.4277C38.5849 33.2812 38.7284 33.082 38.8222 32.8301C38.9159 32.5723 38.9628 32.2676 38.9628 31.916C38.9628 31.6348 38.9071 31.377 38.7958 31.1426C38.6903 30.9082 38.5292 30.7207 38.3124 30.5801C38.1015 30.4336 37.8232 30.3604 37.4775 30.3604C37.2255 30.3604 36.997 30.4219 36.7919 30.5449C36.5868 30.6621 36.4257 30.832 36.3085 31.0547C36.1913 31.2773 36.1327 31.5469 36.1327 31.8633H33.5663C33.5663 31.2949 33.6689 30.7881 33.8739 30.3428C34.0849 29.8916 34.372 29.5107 34.7353 29.2002C35.0985 28.8838 35.5146 28.6436 35.9833 28.4795C36.4579 28.3154 36.956 28.2334 37.4775 28.2334C38.0985 28.2334 38.6552 28.3125 39.1474 28.4707C39.6396 28.623 40.0614 28.8516 40.413 29.1562C40.7704 29.4609 41.0429 29.8418 41.2304 30.2988C41.4237 30.75 41.5204 31.2744 41.5204 31.8721C41.5204 32.3115 41.4355 32.7246 41.2655 33.1113C41.0956 33.498 40.8554 33.8379 40.5448 34.1309C40.2343 34.4238 39.8622 34.6553 39.4286 34.8252C39.0009 34.9893 38.5321 35.0713 38.0224 35.0713ZM36.3261 34.2891H38.0224C38.5966 34.2891 39.1093 34.3623 39.5605 34.5088C40.0116 34.6553 40.3954 34.8691 40.7118 35.1504C41.0282 35.4316 41.2685 35.7803 41.4325 36.1963C41.6025 36.6064 41.6874 37.0781 41.6874 37.6113C41.6874 38.209 41.5819 38.7422 41.371 39.2109C41.1659 39.6738 40.8759 40.0664 40.5009 40.3887C40.1259 40.7109 39.6835 40.9541 39.1737 41.1182C38.664 41.2822 38.0985 41.3643 37.4775 41.3643C36.9911 41.3643 36.5048 41.2939 36.0185 41.1533C35.538 41.0068 35.1015 40.7842 34.7089 40.4854C34.3163 40.1865 34.0028 39.8027 33.7685 39.334C33.5341 38.8652 33.4169 38.3027 33.4169 37.6465H35.9921C35.9921 37.9395 36.0566 38.209 36.1855 38.4551C36.3144 38.6953 36.4901 38.8887 36.7128 39.0352C36.9355 39.1758 37.1903 39.2461 37.4775 39.2461C37.829 39.2461 38.1249 39.1729 38.3651 39.0264C38.6112 38.8799 38.7987 38.6807 38.9276 38.4287C39.0566 38.1709 39.121 37.8867 39.121 37.5762C39.121 37.2363 39.0888 36.9492 39.0243 36.7148C38.9657 36.4746 38.872 36.2812 38.7431 36.1348C38.6142 35.9824 38.456 35.8711 38.2685 35.8008C38.0868 35.7305 37.8759 35.6953 37.6357 35.6953H36.3261V34.2891ZM47.8837 35.6162H45.2558L45.247 33.7529H47.4794C47.831 33.7529 48.1181 33.6943 48.3407 33.5771C48.5692 33.4541 48.7362 33.2754 48.8417 33.041C48.953 32.8008 49.0087 32.5107 49.0087 32.1709C49.0087 31.7783 48.956 31.4648 48.8505 31.2305C48.7509 30.9902 48.5898 30.8145 48.3671 30.7031C48.1503 30.5918 47.8632 30.5361 47.5058 30.5361H46.1347V41.1973H43.5595V28.4004H47.5058C48.1386 28.4004 48.7069 28.4707 49.2108 28.6113C49.7148 28.752 50.1425 28.9688 50.4941 29.2617C50.8456 29.5488 51.1151 29.9121 51.3026 30.3516C51.4901 30.7852 51.5839 31.3008 51.5839 31.8984C51.5839 32.4258 51.4784 32.9121 51.2675 33.3574C51.0566 33.8027 50.7255 34.1689 50.2743 34.4561C49.8232 34.7373 49.2401 34.8926 48.5253 34.9219L47.8837 35.6162ZM47.787 41.1973H44.5263L45.5546 39.0703H47.787C48.1327 39.0703 48.4081 38.9971 48.6132 38.8506C48.8183 38.7041 48.9677 38.5078 49.0614 38.2617C49.161 38.0098 49.2108 37.7227 49.2108 37.4004C49.2108 37.0371 49.1669 36.7207 49.079 36.4512C48.997 36.1816 48.8593 35.9766 48.6659 35.8359C48.4726 35.6895 48.2118 35.6162 47.8837 35.6162H45.6689L45.6864 33.7529H48.3759L48.9823 34.4912C49.6679 34.4678 50.2157 34.5996 50.6259 34.8867C51.036 35.168 51.329 35.5371 51.5048 35.9941C51.6864 36.4453 51.7773 36.9258 51.7773 37.4355C51.7773 38.2559 51.622 38.9473 51.3114 39.5098C51.0067 40.0664 50.5585 40.4883 49.9667 40.7754C49.3749 41.0566 48.6483 41.1973 47.787 41.1973ZM56.8573 36.5303L59.3183 28.4004H62.078L58.5624 38.6924C58.4218 39.0498 58.2665 39.3926 58.0966 39.7207C57.9325 40.043 57.7362 40.3301 57.5077 40.582C57.2792 40.834 57.0038 41.0303 56.6816 41.1709C56.3593 41.3115 55.9755 41.3818 55.5302 41.3818C55.4247 41.3818 55.29 41.3789 55.1259 41.373C54.9677 41.3672 54.8388 41.3613 54.7392 41.3555L54.6952 39.2197C54.7538 39.2314 54.8505 39.2402 54.9853 39.2461C55.12 39.252 55.2138 39.2549 55.2665 39.2549C55.5419 39.2549 55.7499 39.208 55.8905 39.1143C56.037 39.0146 56.1483 38.874 56.2245 38.6924C56.3066 38.5107 56.3769 38.2969 56.4355 38.0508L56.8573 36.5303ZM55.662 28.4004L57.745 34.5791L58.5185 37.6289L56.6112 37.6553L52.911 28.4004H55.662ZM66.0507 28.4004V41.1973H63.4755V28.4004H66.0507ZM72.2821 28.4004L68.3007 35.9502H65.4618L65.1103 33.5156H66.9208L69.1796 28.4004H72.2821ZM69.5839 41.1973L66.9648 35.502L68.7314 33.5684L72.6337 41.1973H69.5839Z" fill="#4F4F4F"/>
<g opacity="0.55">
<rect x="85.5537" y="22.166" width="23.7568" height="24" fill="#828282"/>
<path fill-rule="evenodd" clip-rule="evenodd" d="M96.5342 40.9141L106.017 31.3346L102.878 28.1641L96.5336 34.5736L92.405 30.4027L89.2666 33.5733L96.4658 40.8461L96.4664 40.8455L96.5342 40.9141Z" fill="white"/>
</g>
<rect x="0.733398" y="0.951172" width="1.99577" height="68.6962" fill="#616161"/>
</svg>
