<svg width="144" height="26" viewBox="0 0 144 26" fill="none" xmlns="http://www.w3.org/2000/svg">
<path d="M11.0371 13.4785V16.7871H2.875V13.4785H11.0371ZM4.00977 5.41211V25.3184H0.00390625V5.41211H4.00977ZM13.9355 5.41211V25.3184H9.9707V5.41211H13.9355ZM24.6543 8.9668L20.375 25.3184H16.1504L22.3711 5.41211H25.0098L24.6543 8.9668ZM28.0312 25.3184L23.7246 8.9668L23.3281 5.41211H26.0078L32.2832 25.3184H28.0312ZM28.1816 17.8945V21.2168H19.1992V17.8945H28.1816ZM43.3711 18.6875H47.3496C47.2949 20.1823 46.9941 21.4447 46.4473 22.4746C45.9004 23.4954 45.1211 24.2702 44.1094 24.7988C43.1068 25.3275 41.8945 25.5918 40.4727 25.5918C39.3698 25.5918 38.39 25.4095 37.5332 25.0449C36.6764 24.6712 35.9473 24.1243 35.3457 23.4043C34.7441 22.6842 34.2884 21.7956 33.9785 20.7383C33.6777 19.6719 33.5273 18.446 33.5273 17.0605V13.6836C33.5273 12.2982 33.6868 11.0723 34.0059 10.0059C34.334 8.93945 34.7988 8.04622 35.4004 7.32617C36.0111 6.59701 36.7448 6.05013 37.6016 5.68555C38.4674 5.31185 39.4427 5.125 40.5273 5.125C41.9766 5.125 43.1888 5.39844 44.1641 5.94531C45.1393 6.49219 45.8913 7.28971 46.4199 8.33789C46.9577 9.37695 47.2812 10.6484 47.3906 12.1523H43.3848C43.3665 11.2044 43.2617 10.4616 43.0703 9.92383C42.888 9.37695 42.5964 8.99414 42.1953 8.77539C41.7943 8.54753 41.2383 8.43359 40.5273 8.43359C39.9987 8.43359 39.543 8.5293 39.1602 8.7207C38.7773 8.90299 38.4629 9.19922 38.2168 9.60938C37.9707 10.0195 37.7884 10.5573 37.6699 11.2227C37.5605 11.888 37.5059 12.6992 37.5059 13.6562V17.0605C37.5059 17.9993 37.556 18.8014 37.6562 19.4668C37.7565 20.123 37.916 20.6608 38.1348 21.0801C38.3535 21.4993 38.6497 21.8047 39.0234 21.9961C39.4062 22.1875 39.8893 22.2832 40.4727 22.2832C41.1471 22.2832 41.6895 22.1829 42.0996 21.9824C42.5189 21.7819 42.8288 21.4219 43.0293 20.9023C43.2298 20.3828 43.3438 19.6445 43.3711 18.6875ZM57.3711 5.41211V25.3184H53.3926V5.41211H57.3711ZM62.3203 5.41211V8.73438H48.5391V5.41211H62.3203ZM71.4258 18.3047H67.3516V14.9824H71.4258C72 14.9824 72.4648 14.8548 72.8203 14.5996C73.1758 14.3444 73.4355 13.9935 73.5996 13.5469C73.7637 13.0911 73.8457 12.5807 73.8457 12.0156C73.8457 11.4414 73.7637 10.9036 73.5996 10.4023C73.4355 9.90104 73.1758 9.5 72.8203 9.19922C72.4648 8.88932 72 8.73438 71.4258 8.73438H68.6504V25.3184H64.6445V5.41211H71.4258C72.7656 5.41211 73.9141 5.69466 74.8711 6.25977C75.8372 6.82487 76.5801 7.60417 77.0996 8.59766C77.6191 9.58203 77.8789 10.7122 77.8789 11.9883C77.8789 13.2734 77.6191 14.39 77.0996 15.3379C76.5801 16.2767 75.8372 17.0059 74.8711 17.5254C73.9141 18.0449 72.7656 18.3047 71.4258 18.3047ZM94.5449 13.8203V17.1426C94.5449 18.5462 94.3717 19.7767 94.0254 20.834C93.6882 21.8822 93.2051 22.7617 92.5762 23.4727C91.9564 24.1745 91.2044 24.7031 90.3203 25.0586C89.4453 25.4141 88.4746 25.5918 87.4082 25.5918C86.3418 25.5918 85.3665 25.4141 84.4824 25.0586C83.6074 24.7031 82.8509 24.1745 82.2129 23.4727C81.584 22.7617 81.0964 21.8822 80.75 20.834C80.4036 19.7767 80.2305 18.5462 80.2305 17.1426V13.8203C80.2305 12.3802 80.3991 11.1224 80.7363 10.0469C81.0736 8.96224 81.5612 8.0599 82.1992 7.33984C82.8372 6.61068 83.5938 6.0638 84.4688 5.69922C85.3438 5.32552 86.3145 5.13867 87.3809 5.13867C88.4473 5.13867 89.418 5.32552 90.293 5.69922C91.168 6.0638 91.9245 6.61068 92.5625 7.33984C93.2005 8.0599 93.6882 8.96224 94.0254 10.0469C94.3717 11.1224 94.5449 12.3802 94.5449 13.8203ZM90.5664 17.1426V13.793C90.5664 12.8451 90.498 12.0384 90.3613 11.373C90.2246 10.6986 90.0195 10.1471 89.7461 9.71875C89.4727 9.29036 89.14 8.97591 88.748 8.77539C88.3561 8.57487 87.9004 8.47461 87.3809 8.47461C86.8613 8.47461 86.401 8.57487 86 8.77539C85.6081 8.97591 85.2754 9.29036 85.002 9.71875C84.7376 10.1471 84.5371 10.6986 84.4004 11.373C84.2728 12.0384 84.209 12.8451 84.209 13.793V17.1426C84.209 18.054 84.2773 18.8333 84.4141 19.4805C84.5508 20.1276 84.7559 20.6562 85.0293 21.0664C85.3027 21.4766 85.6354 21.7819 86.0273 21.9824C86.4284 22.1738 86.8887 22.2695 87.4082 22.2695C87.9186 22.2695 88.3698 22.1738 88.7617 21.9824C89.1628 21.7819 89.4954 21.4766 89.7598 21.0664C90.0241 20.6562 90.2246 20.1276 90.3613 19.4805C90.498 18.8333 90.5664 18.054 90.5664 17.1426ZM101.203 18.0039L107.424 5.41211H111.225V25.3184H107.355V12.877L101.189 25.3184H97.3203V5.41211H101.203V18.0039ZM106.207 0.162109H109.023C109.023 0.964193 108.827 1.67057 108.436 2.28125C108.053 2.88281 107.506 3.35677 106.795 3.70312C106.093 4.04948 105.259 4.22266 104.293 4.22266C102.835 4.22266 101.682 3.8444 100.834 3.08789C99.9863 2.33138 99.5625 1.35612 99.5625 0.162109H102.352C102.352 0.636068 102.497 1.05534 102.789 1.41992C103.081 1.78451 103.582 1.9668 104.293 1.9668C104.995 1.9668 105.487 1.78451 105.77 1.41992C106.061 1.05534 106.207 0.636068 106.207 0.162109ZM118.471 5.41211V25.3184H114.465V5.41211H118.471ZM128.164 5.41211L121.971 17.1562H117.555L117.008 13.3691H119.824L123.338 5.41211H128.164ZM123.967 25.3184L119.893 16.459L122.641 13.4512L128.711 25.3184H123.967ZM133.988 18.0039L140.209 5.41211H144.01V25.3184H140.141V12.877L133.975 25.3184H130.105V5.41211H133.988V18.0039Z" fill="#4F4F4F"/>
</svg>
