<svg width="143" height="20" viewBox="0 0 143 20" fill="none" xmlns="http://www.w3.org/2000/svg">
<path d="M11.6067 7.16699V9.77734C11.6067 10.8802 11.4707 11.847 11.1985 12.6777C10.9336 13.5013 10.554 14.1924 10.0599 14.751C9.57288 15.3024 8.98206 15.7178 8.2874 15.9971C7.5999 16.2764 6.8372 16.416 5.99931 16.416C5.16142 16.416 4.39515 16.2764 3.70049 15.9971C3.01299 15.7178 2.41858 15.3024 1.91728 14.751C1.42314 14.1924 1.04 13.5013 0.767868 12.6777C0.495733 11.847 0.359665 10.8802 0.359665 9.77734V7.16699C0.359665 6.03548 0.492152 5.0472 0.757126 4.20215C1.0221 3.34993 1.40524 2.64095 1.90654 2.0752C2.40784 1.50228 3.00224 1.07259 3.68974 0.786133C4.37724 0.492513 5.13994 0.345703 5.97783 0.345703C6.81572 0.345703 7.57841 0.492513 8.26591 0.786133C8.95341 1.07259 9.54782 1.50228 10.0491 2.0752C10.5504 2.64095 10.9336 3.34993 11.1985 4.20215C11.4707 5.0472 11.6067 6.03548 11.6067 7.16699ZM8.48076 9.77734V7.14551C8.48076 6.40072 8.42705 5.76693 8.31963 5.24414C8.2122 4.71419 8.05107 4.28092 7.83623 3.94434C7.62138 3.60775 7.35999 3.36068 7.05205 3.20312C6.74411 3.04557 6.38603 2.9668 5.97783 2.9668C5.56963 2.9668 5.20797 3.04557 4.89287 3.20312C4.58493 3.36068 4.32353 3.60775 4.10869 3.94434C3.90101 4.28092 3.74345 4.71419 3.63603 5.24414C3.53577 5.76693 3.48564 6.40072 3.48564 7.14551V9.77734C3.48564 10.4935 3.53935 11.1058 3.64677 11.6143C3.7542 12.1227 3.91533 12.5381 4.13017 12.8604C4.34502 13.1826 4.60641 13.4225 4.91435 13.5801C5.22946 13.7305 5.59111 13.8057 5.99931 13.8057C6.40036 13.8057 6.75485 13.7305 7.06279 13.5801C7.37789 13.4225 7.63929 13.1826 7.84697 12.8604C8.05465 12.5381 8.2122 12.1227 8.31963 11.6143C8.42705 11.1058 8.48076 10.4935 8.48076 9.77734ZM26.6243 13.6123L26.4095 19.9717H23.4983V16.2012H22.4671V13.6123H26.6243ZM13.7874 16.2012V0.560547H16.9134V13.6016H21.5755V0.560547H24.7337V16.2012H13.7874ZM37.5384 13.6016V16.2012H30.7386V13.6016H37.5384ZM31.7161 0.560547V16.2012H28.5686V0.560547H31.7161ZM36.6253 6.89844V9.42285H30.7386V6.89844H36.6253ZM37.5169 0.560547V3.1709H30.7386V0.560547H37.5169ZM48.0442 6.89844V9.49805H41.6311V6.89844H48.0442ZM42.5228 0.560547V16.2012H39.3753V0.560547H42.5228ZM50.3216 0.560547V16.2012H47.2063V0.560547H50.3216ZM55.8323 10.4541L60.72 0.560547H63.7063V16.2012H60.6663V6.42578L55.8216 16.2012H52.7815V0.560547H55.8323V10.4541ZM72.139 0.560547V16.2012H69.013V0.560547H72.139ZM76.0276 0.560547V3.1709H65.1995V0.560547H76.0276ZM80.1311 6.18945H83.1067C84.1523 6.18945 85.0582 6.39355 85.8245 6.80176C86.5908 7.20996 87.1816 7.78646 87.597 8.53125C88.0195 9.27604 88.2308 10.1462 88.2308 11.1416C88.2308 11.8936 88.109 12.5775 87.8655 13.1934C87.6292 13.8092 87.2854 14.3428 86.8343 14.7939C86.3903 15.2451 85.8532 15.5924 85.2229 15.8359C84.5999 16.0794 83.8945 16.2012 83.1067 16.2012H78.0149V0.560547H81.1624V13.6016H83.1067C83.5507 13.6016 83.916 13.4906 84.2024 13.2686C84.4961 13.0394 84.7181 12.7386 84.8685 12.3662C85.0188 11.9867 85.094 11.5713 85.094 11.1201C85.094 10.6833 85.0188 10.2894 84.8685 9.93848C84.7181 9.58757 84.4961 9.31185 84.2024 9.11133C83.916 8.90365 83.5507 8.7998 83.1067 8.7998H80.1311V6.18945ZM98.1351 10.4541L103.023 0.560547H106.009V16.2012H102.969V6.42578L98.1243 16.2012H95.0843V0.560547H98.1351V10.4541ZM117.331 0.560547V3.1709H111.702V16.2012H108.566V0.560547H117.331ZM124.625 10.6904H121.424V8.08008H124.625C125.076 8.08008 125.442 7.97982 125.721 7.7793C126 7.57878 126.204 7.30306 126.333 6.95215C126.462 6.59408 126.527 6.19303 126.527 5.74902C126.527 5.29785 126.462 4.87533 126.333 4.48145C126.204 4.08757 126 3.77246 125.721 3.53613C125.442 3.29264 125.076 3.1709 124.625 3.1709H122.445V16.2012H119.297V0.560547H124.625C125.678 0.560547 126.58 0.782552 127.332 1.22656C128.091 1.67057 128.675 2.28288 129.083 3.06348C129.492 3.83691 129.696 4.72493 129.696 5.72754C129.696 6.7373 129.492 7.61458 129.083 8.35938C128.675 9.09701 128.091 9.66992 127.332 10.0781C126.58 10.4863 125.678 10.6904 124.625 10.6904ZM135.851 10.4971L138.859 0.560547H142.232L137.935 13.1396C137.763 13.5765 137.573 13.9954 137.366 14.3965C137.165 14.7904 136.925 15.1413 136.646 15.4492C136.367 15.7572 136.03 15.9971 135.636 16.1689C135.242 16.3408 134.773 16.4268 134.229 16.4268C134.1 16.4268 133.935 16.4232 133.735 16.416C133.541 16.4089 133.384 16.4017 133.262 16.3945L133.208 13.7842C133.28 13.7985 133.398 13.8092 133.563 13.8164C133.728 13.8236 133.842 13.8271 133.907 13.8271C134.243 13.8271 134.497 13.7699 134.669 13.6553C134.848 13.5335 134.984 13.3617 135.077 13.1396C135.178 12.9176 135.264 12.6562 135.335 12.3555L135.851 10.4971ZM134.39 0.560547L136.936 8.1123L137.881 11.8398L135.55 11.8721L131.028 0.560547H134.39Z" fill="#F2F2F2"/>
</svg>
