<svg width="57" height="17" viewBox="0 0 57 17" fill="none" xmlns="http://www.w3.org/2000/svg">
<path d="M1.33678 0.359375H4.09752L7.28795 11.0586L10.4676 0.359375H12.9061L8.45885 16H6.10631L1.33678 0.359375ZM0.219593 0.359375H2.85143L3.25963 10.6719V16H0.219593V0.359375ZM11.703 0.359375H14.3456V16H11.3163V10.6719L11.703 0.359375ZM25.8827 13.4004V16H19.0829V13.4004H25.8827ZM20.0604 0.359375V16H16.913V0.359375H20.0604ZM24.9696 6.69727V9.22168H19.0829V6.69727H24.9696ZM25.8612 0.359375V2.96973H19.0829V0.359375H25.8612ZM36.3885 6.69727V9.29688H29.9755V6.69727H36.3885ZM30.8671 0.359375V16H27.7196V0.359375H30.8671ZM38.6659 0.359375V16H35.5506V0.359375H38.6659ZM44.4344 0.359375V16H41.2977V0.359375H44.4344ZM46.8299 7.2666V9.75879H43.1669V7.2666H46.8299ZM56.9491 6.96582V9.57617C56.9491 10.679 56.813 11.6458 56.5409 12.4766C56.2759 13.3001 55.8964 13.9912 55.4022 14.5498C54.9152 15.1012 54.3244 15.5166 53.6297 15.7959C52.9422 16.0752 52.176 16.2148 51.3309 16.2148C50.5002 16.2148 49.7375 16.0752 49.0428 15.7959C48.3553 15.5166 47.7609 15.1012 47.2596 14.5498C46.7583 13.9912 46.3716 13.3001 46.0995 12.4766C45.8345 11.6458 45.702 10.679 45.702 9.57617V6.96582C45.702 5.83431 45.8345 4.84603 46.0995 4.00098C46.3644 3.14876 46.7476 2.43978 47.2489 1.87402C47.7502 1.30111 48.3446 0.871419 49.0321 0.584961C49.7196 0.291341 50.4787 0.144531 51.3094 0.144531C52.1545 0.144531 52.9208 0.291341 53.6083 0.584961C54.2958 0.871419 54.8902 1.30111 55.3915 1.87402C55.8928 2.43978 56.2759 3.14876 56.5409 4.00098C56.813 4.84603 56.9491 5.83431 56.9491 6.96582ZM53.8231 9.57617V6.94434C53.8231 6.19954 53.7658 5.56576 53.6512 5.04297C53.5438 4.51302 53.3827 4.07975 53.1678 3.74316C52.9602 3.40658 52.6988 3.15951 52.3837 3.00195C52.0757 2.8444 51.7176 2.76562 51.3094 2.76562C50.9084 2.76562 50.5503 2.8444 50.2352 3.00195C49.9273 3.15951 49.6659 3.40658 49.451 3.74316C49.2434 4.07975 49.0858 4.51302 48.9784 5.04297C48.8781 5.56576 48.828 6.19954 48.828 6.94434V9.57617C48.828 10.2923 48.8817 10.9046 48.9891 11.4131C49.0965 11.9215 49.2577 12.3369 49.4725 12.6592C49.6874 12.9814 49.9488 13.2214 50.2567 13.3789C50.5718 13.5293 50.9299 13.6045 51.3309 13.6045C51.7391 13.6045 52.0972 13.5293 52.4051 13.3789C52.7202 13.2214 52.9816 12.9814 53.1893 12.6592C53.397 12.3369 53.5546 11.9215 53.662 11.4131C53.7694 10.9046 53.8231 10.2923 53.8231 9.57617Z" fill="#F2F2F2"/>
</svg>
