<svg width="67" height="13" viewBox="0 0 67 13" fill="none" xmlns="http://www.w3.org/2000/svg">
<path d="M8.82031 0.625V12H6.53906V2.52344H3.15625V12H0.867188V0.625H8.82031ZM18.6875 5.42969V7.32812C18.6875 8.13021 18.5885 8.83333 18.3906 9.4375C18.1979 10.0365 17.9219 10.5391 17.5625 10.9453C17.2083 11.3464 16.7786 11.6484 16.2734 11.8516C15.7734 12.0547 15.2188 12.1562 14.6094 12.1562C14 12.1562 13.4427 12.0547 12.9375 11.8516C12.4375 11.6484 12.0052 11.3464 11.6406 10.9453C11.2812 10.5391 11.0026 10.0365 10.8047 9.4375C10.6068 8.83333 10.5078 8.13021 10.5078 7.32812V5.42969C10.5078 4.60677 10.6042 3.88802 10.7969 3.27344C10.9896 2.65365 11.2682 2.13802 11.6328 1.72656C11.9974 1.3099 12.4297 0.997396 12.9297 0.789062C13.4297 0.575521 13.9844 0.46875 14.5938 0.46875C15.2031 0.46875 15.7578 0.575521 16.2578 0.789062C16.7578 0.997396 17.1901 1.3099 17.5547 1.72656C17.9193 2.13802 18.1979 2.65365 18.3906 3.27344C18.5885 3.88802 18.6875 4.60677 18.6875 5.42969ZM16.4141 7.32812V5.41406C16.4141 4.8724 16.375 4.41146 16.2969 4.03125C16.2188 3.64583 16.1016 3.33073 15.9453 3.08594C15.7891 2.84115 15.599 2.66146 15.375 2.54688C15.151 2.43229 14.8906 2.375 14.5938 2.375C14.2969 2.375 14.0339 2.43229 13.8047 2.54688C13.5807 2.66146 13.3906 2.84115 13.2344 3.08594C13.0833 3.33073 12.9688 3.64583 12.8906 4.03125C12.8177 4.41146 12.7812 4.8724 12.7812 5.41406V7.32812C12.7812 7.84896 12.8203 8.29427 12.8984 8.66406C12.9766 9.03385 13.0938 9.33594 13.25 9.57031C13.4062 9.80469 13.5964 9.97917 13.8203 10.0938C14.0495 10.2031 14.3125 10.2578 14.6094 10.2578C14.901 10.2578 15.1589 10.2031 15.3828 10.0938C15.612 9.97917 15.8021 9.80469 15.9531 9.57031C16.1042 9.33594 16.2188 9.03385 16.2969 8.66406C16.375 8.29427 16.4141 7.84896 16.4141 7.32812ZM26.75 0.625V2.52344H22.6562V12H20.375V0.625H26.75ZM30.3203 7.82031L33.875 0.625H36.0469V12H33.8359V4.89062L30.3125 12H28.1016V0.625H30.3203V7.82031ZM44.2422 0.625V2.52344H40.1562V12H37.875V0.625H44.2422ZM39.4141 4.71875H41.5781C42.3385 4.71875 42.9974 4.86719 43.5547 5.16406C44.112 5.46094 44.5417 5.88021 44.8438 6.42188C45.151 6.96354 45.3047 7.59635 45.3047 8.32031C45.3047 8.86719 45.2161 9.36458 45.0391 9.8125C44.8672 10.2604 44.6172 10.6484 44.2891 10.9766C43.9661 11.3047 43.5755 11.5573 43.1172 11.7344C42.6641 11.9115 42.151 12 41.5781 12H37.875V0.625H40.1641V10.1094H41.5781C41.901 10.1094 42.1667 10.0286 42.375 9.86719C42.5885 9.70052 42.75 9.48177 42.8594 9.21094C42.9688 8.9349 43.0234 8.63281 43.0234 8.30469C43.0234 7.98698 42.9688 7.70052 42.8594 7.44531C42.75 7.1901 42.5885 6.98958 42.375 6.84375C42.1667 6.69271 41.901 6.61719 41.5781 6.61719H39.4141V4.71875ZM58.2969 5.42969V7.32812C58.2969 8.13021 58.1979 8.83333 58 9.4375C57.8073 10.0365 57.5312 10.5391 57.1719 10.9453C56.8177 11.3464 56.388 11.6484 55.8828 11.8516C55.3828 12.0547 54.8281 12.1562 54.2188 12.1562C53.6094 12.1562 53.0521 12.0547 52.5469 11.8516C52.0469 11.6484 51.6146 11.3464 51.25 10.9453C50.8906 10.5391 50.612 10.0365 50.4141 9.4375C50.2161 8.83333 50.1172 8.13021 50.1172 7.32812V5.42969C50.1172 4.60677 50.2135 3.88802 50.4062 3.27344C50.599 2.65365 50.8776 2.13802 51.2422 1.72656C51.6068 1.3099 52.0391 0.997396 52.5391 0.789062C53.0391 0.575521 53.5938 0.46875 54.2031 0.46875C54.8125 0.46875 55.3672 0.575521 55.8672 0.789062C56.3672 0.997396 56.7995 1.3099 57.1641 1.72656C57.5286 2.13802 57.8073 2.65365 58 3.27344C58.1979 3.88802 58.2969 4.60677 58.2969 5.42969ZM56.0234 7.32812V5.41406C56.0234 4.8724 55.9844 4.41146 55.9062 4.03125C55.8281 3.64583 55.7109 3.33073 55.5547 3.08594C55.3984 2.84115 55.2083 2.66146 54.9844 2.54688C54.7604 2.43229 54.5 2.375 54.2031 2.375C53.9062 2.375 53.6432 2.43229 53.4141 2.54688C53.1901 2.66146 53 2.84115 52.8438 3.08594C52.6927 3.33073 52.5781 3.64583 52.5 4.03125C52.4271 4.41146 52.3906 4.8724 52.3906 5.41406V7.32812C52.3906 7.84896 52.4297 8.29427 52.5078 8.66406C52.5859 9.03385 52.7031 9.33594 52.8594 9.57031C53.0156 9.80469 53.2057 9.97917 53.4297 10.0938C53.6589 10.2031 53.9219 10.2578 54.2188 10.2578C54.5104 10.2578 54.7682 10.2031 54.9922 10.0938C55.2214 9.97917 55.4115 9.80469 55.5625 9.57031C55.7135 9.33594 55.8281 9.03385 55.9062 8.66406C55.9844 8.29427 56.0234 7.84896 56.0234 7.32812ZM63.8359 0.625V12H61.5625V0.625H63.8359ZM66.6641 0.625V2.52344H58.7891V0.625H66.6641Z" fill="#4F4F4F"/>
</svg>
