<svg width="38" height="12" viewBox="0 0 38 12" fill="none" xmlns="http://www.w3.org/2000/svg">
<path d="M6.12109 5.14844V6.87793C6.12109 7.62533 6.05046 8.2679 5.90918 8.80566C5.7679 9.34342 5.56966 9.78548 5.31445 10.1318C5.05924 10.4736 4.75618 10.7266 4.40527 10.8906C4.05436 11.0547 3.66699 11.1367 3.24316 11.1367C2.90592 11.1367 2.58919 11.0843 2.29297 10.9795C1.99674 10.8747 1.72786 10.7152 1.48633 10.501C1.24935 10.2822 1.04427 10.0065 0.871094 9.67383C0.702474 9.33659 0.572591 8.93783 0.481445 8.47754C0.390299 8.0127 0.344727 7.47949 0.344727 6.87793V5.14844C0.344727 4.40104 0.415365 3.76074 0.556641 3.22754C0.702474 2.68978 0.902995 2.25 1.1582 1.9082C1.41341 1.56641 1.71647 1.31576 2.06738 1.15625C2.42285 0.992188 2.8125 0.910156 3.23633 0.910156C3.56901 0.910156 3.88346 0.962565 4.17969 1.06738C4.47591 1.16764 4.74251 1.32487 4.97949 1.53906C5.21647 1.75326 5.41927 2.02897 5.58789 2.36621C5.76107 2.69889 5.89323 3.09766 5.98438 3.5625C6.07552 4.02279 6.12109 4.55143 6.12109 5.14844ZM4.2002 7.14453V4.86816C4.2002 4.51725 4.18424 4.20964 4.15234 3.94531C4.125 3.68099 4.08398 3.45768 4.0293 3.27539C3.97917 3.0931 3.91309 2.94499 3.83105 2.83105C3.75358 2.71712 3.66471 2.63509 3.56445 2.58496C3.46419 2.53027 3.35482 2.50293 3.23633 2.50293C3.08594 2.50293 2.9515 2.54395 2.83301 2.62598C2.71452 2.70801 2.61198 2.84245 2.52539 3.0293C2.4388 3.21159 2.37272 3.4554 2.32715 3.76074C2.28613 4.06152 2.26562 4.43066 2.26562 4.86816V7.14453C2.26562 7.49544 2.2793 7.80534 2.30664 8.07422C2.33854 8.3431 2.38184 8.57324 2.43652 8.76465C2.49577 8.9515 2.56185 9.10189 2.63477 9.21582C2.71224 9.32975 2.80111 9.41406 2.90137 9.46875C3.00618 9.51888 3.12012 9.54395 3.24316 9.54395C3.389 9.54395 3.52116 9.50293 3.63965 9.4209C3.7627 9.33431 3.86523 9.19759 3.94727 9.01074C4.0293 8.82389 4.09082 8.5778 4.13184 8.27246C4.17741 7.96257 4.2002 7.58659 4.2002 7.14453ZM13.2031 5.14844V6.87793C13.2031 7.62533 13.1325 8.2679 12.9912 8.80566C12.8499 9.34342 12.6517 9.78548 12.3965 10.1318C12.1413 10.4736 11.8382 10.7266 11.4873 10.8906C11.1364 11.0547 10.749 11.1367 10.3252 11.1367C9.98796 11.1367 9.67122 11.0843 9.375 10.9795C9.07878 10.8747 8.8099 10.7152 8.56836 10.501C8.33138 10.2822 8.1263 10.0065 7.95312 9.67383C7.78451 9.33659 7.65462 8.93783 7.56348 8.47754C7.47233 8.0127 7.42676 7.47949 7.42676 6.87793V5.14844C7.42676 4.40104 7.4974 3.76074 7.63867 3.22754C7.78451 2.68978 7.98503 2.25 8.24023 1.9082C8.49544 1.56641 8.7985 1.31576 9.14941 1.15625C9.50488 0.992188 9.89453 0.910156 10.3184 0.910156C10.651 0.910156 10.9655 0.962565 11.2617 1.06738C11.5579 1.16764 11.8245 1.32487 12.0615 1.53906C12.2985 1.75326 12.5013 2.02897 12.6699 2.36621C12.8431 2.69889 12.9753 3.09766 13.0664 3.5625C13.1576 4.02279 13.2031 4.55143 13.2031 5.14844ZM11.2822 7.14453V4.86816C11.2822 4.51725 11.2663 4.20964 11.2344 3.94531C11.207 3.68099 11.166 3.45768 11.1113 3.27539C11.0612 3.0931 10.9951 2.94499 10.9131 2.83105C10.8356 2.71712 10.7467 2.63509 10.6465 2.58496C10.5462 2.53027 10.4368 2.50293 10.3184 2.50293C10.168 2.50293 10.0335 2.54395 9.91504 2.62598C9.79655 2.70801 9.69401 2.84245 9.60742 3.0293C9.52083 3.21159 9.45475 3.4554 9.40918 3.76074C9.36816 4.06152 9.34766 4.43066 9.34766 4.86816V7.14453C9.34766 7.49544 9.36133 7.80534 9.38867 8.07422C9.42057 8.3431 9.46387 8.57324 9.51855 8.76465C9.5778 8.9515 9.64388 9.10189 9.7168 9.21582C9.79427 9.32975 9.88314 9.41406 9.9834 9.46875C10.0882 9.51888 10.2021 9.54395 10.3252 9.54395C10.471 9.54395 10.6032 9.50293 10.7217 9.4209C10.8447 9.33431 10.9473 9.19759 11.0293 9.01074C11.1113 8.82389 11.1729 8.5778 11.2139 8.27246C11.2594 7.96257 11.2822 7.58659 11.2822 7.14453ZM17.9678 10.0225C17.9678 9.72168 18.068 9.47103 18.2686 9.27051C18.4691 9.06543 18.7402 8.96289 19.082 8.96289C19.4238 8.96289 19.695 9.06543 19.8955 9.27051C20.096 9.47103 20.1963 9.72168 20.1963 10.0225C20.1963 10.3232 20.096 10.5739 19.8955 10.7744C19.695 10.9749 19.4238 11.0752 19.082 11.0752C18.7402 11.0752 18.4691 10.9749 18.2686 10.7744C18.068 10.5739 17.9678 10.3232 17.9678 10.0225ZM17.9541 4.41699C17.9541 4.11621 18.0544 3.86556 18.2549 3.66504C18.4554 3.45996 18.7266 3.35742 19.0684 3.35742C19.4102 3.35742 19.6813 3.45996 19.8818 3.66504C20.0824 3.86556 20.1826 4.11621 20.1826 4.41699C20.1826 4.71777 20.0824 4.96842 19.8818 5.16895C19.6813 5.36947 19.4102 5.46973 19.0684 5.46973C18.7266 5.46973 18.4554 5.36947 18.2549 5.16895C18.0544 4.96842 17.9541 4.71777 17.9541 4.41699ZM30.5664 5.14844V6.87793C30.5664 7.62533 30.4958 8.2679 30.3545 8.80566C30.2132 9.34342 30.015 9.78548 29.7598 10.1318C29.5046 10.4736 29.2015 10.7266 28.8506 10.8906C28.4997 11.0547 28.1123 11.1367 27.6885 11.1367C27.3512 11.1367 27.0345 11.0843 26.7383 10.9795C26.4421 10.8747 26.1732 10.7152 25.9316 10.501C25.6947 10.2822 25.4896 10.0065 25.3164 9.67383C25.1478 9.33659 25.0179 8.93783 24.9268 8.47754C24.8356 8.0127 24.79 7.47949 24.79 6.87793V5.14844C24.79 4.40104 24.8607 3.76074 25.002 3.22754C25.1478 2.68978 25.3483 2.25 25.6035 1.9082C25.8587 1.56641 26.1618 1.31576 26.5127 1.15625C26.8682 0.992188 27.2578 0.910156 27.6816 0.910156C28.0143 0.910156 28.3288 0.962565 28.625 1.06738C28.9212 1.16764 29.1878 1.32487 29.4248 1.53906C29.6618 1.75326 29.8646 2.02897 30.0332 2.36621C30.2064 2.69889 30.3385 3.09766 30.4297 3.5625C30.5208 4.02279 30.5664 4.55143 30.5664 5.14844ZM28.6455 7.14453V4.86816C28.6455 4.51725 28.6296 4.20964 28.5977 3.94531C28.5703 3.68099 28.5293 3.45768 28.4746 3.27539C28.4245 3.0931 28.3584 2.94499 28.2764 2.83105C28.1989 2.71712 28.11 2.63509 28.0098 2.58496C27.9095 2.53027 27.8001 2.50293 27.6816 2.50293C27.5312 2.50293 27.3968 2.54395 27.2783 2.62598C27.1598 2.70801 27.0573 2.84245 26.9707 3.0293C26.8841 3.21159 26.818 3.4554 26.7725 3.76074C26.7314 4.06152 26.7109 4.43066 26.7109 4.86816V7.14453C26.7109 7.49544 26.7246 7.80534 26.752 8.07422C26.7839 8.3431 26.8271 8.57324 26.8818 8.76465C26.9411 8.9515 27.0072 9.10189 27.0801 9.21582C27.1576 9.32975 27.2464 9.41406 27.3467 9.46875C27.4515 9.51888 27.5654 9.54395 27.6885 9.54395C27.8343 9.54395 27.9665 9.50293 28.085 9.4209C28.208 9.33431 28.3105 9.19759 28.3926 9.01074C28.4746 8.82389 28.5361 8.5778 28.5771 8.27246C28.6227 7.96257 28.6455 7.58659 28.6455 7.14453ZM37.6484 5.14844V6.87793C37.6484 7.62533 37.5778 8.2679 37.4365 8.80566C37.2952 9.34342 37.097 9.78548 36.8418 10.1318C36.5866 10.4736 36.2835 10.7266 35.9326 10.8906C35.5817 11.0547 35.1943 11.1367 34.7705 11.1367C34.4333 11.1367 34.1165 11.0843 33.8203 10.9795C33.5241 10.8747 33.2552 10.7152 33.0137 10.501C32.7767 10.2822 32.5716 10.0065 32.3984 9.67383C32.2298 9.33659 32.0999 8.93783 32.0088 8.47754C31.9176 8.0127 31.8721 7.47949 31.8721 6.87793V5.14844C31.8721 4.40104 31.9427 3.76074 32.084 3.22754C32.2298 2.68978 32.4303 2.25 32.6855 1.9082C32.9408 1.56641 33.2438 1.31576 33.5947 1.15625C33.9502 0.992188 34.3398 0.910156 34.7637 0.910156C35.0964 0.910156 35.4108 0.962565 35.707 1.06738C36.0033 1.16764 36.2699 1.32487 36.5068 1.53906C36.7438 1.75326 36.9466 2.02897 37.1152 2.36621C37.2884 2.69889 37.4206 3.09766 37.5117 3.5625C37.6029 4.02279 37.6484 4.55143 37.6484 5.14844ZM35.7275 7.14453V4.86816C35.7275 4.51725 35.7116 4.20964 35.6797 3.94531C35.6523 3.68099 35.6113 3.45768 35.5566 3.27539C35.5065 3.0931 35.4404 2.94499 35.3584 2.83105C35.2809 2.71712 35.1921 2.63509 35.0918 2.58496C34.9915 2.53027 34.8822 2.50293 34.7637 2.50293C34.6133 2.50293 34.4788 2.54395 34.3604 2.62598C34.2419 2.70801 34.1393 2.84245 34.0527 3.0293C33.9661 3.21159 33.9001 3.4554 33.8545 3.76074C33.8135 4.06152 33.793 4.43066 33.793 4.86816V7.14453C33.793 7.49544 33.8066 7.80534 33.834 8.07422C33.8659 8.3431 33.9092 8.57324 33.9639 8.76465C34.0231 8.9515 34.0892 9.10189 34.1621 9.21582C34.2396 9.32975 34.3285 9.41406 34.4287 9.46875C34.5335 9.51888 34.6475 9.54395 34.7705 9.54395C34.9163 9.54395 35.0485 9.50293 35.167 9.4209C35.29 9.33431 35.3926 9.19759 35.4746 9.01074C35.5566 8.82389 35.6182 8.5778 35.6592 8.27246C35.7048 7.96257 35.7275 7.58659 35.7275 7.14453Z" fill="#535353"/>
</svg>
