<svg width="47" height="9" viewBox="0 0 47 9" fill="none" xmlns="http://www.w3.org/2000/svg">
<path d="M3.57812 0.163574V8H2.03125V1.94678L0.172852 2.5376V1.31836L3.41162 0.163574H3.57812ZM11.3877 3.40234V4.75586C11.3877 5.3431 11.325 5.84977 11.1997 6.27588C11.0744 6.6984 10.8936 7.04574 10.6572 7.31787C10.4245 7.58643 10.147 7.78516 9.82471 7.91406C9.50244 8.04297 9.14437 8.10742 8.75049 8.10742C8.43538 8.10742 8.14176 8.06803 7.86963 7.98926C7.59749 7.9069 7.35221 7.77979 7.13379 7.60791C6.91895 7.43604 6.73275 7.2194 6.5752 6.95801C6.42122 6.69303 6.30306 6.37793 6.2207 6.0127C6.13835 5.64746 6.09717 5.22852 6.09717 4.75586V3.40234C6.09717 2.8151 6.15983 2.31201 6.28516 1.89307C6.41406 1.47054 6.59489 1.125 6.82764 0.856445C7.06396 0.587891 7.34326 0.390951 7.66553 0.265625C7.98779 0.136719 8.34587 0.0722656 8.73975 0.0722656C9.05485 0.0722656 9.34668 0.113444 9.61523 0.195801C9.88737 0.274577 10.1326 0.398112 10.3511 0.566406C10.5695 0.734701 10.7557 0.951335 10.9097 1.21631C11.0636 1.4777 11.1818 1.79102 11.2642 2.15625C11.3465 2.5179 11.3877 2.93327 11.3877 3.40234ZM9.83545 4.95996V3.19287C9.83545 2.90999 9.81934 2.66292 9.78711 2.45166C9.75846 2.2404 9.7137 2.06136 9.65283 1.91455C9.59196 1.76416 9.51676 1.64242 9.42725 1.54932C9.33773 1.45622 9.23568 1.38818 9.12109 1.34521C9.00651 1.30225 8.87939 1.28076 8.73975 1.28076C8.56429 1.28076 8.40853 1.31478 8.27246 1.38281C8.13997 1.45085 8.02718 1.56006 7.93408 1.71045C7.84098 1.85726 7.76937 2.0542 7.71924 2.30127C7.67269 2.54476 7.64941 2.84196 7.64941 3.19287V4.95996C7.64941 5.24284 7.66374 5.4917 7.69238 5.70654C7.72461 5.92139 7.77116 6.10579 7.83203 6.25977C7.89648 6.41016 7.97168 6.53369 8.05762 6.63037C8.14714 6.72347 8.24919 6.7915 8.36377 6.83447C8.48193 6.87744 8.61084 6.89893 8.75049 6.89893C8.92236 6.89893 9.07454 6.86491 9.20703 6.79688C9.3431 6.72526 9.45768 6.61426 9.55078 6.46387C9.64746 6.3099 9.71908 6.10938 9.76562 5.8623C9.81217 5.61523 9.83545 5.31445 9.83545 4.95996ZM17.7041 3.40234V4.75586C17.7041 5.3431 17.6414 5.84977 17.5161 6.27588C17.3908 6.6984 17.21 7.04574 16.9736 7.31787C16.7409 7.58643 16.4634 7.78516 16.1411 7.91406C15.8188 8.04297 15.4608 8.10742 15.0669 8.10742C14.7518 8.10742 14.4582 8.06803 14.186 7.98926C13.9139 7.9069 13.6686 7.77979 13.4502 7.60791C13.2354 7.43604 13.0492 7.2194 12.8916 6.95801C12.7376 6.69303 12.6195 6.37793 12.5371 6.0127C12.4548 5.64746 12.4136 5.22852 12.4136 4.75586V3.40234C12.4136 2.8151 12.4762 2.31201 12.6016 1.89307C12.7305 1.47054 12.9113 1.125 13.144 0.856445C13.3804 0.587891 13.6597 0.390951 13.9819 0.265625C14.3042 0.136719 14.6623 0.0722656 15.0562 0.0722656C15.3713 0.0722656 15.6631 0.113444 15.9316 0.195801C16.2038 0.274577 16.4491 0.398112 16.6675 0.566406C16.8859 0.734701 17.0721 0.951335 17.2261 1.21631C17.38 1.4777 17.4982 1.79102 17.5806 2.15625C17.6629 2.5179 17.7041 2.93327 17.7041 3.40234ZM16.1519 4.95996V3.19287C16.1519 2.90999 16.1357 2.66292 16.1035 2.45166C16.0749 2.2404 16.0301 2.06136 15.9692 1.91455C15.9084 1.76416 15.8332 1.64242 15.7437 1.54932C15.6541 1.45622 15.5521 1.38818 15.4375 1.34521C15.3229 1.30225 15.1958 1.28076 15.0562 1.28076C14.8807 1.28076 14.7249 1.31478 14.5889 1.38281C14.4564 1.45085 14.3436 1.56006 14.2505 1.71045C14.1574 1.85726 14.0858 2.0542 14.0356 2.30127C13.9891 2.54476 13.9658 2.84196 13.9658 3.19287V4.95996C13.9658 5.24284 13.9801 5.4917 14.0088 5.70654C14.041 5.92139 14.0876 6.10579 14.1484 6.25977C14.2129 6.41016 14.2881 6.53369 14.374 6.63037C14.4635 6.72347 14.5656 6.7915 14.6802 6.83447C14.7983 6.87744 14.9272 6.89893 15.0669 6.89893C15.2388 6.89893 15.391 6.86491 15.5234 6.79688C15.6595 6.72526 15.7741 6.61426 15.8672 6.46387C15.9639 6.3099 16.0355 6.10938 16.082 5.8623C16.1286 5.61523 16.1519 5.31445 16.1519 4.95996ZM24.9014 0.179688L22.0332 8.67139H20.8838L23.752 0.179688H24.9014ZM32.0879 0.163574V8H30.541V1.94678L28.6826 2.5376V1.31836L31.9214 0.163574H32.0879ZM39.8975 3.40234V4.75586C39.8975 5.3431 39.8348 5.84977 39.7095 6.27588C39.5841 6.6984 39.4033 7.04574 39.167 7.31787C38.9342 7.58643 38.6567 7.78516 38.3345 7.91406C38.0122 8.04297 37.6541 8.10742 37.2603 8.10742C36.9451 8.10742 36.6515 8.06803 36.3794 7.98926C36.1073 7.9069 35.862 7.77979 35.6436 7.60791C35.4287 7.43604 35.2425 7.2194 35.085 6.95801C34.931 6.69303 34.8128 6.37793 34.7305 6.0127C34.6481 5.64746 34.6069 5.22852 34.6069 4.75586V3.40234C34.6069 2.8151 34.6696 2.31201 34.7949 1.89307C34.9238 1.47054 35.1047 1.125 35.3374 0.856445C35.5737 0.587891 35.853 0.390951 36.1753 0.265625C36.4976 0.136719 36.8556 0.0722656 37.2495 0.0722656C37.5646 0.0722656 37.8564 0.113444 38.125 0.195801C38.3971 0.274577 38.6424 0.398112 38.8608 0.566406C39.0793 0.734701 39.2655 0.951335 39.4194 1.21631C39.5734 1.4777 39.6916 1.79102 39.7739 2.15625C39.8563 2.5179 39.8975 2.93327 39.8975 3.40234ZM38.3452 4.95996V3.19287C38.3452 2.90999 38.3291 2.66292 38.2969 2.45166C38.2682 2.2404 38.2235 2.06136 38.1626 1.91455C38.1017 1.76416 38.0265 1.64242 37.937 1.54932C37.8475 1.45622 37.7454 1.38818 37.6309 1.34521C37.5163 1.30225 37.3892 1.28076 37.2495 1.28076C37.0741 1.28076 36.9183 1.31478 36.7822 1.38281C36.6497 1.45085 36.5369 1.56006 36.4438 1.71045C36.3507 1.85726 36.2791 2.0542 36.229 2.30127C36.1825 2.54476 36.1592 2.84196 36.1592 3.19287V4.95996C36.1592 5.24284 36.1735 5.4917 36.2021 5.70654C36.2344 5.92139 36.2809 6.10579 36.3418 6.25977C36.4062 6.41016 36.4814 6.53369 36.5674 6.63037C36.6569 6.72347 36.759 6.7915 36.8735 6.83447C36.9917 6.87744 37.1206 6.89893 37.2603 6.89893C37.4321 6.89893 37.5843 6.86491 37.7168 6.79688C37.8529 6.72526 37.9674 6.61426 38.0605 6.46387C38.1572 6.3099 38.2288 6.10938 38.2754 5.8623C38.3219 5.61523 38.3452 5.31445 38.3452 4.95996ZM46.2139 3.40234V4.75586C46.2139 5.3431 46.1512 5.84977 46.0259 6.27588C45.9006 6.6984 45.7197 7.04574 45.4834 7.31787C45.2507 7.58643 44.9731 7.78516 44.6509 7.91406C44.3286 8.04297 43.9705 8.10742 43.5767 8.10742C43.2616 8.10742 42.9679 8.06803 42.6958 7.98926C42.4237 7.9069 42.1784 7.77979 41.96 7.60791C41.7451 7.43604 41.5589 7.2194 41.4014 6.95801C41.2474 6.69303 41.1292 6.37793 41.0469 6.0127C40.9645 5.64746 40.9233 5.22852 40.9233 4.75586V3.40234C40.9233 2.8151 40.986 2.31201 41.1113 1.89307C41.2402 1.47054 41.4211 1.125 41.6538 0.856445C41.8901 0.587891 42.1694 0.390951 42.4917 0.265625C42.814 0.136719 43.172 0.0722656 43.5659 0.0722656C43.881 0.0722656 44.1729 0.113444 44.4414 0.195801C44.7135 0.274577 44.9588 0.398112 45.1772 0.566406C45.3957 0.734701 45.5819 0.951335 45.7358 1.21631C45.8898 1.4777 46.008 1.79102 46.0903 2.15625C46.1727 2.5179 46.2139 2.93327 46.2139 3.40234ZM44.6616 4.95996V3.19287C44.6616 2.90999 44.6455 2.66292 44.6133 2.45166C44.5846 2.2404 44.5399 2.06136 44.479 1.91455C44.4181 1.76416 44.3429 1.64242 44.2534 1.54932C44.1639 1.45622 44.0618 1.38818 43.9473 1.34521C43.8327 1.30225 43.7056 1.28076 43.5659 1.28076C43.3905 1.28076 43.2347 1.31478 43.0986 1.38281C42.9661 1.45085 42.8534 1.56006 42.7603 1.71045C42.6672 1.85726 42.5955 2.0542 42.5454 2.30127C42.4989 2.54476 42.4756 2.84196 42.4756 3.19287V4.95996C42.4756 5.24284 42.4899 5.4917 42.5186 5.70654C42.5508 5.92139 42.5973 6.10579 42.6582 6.25977C42.7227 6.41016 42.7979 6.53369 42.8838 6.63037C42.9733 6.72347 43.0754 6.7915 43.1899 6.83447C43.3081 6.87744 43.437 6.89893 43.5767 6.89893C43.7485 6.89893 43.9007 6.86491 44.0332 6.79688C44.1693 6.72526 44.2839 6.61426 44.377 6.46387C44.4736 6.3099 44.5452 6.10938 44.5918 5.8623C44.6383 5.61523 44.6616 5.31445 44.6616 4.95996Z" fill="#535353"/>
</svg>
