<svg width="50" height="93" viewBox="0 0 50 93" fill="none" xmlns="http://www.w3.org/2000/svg">
<path d="M24.9999 77.4221C19.3157 81.2894 21.8418 86.4199 23.105 88.3146C24.3681 90.2094 29.4208 94.3146 36.0523 89.5778C28.1576 88.3146 28.1577 78.3694 24.9999 77.4221Z" fill="#3CBE10"/>
<path d="M24.9999 77.4221C19.3157 81.2894 21.8418 86.4199 23.105 88.3146C24.3681 90.2094 29.4208 94.3146 36.0523 89.5778C28.1576 88.3146 28.1577 78.3694 24.9999 77.4221Z" fill="#3CBE10"/>
<path d="M24.9999 77.4221C19.3157 81.2894 21.8418 86.4199 23.105 88.3146C24.3681 90.2094 29.4208 94.3146 36.0523 89.5778C28.1576 88.3146 28.1577 78.3694 24.9999 77.4221Z" fill="#3CBE10"/>
<path d="M24.9999 77.4221C19.3157 81.2894 21.8418 86.4199 23.105 88.3146C24.3681 90.2094 29.4208 94.3146 36.0523 89.5778C28.1576 88.3146 28.1577 78.3694 24.9999 77.4221Z" fill="#3CBE10"/>
<path d="M24.9999 77.4221C19.3157 81.2894 21.8418 86.4199 23.105 88.3146C24.3681 90.2094 29.4208 94.3146 36.0523 89.5778C28.1576 88.3146 28.1577 78.3694 24.9999 77.4221Z" stroke="black" stroke-width="2"/>
<path d="M24.9999 77.4221C19.3157 81.2894 21.8418 86.4199 23.105 88.3146C24.3681 90.2094 29.4208 94.3146 36.0523 89.5778C28.1576 88.3146 28.1577 78.3694 24.9999 77.4221Z" stroke="black" stroke-width="2"/>
<path d="M24.9999 77.4221C19.3157 81.2894 21.8418 86.4199 23.105 88.3146C24.3681 90.2094 29.4208 94.3146 36.0523 89.5778C28.1576 88.3146 28.1577 78.3694 24.9999 77.4221Z" stroke="black" stroke-width="2"/>
<path d="M24.9999 77.4221C19.3157 81.2894 21.8418 86.4199 23.105 88.3146C24.3681 90.2094 29.4208 94.3146 36.0523 89.5778C28.1576 88.3146 28.1577 78.3694 24.9999 77.4221Z" stroke="black" stroke-width="2"/>
<path d="M5.10525 11.1053C5.10525 2.89474 15.842 1 25 1C34.1581 1 44.8948 2.8945 44.8948 11.105C44.8948 18.3682 36.0526 17.7366 36.0526 25.6313C36.0526 33.526 49 36.3681 49 52.4065C49 68.445 40.158 77.4207 25 77.4207C9.84209 77.4207 1 68.4453 1 52.4067C1 36.3684 13.9474 33.5263 13.9474 25.6315C13.9474 17.7368 5.10525 18.3684 5.10525 11.1053Z" fill="#A3D423" stroke="black" stroke-width="2"/>
<path d="M30.0524 41.3985C30.0524 44.0146 31.4599 46.4737 34.105 46.4737C36.7502 46.4737 38.8945 44.3529 38.8945 41.7368C38.8945 39.1208 36.7502 37 34.105 37C31.4599 37 30.0524 38.7824 30.0524 41.3985Z" fill="url(#paint0_radial_5985_152)"/>
<path d="M21.2108 41.3985C21.2108 44.0146 19.8033 46.4737 17.1582 46.4737C14.513 46.4737 12.3687 44.3529 12.3687 41.7368C12.3687 39.1208 14.513 37 17.1582 37C19.8033 37 21.2108 38.7824 21.2108 41.3985Z" fill="url(#paint1_radial_5985_152)"/>
<ellipse cx="33.5265" cy="44.8966" rx="0.947367" ry="0.947367" fill="white"/>
<ellipse cx="33.5265" cy="44.8966" rx="0.947367" ry="0.947367" fill="white"/>
<ellipse cx="33.5265" cy="44.8966" rx="0.947367" ry="0.947367" fill="white"/>
<ellipse cx="16.4737" cy="44.8966" rx="0.947367" ry="0.947367" fill="white"/>
<ellipse cx="16.4737" cy="44.8966" rx="0.947367" ry="0.947367" fill="white"/>
<ellipse cx="16.4737" cy="44.8966" rx="0.947367" ry="0.947367" fill="white"/>
<defs>
<radialGradient id="paint0_radial_5985_152" cx="0" cy="0" r="1" gradientUnits="userSpaceOnUse" gradientTransform="translate(34.4735 41.7368) rotate(90) scale(4.73684 4.42105)">
<stop stop-color="#175E07"/>
<stop offset="0.855" stop-color="#103A06"/>
</radialGradient>
<radialGradient id="paint1_radial_5985_152" cx="0" cy="0" r="1" gradientUnits="userSpaceOnUse" gradientTransform="translate(16.7897 41.7368) rotate(90) scale(4.73684 4.42105)">
<stop stop-color="#175E07"/>
<stop offset="0.855" stop-color="#103A06"/>
</radialGradient>
</defs>
</svg>
