<svg width="53" height="11" viewBox="0 0 53 11" fill="none" xmlns="http://www.w3.org/2000/svg">
<path d="M3.42041 5.16406L5.34326 0.179688H7.07812L4.39795 6.48535C4.30485 6.7002 4.19743 6.90609 4.07568 7.10303C3.95752 7.29639 3.81608 7.47005 3.65137 7.62402C3.48665 7.77441 3.28971 7.89437 3.06055 7.98389C2.83138 8.06982 2.55745 8.11279 2.23877 8.11279C2.15999 8.11279 2.06331 8.111 1.94873 8.10742C1.83415 8.10384 1.74284 8.09847 1.6748 8.09131L1.66406 6.83447C1.70703 6.84521 1.77507 6.85238 1.86816 6.85596C1.96126 6.85596 2.0293 6.85596 2.07227 6.85596C2.28353 6.85596 2.45003 6.82552 2.57178 6.76465C2.69352 6.70378 2.7902 6.61784 2.86182 6.50684C2.93701 6.39225 3.00326 6.25798 3.06055 6.104L3.42041 5.16406ZM2.14746 0.179688L3.93066 4.05225L4.43018 5.83008L3.23242 5.85156L0.417969 0.179688H2.14746ZM8.89355 3.30566V10.2344H7.34668V2.18848H8.78076L8.89355 3.30566ZM12.5728 5.02979V5.14258C12.5728 5.5651 12.5226 5.95719 12.4224 6.31885C12.3257 6.6805 12.1825 6.99561 11.9927 7.26416C11.8029 7.52913 11.5666 7.73682 11.2837 7.88721C11.0044 8.03402 10.6821 8.10742 10.3169 8.10742C9.9624 8.10742 9.65446 8.03581 9.39307 7.89258C9.13167 7.74935 8.91146 7.54883 8.73242 7.29102C8.55697 7.02962 8.41553 6.72705 8.30811 6.3833C8.20068 6.03955 8.11833 5.67074 8.06104 5.27686V4.98145C8.11833 4.55892 8.20068 4.1722 8.30811 3.82129C8.41553 3.4668 8.55697 3.16064 8.73242 2.90283C8.91146 2.64144 9.12988 2.43913 9.3877 2.2959C9.64909 2.15267 9.95524 2.08105 10.3062 2.08105C10.675 2.08105 10.999 2.15088 11.2783 2.29053C11.5612 2.43018 11.7975 2.6307 11.9873 2.89209C12.1807 3.15348 12.3257 3.46501 12.4224 3.82666C12.5226 4.18831 12.5728 4.58936 12.5728 5.02979ZM11.0205 5.14258V5.02979C11.0205 4.78271 10.999 4.55534 10.9561 4.34766C10.9167 4.13639 10.8522 3.95199 10.7627 3.79443C10.6768 3.63688 10.5622 3.51514 10.4189 3.4292C10.2793 3.33968 10.1092 3.29492 9.90869 3.29492C9.69743 3.29492 9.5166 3.32894 9.36621 3.39697C9.2194 3.46501 9.09945 3.56348 9.00635 3.69238C8.91325 3.82129 8.84342 3.97526 8.79688 4.1543C8.75033 4.33333 8.72168 4.53564 8.71094 4.76123V5.50781C8.72884 5.77279 8.77897 6.0109 8.86133 6.22217C8.94368 6.42985 9.0708 6.59456 9.24268 6.71631C9.41455 6.83805 9.64014 6.89893 9.91943 6.89893C10.1235 6.89893 10.2954 6.85417 10.4351 6.76465C10.5747 6.67155 10.6875 6.54443 10.7734 6.3833C10.863 6.22217 10.9256 6.03597 10.9614 5.82471C11.0008 5.61344 11.0205 5.38607 11.0205 5.14258ZM13.2871 5.15332V5.04053C13.2871 4.61442 13.348 4.22233 13.4697 3.86426C13.5915 3.5026 13.7687 3.18929 14.0015 2.92432C14.2342 2.65934 14.5207 2.45345 14.8608 2.30664C15.201 2.15625 15.5913 2.08105 16.0317 2.08105C16.4722 2.08105 16.8643 2.15625 17.208 2.30664C17.5518 2.45345 17.84 2.65934 18.0728 2.92432C18.3091 3.18929 18.4881 3.5026 18.6099 3.86426C18.7316 4.22233 18.7925 4.61442 18.7925 5.04053V5.15332C18.7925 5.57585 18.7316 5.96794 18.6099 6.32959C18.4881 6.68766 18.3091 7.00098 18.0728 7.26953C17.84 7.53451 17.5535 7.7404 17.2134 7.88721C16.8732 8.03402 16.4829 8.10742 16.0425 8.10742C15.6021 8.10742 15.21 8.03402 14.8662 7.88721C14.526 7.7404 14.2378 7.53451 14.0015 7.26953C13.7687 7.00098 13.5915 6.68766 13.4697 6.32959C13.348 5.96794 13.2871 5.57585 13.2871 5.15332ZM14.834 5.04053V5.15332C14.834 5.39681 14.8555 5.62419 14.8984 5.83545C14.9414 6.04671 15.0094 6.23291 15.1025 6.39404C15.1992 6.5516 15.3245 6.67513 15.4785 6.76465C15.6325 6.85417 15.8205 6.89893 16.0425 6.89893C16.2573 6.89893 16.4417 6.85417 16.5957 6.76465C16.7497 6.67513 16.8732 6.5516 16.9663 6.39404C17.0594 6.23291 17.1274 6.04671 17.1704 5.83545C17.217 5.62419 17.2402 5.39681 17.2402 5.15332V5.04053C17.2402 4.8042 17.217 4.58219 17.1704 4.37451C17.1274 4.16325 17.0576 3.97705 16.9609 3.81592C16.8678 3.6512 16.7443 3.5223 16.5903 3.4292C16.4364 3.3361 16.2502 3.28955 16.0317 3.28955C15.8133 3.28955 15.6271 3.3361 15.4731 3.4292C15.3228 3.5223 15.1992 3.6512 15.1025 3.81592C15.0094 3.97705 14.9414 4.16325 14.8984 4.37451C14.8555 4.58219 14.834 4.8042 14.834 5.04053ZM22.6382 5.57227H20.8174L20.8066 4.55713H22.3105C22.5111 4.55713 22.674 4.53743 22.7993 4.49805C22.9246 4.45508 23.016 4.39242 23.0732 4.31006C23.1341 4.22412 23.1646 4.12028 23.1646 3.99854C23.1646 3.89111 23.1449 3.7998 23.1055 3.72461C23.0697 3.64583 23.0142 3.58138 22.939 3.53125C22.8638 3.48112 22.7689 3.44531 22.6543 3.42383C22.5433 3.39876 22.4126 3.38623 22.2622 3.38623H21.3921V8H19.8452V2.18848H22.2622C22.6418 2.18848 22.9819 2.22249 23.2827 2.29053C23.5835 2.35498 23.8395 2.45345 24.0508 2.58594C24.2656 2.71842 24.4285 2.88672 24.5396 3.09082C24.6541 3.29134 24.7114 3.52946 24.7114 3.80518C24.7114 3.98421 24.6702 4.15251 24.5879 4.31006C24.5091 4.46761 24.391 4.60726 24.2334 4.729C24.0758 4.85075 23.8807 4.95101 23.6479 5.02979C23.4188 5.10498 23.1538 5.15153 22.853 5.16943L22.6382 5.57227ZM22.6382 8H20.436L20.9678 6.80225H22.6382C22.828 6.80225 22.9837 6.77897 23.1055 6.73242C23.2272 6.68587 23.3167 6.61784 23.374 6.52832C23.4349 6.43522 23.4653 6.32422 23.4653 6.19531C23.4653 6.06999 23.4385 5.96077 23.3848 5.86768C23.3311 5.77458 23.2433 5.70296 23.1216 5.65283C23.0034 5.59912 22.8423 5.57227 22.6382 5.57227H21.1934L21.2041 4.55713H22.8477L23.2236 4.96533C23.6318 4.9904 23.9684 5.06738 24.2334 5.19629C24.4984 5.3252 24.6935 5.48991 24.8188 5.69043C24.9478 5.88737 25.0122 6.104 25.0122 6.34033C25.0122 6.61605 24.9603 6.85775 24.8564 7.06543C24.7526 7.27311 24.5986 7.44678 24.3945 7.58643C24.194 7.72249 23.9469 7.82633 23.6533 7.89795C23.3597 7.96598 23.0213 8 22.6382 8ZM28.6377 8.10742C28.1865 8.10742 27.7819 8.03581 27.4238 7.89258C27.0658 7.74577 26.7614 7.54346 26.5107 7.28564C26.2637 7.02783 26.0739 6.72884 25.9414 6.38867C25.8089 6.04492 25.7427 5.67969 25.7427 5.29297V5.07812C25.7427 4.6377 25.8053 4.23486 25.9307 3.86963C26.056 3.50439 26.235 3.1875 26.4678 2.91895C26.7041 2.65039 26.9906 2.4445 27.3271 2.30127C27.6637 2.15446 28.0433 2.08105 28.4658 2.08105C28.8776 2.08105 29.2428 2.14909 29.5615 2.28516C29.8802 2.42122 30.147 2.61458 30.3618 2.86523C30.5802 3.11589 30.745 3.41667 30.856 3.76758C30.967 4.11491 31.0225 4.50163 31.0225 4.92773V5.57227H26.4033V4.54102H29.5024V4.42285C29.5024 4.20801 29.4631 4.01644 29.3843 3.84814C29.3091 3.67627 29.1945 3.5402 29.0405 3.43994C28.8866 3.33968 28.6896 3.28955 28.4497 3.28955C28.2456 3.28955 28.0701 3.33431 27.9233 3.42383C27.7765 3.51335 27.6566 3.63867 27.5635 3.7998C27.474 3.96094 27.4059 4.15072 27.3594 4.36914C27.3164 4.58398 27.2949 4.82031 27.2949 5.07812V5.29297C27.2949 5.52572 27.3271 5.74056 27.3916 5.9375C27.4596 6.13444 27.5545 6.30452 27.6763 6.44775C27.8016 6.59098 27.952 6.70199 28.1274 6.78076C28.3065 6.85954 28.5088 6.89893 28.7344 6.89893C29.0137 6.89893 29.2733 6.84521 29.5132 6.73779C29.7567 6.62679 29.9661 6.46029 30.1416 6.23828L30.8936 7.05469C30.7718 7.23014 30.6053 7.39844 30.394 7.55957C30.1864 7.7207 29.9357 7.85319 29.6421 7.95703C29.3485 8.05729 29.0137 8.10742 28.6377 8.10742ZM35.8833 4.53564V5.73877H32.9292V4.53564H35.8833ZM33.4448 2.18848V8H31.8979V2.18848H33.4448ZM36.9307 2.18848V8H35.3784V2.18848H36.9307ZM39.2026 3.9126H40.8892C41.4191 3.9126 41.8703 4.00033 42.2427 4.17578C42.6187 4.34766 42.9051 4.58757 43.1021 4.89551C43.3026 5.20345 43.4028 5.55973 43.4028 5.96436C43.4028 6.25798 43.3455 6.53011 43.231 6.78076C43.12 7.02783 42.957 7.24268 42.7422 7.42529C42.5273 7.60791 42.2642 7.74935 41.9526 7.84961C41.6411 7.94987 41.2866 8 40.8892 8H38.2358V2.18848H39.7881V6.79688H40.8892C41.1219 6.79688 41.3081 6.75928 41.4478 6.68408C41.591 6.60531 41.6948 6.50326 41.7593 6.37793C41.8273 6.2526 41.8613 6.11654 41.8613 5.96973C41.8613 5.81576 41.8273 5.67611 41.7593 5.55078C41.6948 5.42188 41.591 5.31803 41.4478 5.23926C41.3081 5.16048 41.1219 5.12109 40.8892 5.12109H39.2026V3.9126ZM52.2168 3.40234V4.75586C52.2168 5.3431 52.1541 5.84977 52.0288 6.27588C51.9035 6.6984 51.7227 7.04574 51.4863 7.31787C51.2536 7.58643 50.9761 7.78516 50.6538 7.91406C50.3315 8.04297 49.9735 8.10742 49.5796 8.10742C49.2645 8.10742 48.9709 8.06803 48.6987 7.98926C48.4266 7.9069 48.1813 7.77979 47.9629 7.60791C47.748 7.43604 47.5618 7.2194 47.4043 6.95801C47.2503 6.69303 47.1322 6.37793 47.0498 6.0127C46.9674 5.64746 46.9263 5.22852 46.9263 4.75586V3.40234C46.9263 2.8151 46.9889 2.31201 47.1143 1.89307C47.2432 1.47054 47.424 1.125 47.6567 0.856445C47.8931 0.587891 48.1724 0.390951 48.4946 0.265625C48.8169 0.136719 49.175 0.0722656 49.5688 0.0722656C49.884 0.0722656 50.1758 0.113444 50.4443 0.195801C50.7165 0.274577 50.9618 0.398112 51.1802 0.566406C51.3986 0.734701 51.5848 0.951335 51.7388 1.21631C51.8927 1.4777 52.0109 1.79102 52.0933 2.15625C52.1756 2.5179 52.2168 2.93327 52.2168 3.40234ZM50.6646 4.95996V3.19287C50.6646 2.90999 50.6484 2.66292 50.6162 2.45166C50.5876 2.2404 50.5428 2.06136 50.4819 1.91455C50.4211 1.76416 50.3459 1.64242 50.2563 1.54932C50.1668 1.45622 50.0648 1.38818 49.9502 1.34521C49.8356 1.30225 49.7085 1.28076 49.5688 1.28076C49.3934 1.28076 49.2376 1.31478 49.1016 1.38281C48.9691 1.45085 48.8563 1.56006 48.7632 1.71045C48.6701 1.85726 48.5985 2.0542 48.5483 2.30127C48.5018 2.54476 48.4785 2.84196 48.4785 3.19287V4.95996C48.4785 5.24284 48.4928 5.4917 48.5215 5.70654C48.5537 5.92139 48.6003 6.10579 48.6611 6.25977C48.7256 6.41016 48.8008 6.53369 48.8867 6.63037C48.9762 6.72347 49.0783 6.7915 49.1929 6.83447C49.311 6.87744 49.4399 6.89893 49.5796 6.89893C49.7515 6.89893 49.9036 6.86491 50.0361 6.79688C50.1722 6.72526 50.2868 6.61426 50.3799 6.46387C50.4766 6.3099 50.5482 6.10938 50.5947 5.8623C50.6413 5.61523 50.6646 5.31445 50.6646 4.95996Z" fill="#535353"/>
</svg>
