<svg width="83" height="34" viewBox="0 0 83 34" fill="none" xmlns="http://www.w3.org/2000/svg">
<path d="M8.71094 0.625V12H6.42969V2.52344H3.04688V12H0.757812V0.625H8.71094ZM18.5781 5.42969V7.32812C18.5781 8.13021 18.4792 8.83333 18.2812 9.4375C18.0885 10.0365 17.8125 10.5391 17.4531 10.9453C17.099 11.3464 16.6693 11.6484 16.1641 11.8516C15.6641 12.0547 15.1094 12.1562 14.5 12.1562C13.8906 12.1562 13.3333 12.0547 12.8281 11.8516C12.3281 11.6484 11.8958 11.3464 11.5312 10.9453C11.1719 10.5391 10.8932 10.0365 10.6953 9.4375C10.4974 8.83333 10.3984 8.13021 10.3984 7.32812V5.42969C10.3984 4.60677 10.4948 3.88802 10.6875 3.27344C10.8802 2.65365 11.1589 2.13802 11.5234 1.72656C11.888 1.3099 12.3203 0.997396 12.8203 0.789062C13.3203 0.575521 13.875 0.46875 14.4844 0.46875C15.0938 0.46875 15.6484 0.575521 16.1484 0.789062C16.6484 0.997396 17.0807 1.3099 17.4453 1.72656C17.8099 2.13802 18.0885 2.65365 18.2812 3.27344C18.4792 3.88802 18.5781 4.60677 18.5781 5.42969ZM16.3047 7.32812V5.41406C16.3047 4.8724 16.2656 4.41146 16.1875 4.03125C16.1094 3.64583 15.9922 3.33073 15.8359 3.08594C15.6797 2.84115 15.4896 2.66146 15.2656 2.54688C15.0417 2.43229 14.7812 2.375 14.4844 2.375C14.1875 2.375 13.9245 2.43229 13.6953 2.54688C13.4714 2.66146 13.2812 2.84115 13.125 3.08594C12.974 3.33073 12.8594 3.64583 12.7812 4.03125C12.7083 4.41146 12.6719 4.8724 12.6719 5.41406V7.32812C12.6719 7.84896 12.7109 8.29427 12.7891 8.66406C12.8672 9.03385 12.9844 9.33594 13.1406 9.57031C13.2969 9.80469 13.487 9.97917 13.7109 10.0938C13.9401 10.2031 14.2031 10.2578 14.5 10.2578C14.7917 10.2578 15.0495 10.2031 15.2734 10.0938C15.5026 9.97917 15.6927 9.80469 15.8438 9.57031C15.9948 9.33594 16.1094 9.03385 16.1875 8.66406C16.2656 8.29427 16.3047 7.84896 16.3047 7.32812ZM25.6641 8.21094H27.9375C27.9062 9.0651 27.7344 9.78646 27.4219 10.375C27.1094 10.9583 26.6641 11.401 26.0859 11.7031C25.513 12.0052 24.8203 12.1562 24.0078 12.1562C23.3776 12.1562 22.8177 12.0521 22.3281 11.8438C21.8385 11.6302 21.4219 11.3177 21.0781 10.9062C20.7344 10.4948 20.474 9.98698 20.2969 9.38281C20.125 8.77344 20.0391 8.07292 20.0391 7.28125V5.35156C20.0391 4.5599 20.1302 3.85938 20.3125 3.25C20.5 2.64062 20.7656 2.13021 21.1094 1.71875C21.4583 1.30208 21.8776 0.989583 22.3672 0.78125C22.862 0.567708 23.4193 0.460938 24.0391 0.460938C24.8672 0.460938 25.5599 0.617188 26.1172 0.929688C26.6745 1.24219 27.1042 1.69792 27.4062 2.29688C27.7135 2.89062 27.8984 3.61719 27.9609 4.47656H25.6719C25.6615 3.9349 25.6016 3.51042 25.4922 3.20312C25.388 2.89062 25.2214 2.67188 24.9922 2.54688C24.763 2.41667 24.4453 2.35156 24.0391 2.35156C23.737 2.35156 23.4766 2.40625 23.2578 2.51562C23.0391 2.61979 22.8594 2.78906 22.7188 3.02344C22.5781 3.25781 22.474 3.5651 22.4062 3.94531C22.3438 4.32552 22.3125 4.78906 22.3125 5.33594V7.28125C22.3125 7.81771 22.3411 8.27604 22.3984 8.65625C22.4557 9.03125 22.5469 9.33854 22.6719 9.57812C22.7969 9.81771 22.9661 9.99219 23.1797 10.1016C23.3984 10.2109 23.6745 10.2656 24.0078 10.2656C24.3932 10.2656 24.7031 10.2083 24.9375 10.0938C25.1771 9.97917 25.3542 9.77344 25.4688 9.47656C25.5833 9.17969 25.6484 8.75781 25.6641 8.21094ZM35.6719 0.625V2.52344H31.0078V0.625H35.6719ZM37.3281 0.625V12H35.0547V0.625H37.3281ZM30.7266 0.625H32.9922L32.7656 6.35938C32.7396 7.21875 32.6719 7.96354 32.5625 8.59375C32.4583 9.21875 32.3177 9.75 32.1406 10.1875C31.9688 10.6198 31.7526 10.9688 31.4922 11.2344C31.2318 11.5 30.9271 11.6953 30.5781 11.8203C30.2344 11.9401 29.849 12 29.4219 12H28.8828V10.1094L29.1406 10.0781C29.3438 10.0521 29.5234 9.98698 29.6797 9.88281C29.8359 9.77344 29.9688 9.61198 30.0781 9.39844C30.1875 9.17969 30.276 8.90104 30.3438 8.5625C30.4167 8.21875 30.4714 7.80208 30.5078 7.3125C30.5495 6.82292 30.5781 6.2526 30.5938 5.60156L30.7266 0.625ZM45.7188 10.1094V12H40.7734V10.1094H45.7188ZM41.4844 0.625V12H39.1953V0.625H41.4844ZM45.0547 5.23438V7.07031H40.7734V5.23438H45.0547ZM45.7031 0.625V2.52344H40.7734V0.625H45.7031ZM54.7031 10.1094V12H48V10.1094H54.7031ZM48.6484 10.1094V14.7969H46.5L46.375 10.1094H48.6484ZM56.3594 10.1094L56.1562 14.7969H54.0625V10.1094H56.3594ZM53.5234 0.625V2.52344H48.9297V0.625H53.5234ZM55.1719 0.625V12H52.8984V0.625H55.1719ZM48.6484 0.625H50.9375L50.6562 5.28125C50.6146 6.05208 50.5443 6.73177 50.4453 7.32031C50.3516 7.90365 50.2344 8.41406 50.0938 8.85156C49.9583 9.28906 49.8073 9.66927 49.6406 9.99219C49.474 10.3151 49.2969 10.5964 49.1094 10.8359C48.9219 11.0755 48.7292 11.2891 48.5312 11.4766C48.3333 11.6641 48.138 11.8385 47.9453 12H46.6953V10.1094H47.1406C47.2708 9.98438 47.401 9.8151 47.5312 9.60156C47.6615 9.38802 47.7812 9.10156 47.8906 8.74219C48 8.3776 48.0964 7.91406 48.1797 7.35156C48.263 6.78906 48.3281 6.09896 48.375 5.28125L48.6484 0.625ZM63.8594 5.23438V7.125H59.1953V5.23438H63.8594ZM59.8438 0.625V12H57.5547V0.625H59.8438ZM65.5156 0.625V12H63.25V0.625H65.5156ZM72.3906 7.89844H70.0703L69.2812 7.57031C68.5104 7.27865 67.9193 6.85156 67.5078 6.28906C67.0964 5.72656 66.8906 5.00521 66.8906 4.125C66.8906 3.36458 67.0365 2.72396 67.3281 2.20312C67.6198 1.68229 68.0365 1.28906 68.5781 1.02344C69.1198 0.757812 69.7604 0.625 70.5 0.625H73.9375V12H71.6484V2.52344H70.5C70.0365 2.52344 69.6979 2.67969 69.4844 2.99219C69.2708 3.29948 69.1641 3.73958 69.1641 4.3125C69.1641 4.73438 69.2161 5.07812 69.3203 5.34375C69.4245 5.60938 69.5781 5.80729 69.7812 5.9375C69.9896 6.0625 70.2552 6.125 70.5781 6.125H72.3828L72.3906 7.89844ZM70.8203 6.9375L68.7344 12H66.2734L68.3594 6.9375H70.8203ZM80.75 7.89844H78.4297L77.6406 7.57031C76.8698 7.27865 76.2786 6.85156 75.8672 6.28906C75.4557 5.72656 75.25 5.00521 75.25 4.125C75.25 3.36458 75.3958 2.72396 75.6875 2.20312C75.9792 1.68229 76.3958 1.28906 76.9375 1.02344C77.4792 0.757812 78.1198 0.625 78.8594 0.625H82.2969V12H80.0078V2.52344H78.8594C78.3958 2.52344 78.0573 2.67969 77.8438 2.99219C77.6302 3.29948 77.5234 3.73958 77.5234 4.3125C77.5234 4.73438 77.5755 5.07812 77.6797 5.34375C77.7839 5.60938 77.9375 5.80729 78.1406 5.9375C78.349 6.0625 78.6146 6.125 78.9375 6.125H80.7422L80.75 7.89844ZM79.1797 6.9375L77.0938 12H74.6328L76.7188 6.9375H79.1797ZM9.34375 24.3672V26.2656H5.34375V24.3672H9.34375ZM2.45312 27.2109H4.72656C4.7526 27.6641 4.82292 28.0443 4.9375 28.3516C5.05208 28.6589 5.22656 28.8906 5.46094 29.0469C5.69531 29.1979 6.0026 29.2734 6.38281 29.2734C6.71094 29.2734 6.98698 29.1979 7.21094 29.0469C7.4349 28.8906 7.61458 28.6641 7.75 28.3672C7.89062 28.0651 7.98958 27.6901 8.04688 27.2422C8.10938 26.7943 8.14062 26.276 8.14062 25.6875V24.9375C8.14062 24.4531 8.11719 24.0208 8.07031 23.6406C8.02865 23.2552 7.96094 22.9193 7.86719 22.6328C7.77344 22.3464 7.65365 22.112 7.50781 21.9297C7.36719 21.7422 7.20052 21.6016 7.00781 21.5078C6.8151 21.4141 6.59635 21.3672 6.35156 21.3672C5.95573 21.3672 5.64062 21.4505 5.40625 21.6172C5.17708 21.7786 5.01042 22.0182 4.90625 22.3359C4.80208 22.6536 4.73958 23.0365 4.71875 23.4844H2.4375C2.5 22.7083 2.68229 22.0182 2.98438 21.4141C3.29167 20.8099 3.72135 20.3359 4.27344 19.9922C4.83073 19.6432 5.52344 19.4688 6.35156 19.4688C6.97135 19.4688 7.52865 19.5964 8.02344 19.8516C8.52344 20.1068 8.95312 20.474 9.3125 20.9531C9.67188 21.4271 9.94531 22.0026 10.1328 22.6797C10.3203 23.3568 10.4141 24.1146 10.4141 24.9531V25.6875C10.4141 26.5365 10.3229 27.2995 10.1406 27.9766C9.95833 28.6484 9.69271 29.2214 9.34375 29.6953C8.99479 30.1693 8.57031 30.5339 8.07031 30.7891C7.57031 31.0391 7.00781 31.1641 6.38281 31.1641C5.57031 31.1641 4.88021 30.9974 4.3125 30.6641C3.74479 30.3255 3.30208 29.8594 2.98438 29.2656C2.67188 28.6667 2.49479 27.9818 2.45312 27.2109ZM15.7969 26.0391H13.4609L13.4531 24.3828H15.4375C15.75 24.3828 16.0052 24.3307 16.2031 24.2266C16.4062 24.1172 16.5547 23.9583 16.6484 23.75C16.7474 23.5365 16.7969 23.2786 16.7969 22.9766C16.7969 22.6276 16.75 22.349 16.6562 22.1406C16.5677 21.9271 16.4245 21.7708 16.2266 21.6719C16.0339 21.5729 15.7786 21.5234 15.4609 21.5234H14.2422V31H11.9531V19.625H15.4609C16.0234 19.625 16.5286 19.6875 16.9766 19.8125C17.4245 19.9375 17.8047 20.1302 18.1172 20.3906C18.4297 20.6458 18.6693 20.9688 18.8359 21.3594C19.0026 21.7448 19.0859 22.2031 19.0859 22.7344C19.0859 23.2031 18.9922 23.6354 18.8047 24.0312C18.6172 24.4271 18.3229 24.7526 17.9219 25.0078C17.5208 25.2578 17.0026 25.3958 16.3672 25.4219L15.7969 26.0391ZM15.7109 31H12.8125L13.7266 29.1094H15.7109C16.0182 29.1094 16.263 29.0443 16.4453 28.9141C16.6276 28.7839 16.7604 28.6094 16.8438 28.3906C16.9323 28.1667 16.9766 27.9115 16.9766 27.625C16.9766 27.3021 16.9375 27.0208 16.8594 26.7812C16.7865 26.5417 16.6641 26.3594 16.4922 26.2344C16.3203 26.1042 16.0885 26.0391 15.7969 26.0391H13.8281L13.8438 24.3828H16.2344L16.7734 25.0391C17.3828 25.0182 17.8698 25.1354 18.2344 25.3906C18.599 25.6406 18.8594 25.9688 19.0156 26.375C19.1771 26.776 19.2578 27.2031 19.2578 27.6562C19.2578 28.3854 19.1198 29 18.8438 29.5C18.5729 29.9948 18.1745 30.3698 17.6484 30.625C17.1224 30.875 16.4766 31 15.7109 31ZM28.9297 24.4297V26.3281C28.9297 27.1302 28.8307 27.8333 28.6328 28.4375C28.4401 29.0365 28.1641 29.5391 27.8047 29.9453C27.4505 30.3464 27.0208 30.6484 26.5156 30.8516C26.0156 31.0547 25.4609 31.1562 24.8516 31.1562C24.2422 31.1562 23.6849 31.0547 23.1797 30.8516C22.6797 30.6484 22.2474 30.3464 21.8828 29.9453C21.5234 29.5391 21.2448 29.0365 21.0469 28.4375C20.849 27.8333 20.75 27.1302 20.75 26.3281V24.4297C20.75 23.6068 20.8464 22.888 21.0391 22.2734C21.2318 21.6536 21.5104 21.138 21.875 20.7266C22.2396 20.3099 22.6719 19.9974 23.1719 19.7891C23.6719 19.5755 24.2266 19.4688 24.8359 19.4688C25.4453 19.4688 26 19.5755 26.5 19.7891C27 19.9974 27.4323 20.3099 27.7969 20.7266C28.1615 21.138 28.4401 21.6536 28.6328 22.2734C28.8307 22.888 28.9297 23.6068 28.9297 24.4297ZM26.6562 26.3281V24.4141C26.6562 23.8724 26.6172 23.4115 26.5391 23.0312C26.4609 22.6458 26.3438 22.3307 26.1875 22.0859C26.0312 21.8411 25.8411 21.6615 25.6172 21.5469C25.3932 21.4323 25.1328 21.375 24.8359 21.375C24.5391 21.375 24.276 21.4323 24.0469 21.5469C23.8229 21.6615 23.6328 21.8411 23.4766 22.0859C23.3255 22.3307 23.2109 22.6458 23.1328 23.0312C23.0599 23.4115 23.0234 23.8724 23.0234 24.4141V26.3281C23.0234 26.849 23.0625 27.2943 23.1406 27.6641C23.2188 28.0339 23.3359 28.3359 23.4922 28.5703C23.6484 28.8047 23.8385 28.9792 24.0625 29.0938C24.2917 29.2031 24.5547 29.2578 24.8516 29.2578C25.1432 29.2578 25.401 29.2031 25.625 29.0938C25.8542 28.9792 26.0443 28.8047 26.1953 28.5703C26.3464 28.3359 26.4609 28.0339 26.5391 27.6641C26.6172 27.2943 26.6562 26.849 26.6562 26.3281ZM36.6484 19.625V21.5234H31.9844V19.625H36.6484ZM38.3047 19.625V31H36.0312V19.625H38.3047ZM31.7031 19.625H33.9688L33.7422 25.3594C33.7161 26.2188 33.6484 26.9635 33.5391 27.5938C33.4349 28.2188 33.2943 28.75 33.1172 29.1875C32.9453 29.6198 32.7292 29.9688 32.4688 30.2344C32.2083 30.5 31.9036 30.6953 31.5547 30.8203C31.2109 30.9401 30.8255 31 30.3984 31H29.8594V29.1094L30.1172 29.0781C30.3203 29.0521 30.5 28.987 30.6562 28.8828C30.8125 28.7734 30.9453 28.612 31.0547 28.3984C31.1641 28.1797 31.2526 27.901 31.3203 27.5625C31.3932 27.2188 31.4479 26.8021 31.4844 26.3125C31.526 25.8229 31.5547 25.2526 31.5703 24.6016L31.7031 19.625ZM42.5 19.625V31H40.2188V19.625H42.5ZM44.2422 24.6484V26.4609H41.5781V24.6484H44.2422ZM51.6016 24.4297V26.3281C51.6016 27.1302 51.5026 27.8333 51.3047 28.4375C51.112 29.0365 50.8359 29.5391 50.4766 29.9453C50.1224 30.3464 49.6927 30.6484 49.1875 30.8516C48.6875 31.0547 48.1302 31.1562 47.5156 31.1562C46.9115 31.1562 46.3568 31.0547 45.8516 30.8516C45.3516 30.6484 44.9193 30.3464 44.5547 29.9453C44.1901 29.5391 43.9089 29.0365 43.7109 28.4375C43.5182 27.8333 43.4219 27.1302 43.4219 26.3281V24.4297C43.4219 23.6068 43.5182 22.888 43.7109 22.2734C43.9036 21.6536 44.1823 21.138 44.5469 20.7266C44.9115 20.3099 45.3438 19.9974 45.8438 19.7891C46.3438 19.5755 46.8958 19.4688 47.5 19.4688C48.1146 19.4688 48.6719 19.5755 49.1719 19.7891C49.6719 19.9974 50.1042 20.3099 50.4688 20.7266C50.8333 21.138 51.112 21.6536 51.3047 22.2734C51.5026 22.888 51.6016 23.6068 51.6016 24.4297ZM49.3281 26.3281V24.4141C49.3281 23.8724 49.2865 23.4115 49.2031 23.0312C49.125 22.6458 49.0078 22.3307 48.8516 22.0859C48.7005 21.8411 48.5104 21.6615 48.2812 21.5469C48.0573 21.4323 47.7969 21.375 47.5 21.375C47.2083 21.375 46.9479 21.4323 46.7188 21.5469C46.4948 21.6615 46.3047 21.8411 46.1484 22.0859C45.9974 22.3307 45.8828 22.6458 45.8047 23.0312C45.7318 23.4115 45.6953 23.8724 45.6953 24.4141V26.3281C45.6953 26.849 45.7344 27.2943 45.8125 27.6641C45.8906 28.0339 46.0078 28.3359 46.1641 28.5703C46.3203 28.8047 46.5104 28.9792 46.7344 29.0938C46.9635 29.2031 47.224 29.2578 47.5156 29.2578C47.8125 29.2578 48.0729 29.2031 48.2969 29.0938C48.526 28.9792 48.7161 28.8047 48.8672 28.5703C49.0182 28.3359 49.1328 28.0339 49.2109 27.6641C49.2891 27.2943 49.3281 26.849 49.3281 26.3281ZM62.4766 29.1172L62.3203 33.7422H60.2031V31H59.4531V29.1172H62.4766ZM53.1406 31V19.625H55.4141V29.1094H58.8047V19.625H61.1016V31H53.1406ZM66.0312 26.8203L69.5859 19.625H71.7578V31H69.5469V23.8906L66.0234 31H63.8125V19.625H66.0312V26.8203ZM78.6016 26.8984H76.2812L75.4922 26.5703C74.7214 26.2786 74.1302 25.8516 73.7188 25.2891C73.3073 24.7266 73.1016 24.0052 73.1016 23.125C73.1016 22.3646 73.2474 21.724 73.5391 21.2031C73.8307 20.6823 74.2474 20.2891 74.7891 20.0234C75.3307 19.7578 75.9714 19.625 76.7109 19.625H80.1484V31H77.8594V21.5234H76.7109C76.2474 21.5234 75.9089 21.6797 75.6953 21.9922C75.4818 22.2995 75.375 22.7396 75.375 23.3125C75.375 23.7344 75.4271 24.0781 75.5312 24.3438C75.6354 24.6094 75.7891 24.8073 75.9922 24.9375C76.2005 25.0625 76.4661 25.125 76.7891 25.125H78.5938L78.6016 26.8984ZM77.0312 25.9375L74.9453 31H72.4844L74.5703 25.9375H77.0312Z" fill="#4F4F4F"/>
</svg>
